<?xml version="1.0" encoding="UTF-8"?><svg xmlns="http://www.w3.org/2000/svg" xmlns:xlink="http://www.w3.org/1999/xlink" fill-opacity="1" color-rendering="auto" color-interpolation="auto" text-rendering="auto" stroke="black" stroke-linecap="square" width="347" stroke-miterlimit="10" shape-rendering="auto" stroke-opacity="1" fill="black" stroke-dasharray="none" font-weight="normal" stroke-width="1" height="296" font-family="'Dialog'" font-style="normal" stroke-linejoin="miter" font-size="12px" stroke-dashoffset="0" image-rendering="auto">
  <!--Generated by ySVG 2.5-->
  <defs id="genericDefs"/>
  <g>
    <defs id="defs1">
      <clipPath clipPathUnits="userSpaceOnUse" id="clipPath1">
        <path d="M0 0 L347 0 L347 296 L0 296 L0 0 Z"/>
      </clipPath>
      <clipPath clipPathUnits="userSpaceOnUse" id="clipPath2">
        <path d="M329 199 L676 199 L676 495 L329 495 L329 199 Z"/>
      </clipPath>
    </defs>
    <g fill="white" text-rendering="geometricPrecision" shape-rendering="geometricPrecision" transform="translate(-329,-199)" stroke="white">
      <rect x="329" width="347" height="296" y="199" clip-path="url(#clipPath2)" stroke="none"/>
    </g>
    <g fill="rgb(153,204,255)" text-rendering="geometricPrecision" shape-rendering="geometricPrecision" transform="matrix(1,0,0,1,-329,-199)" stroke="rgb(153,204,255)">
      <rect x="377.5" width="30" height="30" y="291" clip-path="url(#clipPath2)" stroke="none"/>
    </g>
    <g text-rendering="geometricPrecision" stroke-miterlimit="1.45" shape-rendering="geometricPrecision" transform="matrix(1,0,0,1,-329,-199)" stroke-linecap="butt">
      <rect fill="none" x="377.5" width="30" height="30" y="291" clip-path="url(#clipPath2)"/>
    </g>
    <g fill="rgb(153,204,255)" text-rendering="geometricPrecision" shape-rendering="geometricPrecision" transform="matrix(1,0,0,1,-329,-199)" stroke="rgb(153,204,255)">
      <rect x="377.5" width="30" height="30" y="321" clip-path="url(#clipPath2)" stroke="none"/>
    </g>
    <g text-rendering="geometricPrecision" stroke-miterlimit="1.45" shape-rendering="geometricPrecision" transform="matrix(1,0,0,1,-329,-199)" stroke-linecap="butt">
      <rect fill="none" x="377.5" width="30" height="30" y="321" clip-path="url(#clipPath2)"/>
    </g>
    <g fill="rgb(153,204,255)" text-rendering="geometricPrecision" shape-rendering="geometricPrecision" transform="matrix(1,0,0,1,-329,-199)" stroke="rgb(153,204,255)">
      <rect x="377.5" width="30" height="30" y="351" clip-path="url(#clipPath2)" stroke="none"/>
    </g>
    <g text-rendering="geometricPrecision" stroke-miterlimit="1.45" shape-rendering="geometricPrecision" transform="matrix(1,0,0,1,-329,-199)" stroke-linecap="butt">
      <rect fill="none" x="377.5" width="30" height="30" y="351" clip-path="url(#clipPath2)"/>
    </g>
    <g fill="rgb(153,204,255)" text-rendering="geometricPrecision" shape-rendering="geometricPrecision" transform="matrix(1,0,0,1,-329,-199)" stroke="rgb(153,204,255)">
      <rect x="377.5" width="30" height="30" y="381" clip-path="url(#clipPath2)" stroke="none"/>
    </g>
    <g text-rendering="geometricPrecision" stroke-miterlimit="1.45" shape-rendering="geometricPrecision" transform="matrix(1,0,0,1,-329,-199)" stroke-linecap="butt">
      <rect fill="none" x="377.5" width="30" height="30" y="381" clip-path="url(#clipPath2)"/>
    </g>
    <g fill="rgb(153,204,255)" text-rendering="geometricPrecision" shape-rendering="geometricPrecision" transform="matrix(1,0,0,1,-329,-199)" stroke="rgb(153,204,255)">
      <rect x="377.5" width="30" height="30" y="411" clip-path="url(#clipPath2)" stroke="none"/>
    </g>
    <g text-rendering="geometricPrecision" stroke-miterlimit="1.45" shape-rendering="geometricPrecision" transform="matrix(1,0,0,1,-329,-199)" stroke-linecap="butt">
      <rect fill="none" x="377.5" width="30" height="30" y="411" clip-path="url(#clipPath2)"/>
    </g>
    <g fill="rgb(153,204,255)" text-rendering="geometricPrecision" shape-rendering="geometricPrecision" transform="matrix(1,0,0,1,-329,-199)" stroke="rgb(153,204,255)">
      <rect x="377.5" width="30" height="30" y="441" clip-path="url(#clipPath2)" stroke="none"/>
    </g>
    <g text-rendering="geometricPrecision" stroke-miterlimit="1.45" shape-rendering="geometricPrecision" transform="matrix(1,0,0,1,-329,-199)" stroke-linecap="butt">
      <rect fill="none" x="377.5" width="30" height="30" y="441" clip-path="url(#clipPath2)"/>
    </g>
    <g fill="rgb(153,204,255)" text-rendering="geometricPrecision" shape-rendering="geometricPrecision" transform="matrix(1,0,0,1,-329,-199)" stroke="rgb(153,204,255)">
      <rect x="422" width="30" height="30" y="291" clip-path="url(#clipPath2)" stroke="none"/>
    </g>
    <g text-rendering="geometricPrecision" stroke-miterlimit="1.45" shape-rendering="geometricPrecision" transform="matrix(1,0,0,1,-329,-199)" stroke-linecap="butt">
      <rect fill="none" x="422" width="30" height="30" y="291" clip-path="url(#clipPath2)"/>
    </g>
    <g fill="rgb(153,204,255)" text-rendering="geometricPrecision" shape-rendering="geometricPrecision" transform="matrix(1,0,0,1,-329,-199)" stroke="rgb(153,204,255)">
      <rect x="422" width="30" height="30" y="321" clip-path="url(#clipPath2)" stroke="none"/>
    </g>
    <g text-rendering="geometricPrecision" stroke-miterlimit="1.45" shape-rendering="geometricPrecision" transform="matrix(1,0,0,1,-329,-199)" stroke-linecap="butt">
      <rect fill="none" x="422" width="30" height="30" y="321" clip-path="url(#clipPath2)"/>
    </g>
    <g fill="rgb(153,204,255)" text-rendering="geometricPrecision" shape-rendering="geometricPrecision" transform="matrix(1,0,0,1,-329,-199)" stroke="rgb(153,204,255)">
      <rect x="422" width="30" height="30" y="351" clip-path="url(#clipPath2)" stroke="none"/>
    </g>
    <g text-rendering="geometricPrecision" stroke-miterlimit="1.45" shape-rendering="geometricPrecision" transform="matrix(1,0,0,1,-329,-199)" stroke-linecap="butt">
      <rect fill="none" x="422" width="30" height="30" y="351" clip-path="url(#clipPath2)"/>
    </g>
    <g fill="rgb(153,204,255)" text-rendering="geometricPrecision" shape-rendering="geometricPrecision" transform="matrix(1,0,0,1,-329,-199)" stroke="rgb(153,204,255)">
      <rect x="422" width="30" height="30" y="381" clip-path="url(#clipPath2)" stroke="none"/>
    </g>
    <g text-rendering="geometricPrecision" stroke-miterlimit="1.45" shape-rendering="geometricPrecision" transform="matrix(1,0,0,1,-329,-199)" stroke-linecap="butt">
      <rect fill="none" x="422" width="30" height="30" y="381" clip-path="url(#clipPath2)"/>
    </g>
    <g fill="rgb(153,204,255)" text-rendering="geometricPrecision" shape-rendering="geometricPrecision" transform="matrix(1,0,0,1,-329,-199)" stroke="rgb(153,204,255)">
      <rect x="422" width="30" height="30" y="411" clip-path="url(#clipPath2)" stroke="none"/>
    </g>
    <g text-rendering="geometricPrecision" stroke-miterlimit="1.45" shape-rendering="geometricPrecision" transform="matrix(1,0,0,1,-329,-199)" stroke-linecap="butt">
      <rect fill="none" x="422" width="30" height="30" y="411" clip-path="url(#clipPath2)"/>
    </g>
    <g fill="rgb(153,204,255)" text-rendering="geometricPrecision" shape-rendering="geometricPrecision" transform="matrix(1,0,0,1,-329,-199)" stroke="rgb(153,204,255)">
      <rect x="422" width="30" height="30" y="441" clip-path="url(#clipPath2)" stroke="none"/>
    </g>
    <g text-rendering="geometricPrecision" stroke-miterlimit="1.45" shape-rendering="geometricPrecision" transform="matrix(1,0,0,1,-329,-199)" stroke-linecap="butt">
      <rect fill="none" x="422" width="30" height="30" y="441" clip-path="url(#clipPath2)"/>
    </g>
    <g fill="rgb(153,204,255)" text-rendering="geometricPrecision" shape-rendering="geometricPrecision" transform="matrix(1,0,0,1,-329,-199)" stroke="rgb(153,204,255)">
      <rect x="466.5" width="30" height="30" y="291" clip-path="url(#clipPath2)" stroke="none"/>
    </g>
    <g text-rendering="geometricPrecision" stroke-miterlimit="1.45" shape-rendering="geometricPrecision" transform="matrix(1,0,0,1,-329,-199)" stroke-linecap="butt">
      <rect fill="none" x="466.5" width="30" height="30" y="291" clip-path="url(#clipPath2)"/>
    </g>
    <g fill="rgb(153,204,255)" text-rendering="geometricPrecision" shape-rendering="geometricPrecision" transform="matrix(1,0,0,1,-329,-199)" stroke="rgb(153,204,255)">
      <rect x="466.5" width="30" height="30" y="321" clip-path="url(#clipPath2)" stroke="none"/>
    </g>
    <g text-rendering="geometricPrecision" stroke-miterlimit="1.45" shape-rendering="geometricPrecision" transform="matrix(1,0,0,1,-329,-199)" stroke-linecap="butt">
      <rect fill="none" x="466.5" width="30" height="30" y="321" clip-path="url(#clipPath2)"/>
    </g>
    <g fill="rgb(153,204,255)" text-rendering="geometricPrecision" shape-rendering="geometricPrecision" transform="matrix(1,0,0,1,-329,-199)" stroke="rgb(153,204,255)">
      <rect x="466.5" width="30" height="30" y="351" clip-path="url(#clipPath2)" stroke="none"/>
    </g>
    <g text-rendering="geometricPrecision" stroke-miterlimit="1.45" shape-rendering="geometricPrecision" transform="matrix(1,0,0,1,-329,-199)" stroke-linecap="butt">
      <rect fill="none" x="466.5" width="30" height="30" y="351" clip-path="url(#clipPath2)"/>
    </g>
    <g fill="rgb(153,204,255)" text-rendering="geometricPrecision" shape-rendering="geometricPrecision" transform="matrix(1,0,0,1,-329,-199)" stroke="rgb(153,204,255)">
      <rect x="466.5" width="30" height="30" y="381" clip-path="url(#clipPath2)" stroke="none"/>
    </g>
    <g text-rendering="geometricPrecision" stroke-miterlimit="1.45" shape-rendering="geometricPrecision" transform="matrix(1,0,0,1,-329,-199)" stroke-linecap="butt">
      <rect fill="none" x="466.5" width="30" height="30" y="381" clip-path="url(#clipPath2)"/>
    </g>
    <g fill="rgb(153,204,255)" text-rendering="geometricPrecision" shape-rendering="geometricPrecision" transform="matrix(1,0,0,1,-329,-199)" stroke="rgb(153,204,255)">
      <rect x="466.5" width="30" height="30" y="411" clip-path="url(#clipPath2)" stroke="none"/>
    </g>
    <g text-rendering="geometricPrecision" stroke-miterlimit="1.45" shape-rendering="geometricPrecision" transform="matrix(1,0,0,1,-329,-199)" stroke-linecap="butt">
      <rect fill="none" x="466.5" width="30" height="30" y="411" clip-path="url(#clipPath2)"/>
    </g>
    <g fill="rgb(153,204,255)" text-rendering="geometricPrecision" shape-rendering="geometricPrecision" transform="matrix(1,0,0,1,-329,-199)" stroke="rgb(153,204,255)">
      <rect x="466.5" width="30" height="30" y="441" clip-path="url(#clipPath2)" stroke="none"/>
    </g>
    <g text-rendering="geometricPrecision" stroke-miterlimit="1.45" shape-rendering="geometricPrecision" transform="matrix(1,0,0,1,-329,-199)" stroke-linecap="butt">
      <rect fill="none" x="466.5" width="30" height="30" y="441" clip-path="url(#clipPath2)"/>
      <rect x="358.75" y="280" clip-path="url(#clipPath2)" fill="none" width="156.5" rx="4" ry="4" height="200"/>
    </g>
    <g fill="rgb(204,255,204)" text-rendering="geometricPrecision" shape-rendering="geometricPrecision" transform="matrix(1,0,0,1,-329,-199)" stroke="rgb(204,255,204)">
      <rect x="397" width="80" height="30" y="214.3333" clip-path="url(#clipPath2)" stroke="none"/>
    </g>
    <g text-rendering="geometricPrecision" stroke-miterlimit="1.45" shape-rendering="geometricPrecision" transform="matrix(1,0,0,1,-329,-199)" stroke-linecap="butt">
      <rect fill="none" x="397" width="80" height="30" y="214.3333" clip-path="url(#clipPath2)"/>
      <text x="403.543" xml:space="preserve" y="233.4876" clip-path="url(#clipPath2)" font-family="sans-serif" stroke="none">DataFrame</text>
    </g>
    <g fill="rgb(204,255,204)" text-rendering="geometricPrecision" shape-rendering="geometricPrecision" transform="matrix(1,0,0,1,-329,-199)" stroke="rgb(204,255,204)">
      <rect x="545.25" width="115" height="30" y="291" clip-path="url(#clipPath2)" stroke="none"/>
    </g>
    <g text-rendering="geometricPrecision" stroke-miterlimit="1.45" shape-rendering="geometricPrecision" transform="matrix(1,0,0,1,-329,-199)" stroke-linecap="butt">
      <rect fill="none" x="545.25" width="115" height="30" y="291" clip-path="url(#clipPath2)"/>
      <text x="553.5342" xml:space="preserve" y="310.1543" clip-path="url(#clipPath2)" font-family="sans-serif" stroke="none">Columns of data</text>
      <path fill="none" d="M437 244.3333 L437 271.9822" clip-path="url(#clipPath2)"/>
      <path d="M437 279.9822 L442 267.9822 L437 270.9822 L432 267.9822 Z" clip-path="url(#clipPath2)" stroke="none"/>
      <path fill="none" d="M545.25 306 L504.5 306" clip-path="url(#clipPath2)"/>
      <path d="M496.5 306 L508.5 311 L505.5 306 L508.5 301 Z" clip-path="url(#clipPath2)" stroke="none"/>
    </g>
  </g>
</svg>
