<?xml version="1.0" encoding="UTF-8" standalone="no"?>
<!DOCTYPE svg PUBLIC "-//W3C//DTD SVG 1.1//EN"
 "http://www.w3.org/Graphics/SVG/1.1/DTD/svg11.dtd">
<!-- Generated by graphviz version 2.38.0 (20140413.2041)
 -->
<!-- Title: a_list Pages: 1 -->
<svg width="394pt" height="263pt"
 viewBox="0.00 0.00 394.19 263.00" xmlns="http://www.w3.org/2000/svg" xmlns:xlink="http://www.w3.org/1999/xlink">
<g id="graph0" class="graph" transform="scale(1 1) rotate(0) translate(4 259)">
<title>a_list</title>
<polygon fill="white" stroke="none" points="-4,4 -4,-259 390.195,-259 390.195,4 -4,4"/>
<g id="clust1" class="cluster"><title>cluster_adata</title>
<polygon fill="aquamarine" stroke="aquamarine" points="8,-64 8,-139 372,-139 372,-64 8,-64"/>
<text text-anchor="middle" x="190" y="-123.8" font-family="Times,serif" font-size="14.00">Data array for a_list PyObject</text>
</g>
<!-- a_list -->
<g id="node1" class="node"><title>a_list</title>
<ellipse fill="gold" stroke="gold" cx="190" cy="-237" rx="92.0841" ry="18"/>
<text text-anchor="middle" x="190" y="-233.3" font-family="Times,serif" font-size="14.00">Variable a_list (lvalue)</text>
</g>
<!-- aobj -->
<g id="node2" class="node"><title>aobj</title>
<ellipse fill="cyan" stroke="cyan" cx="190" cy="-165" rx="64.9885" ry="18"/>
<text text-anchor="middle" x="190" y="-161.3" font-family="Times,serif" font-size="14.00">PyObject a_list</text>
</g>
<!-- a_list&#45;&gt;aobj -->
<g id="edge1" class="edge"><title>a_list&#45;&gt;aobj</title>
<path fill="none" stroke="black" d="M190,-218.697C190,-210.983 190,-201.712 190,-193.112"/>
<polygon fill="black" stroke="black" points="193.5,-193.104 190,-183.104 186.5,-193.104 193.5,-193.104"/>
</g>
<!-- adata_1 -->
<g id="node7" class="node"><title>adata_1</title>
<ellipse fill="cyan" stroke="cyan" cx="190" cy="-90" rx="51.9908" ry="18"/>
<text text-anchor="middle" x="190" y="-86.3" font-family="Times,serif" font-size="14.00">element [1]</text>
</g>
<!-- aobj&#45;&gt;adata_1 -->
<g id="edge5" class="edge"><title>aobj&#45;&gt;adata_1</title>
<path fill="none" stroke="black" d="M190,-146.7C190,-146.543 190,-146.386 190,-146.227"/>
<polygon fill="black" stroke="black" points="193.5,-148.735 190,-138.735 186.5,-148.735 193.5,-148.735"/>
</g>
<!-- one -->
<g id="node3" class="node"><title>one</title>
<ellipse fill="cyan" stroke="cyan" cx="58" cy="-18" rx="50.0912" ry="18"/>
<text text-anchor="middle" x="58" y="-14.3" font-family="Times,serif" font-size="14.00">PyObject 1</text>
</g>
<!-- hello -->
<g id="node4" class="node"><title>hello</title>
<ellipse fill="cyan" stroke="cyan" cx="190" cy="-18" rx="63.8893" ry="18"/>
<text text-anchor="middle" x="190" y="-14.3" font-family="Times,serif" font-size="14.00">PyObject hello</text>
</g>
<!-- oneptwo -->
<g id="node5" class="node"><title>oneptwo</title>
<ellipse fill="cyan" stroke="cyan" cx="329" cy="-18" rx="57.3905" ry="18"/>
<text text-anchor="middle" x="329" y="-14.3" font-family="Times,serif" font-size="14.00">PyObject 1.2</text>
</g>
<!-- adata_0 -->
<g id="node6" class="node"><title>adata_0</title>
<ellipse fill="cyan" stroke="cyan" cx="68" cy="-90" rx="51.9908" ry="18"/>
<text text-anchor="middle" x="68" y="-86.3" font-family="Times,serif" font-size="14.00">element [0]</text>
</g>
<!-- adata_0&#45;&gt;one -->
<g id="edge2" class="edge"><title>adata_0&#45;&gt;one</title>
<path fill="none" stroke="black" d="M65.5281,-71.6966C64.4261,-63.9827 63.1018,-54.7125 61.8732,-46.1124"/>
<polygon fill="black" stroke="black" points="65.3226,-45.5088 60.4435,-36.1043 58.393,-46.4988 65.3226,-45.5088"/>
</g>
<!-- adata_1&#45;&gt;hello -->
<g id="edge3" class="edge"><title>adata_1&#45;&gt;hello</title>
<path fill="none" stroke="black" d="M190,-71.6966C190,-63.9827 190,-54.7125 190,-46.1124"/>
<polygon fill="black" stroke="black" points="193.5,-46.1043 190,-36.1043 186.5,-46.1044 193.5,-46.1043"/>
</g>
<!-- adata_2 -->
<g id="node8" class="node"><title>adata_2</title>
<ellipse fill="cyan" stroke="cyan" cx="312" cy="-90" rx="51.9908" ry="18"/>
<text text-anchor="middle" x="312" y="-86.3" font-family="Times,serif" font-size="14.00">element [2]</text>
</g>
<!-- adata_2&#45;&gt;oneptwo -->
<g id="edge4" class="edge"><title>adata_2&#45;&gt;oneptwo</title>
<path fill="none" stroke="black" d="M316.115,-72.055C318.008,-64.2609 320.3,-54.8219 322.424,-46.0789"/>
<polygon fill="black" stroke="black" points="325.846,-46.8189 324.805,-36.2753 319.043,-45.1668 325.846,-46.8189"/>
</g>
</g>
</svg>
