<?xml version="1.0" encoding="UTF-8" standalone="no"?>
<!DOCTYPE svg PUBLIC "-//W3C//DTD SVG 1.1//EN"
 "http://www.w3.org/Graphics/SVG/1.1/DTD/svg11.dtd">
<!-- Generated by graphviz version 2.38.0 (20140413.2041)
 -->
<!-- Title: ndarray Pages: 1 -->
<svg width="238pt" height="279pt"
 viewBox="0.00 0.00 238.00 279.00" xmlns="http://www.w3.org/2000/svg" xmlns:xlink="http://www.w3.org/1999/xlink">
<g id="graph0" class="graph" transform="scale(1 1) rotate(0) translate(4 275)">
<title>ndarray</title>
<polygon fill="white" stroke="none" points="-4,4 -4,-275 234,-275 234,4 -4,4"/>
<g id="clust1" class="cluster"><title>cluster_n</title>
<polygon fill="aquamarine" stroke="aquamarine" points="8,-8 8,-83 222,-83 222,-8 8,-8"/>
<text text-anchor="middle" x="115" y="-67.8" font-family="Times,serif" font-size="14.00">Data array for n</text>
</g>
<!-- n -->
<g id="node1" class="node"><title>n</title>
<ellipse fill="gold" stroke="gold" cx="115" cy="-253" rx="77.1866" ry="18"/>
<text text-anchor="middle" x="115" y="-249.3" font-family="Times,serif" font-size="14.00">Variable n (lvalue)</text>
</g>
<!-- nobj -->
<g id="node2" class="node"><title>nobj</title>
<ellipse fill="cyan" stroke="cyan" cx="115" cy="-181" rx="50.0912" ry="18"/>
<text text-anchor="middle" x="115" y="-177.3" font-family="Times,serif" font-size="14.00">PyObject n</text>
</g>
<!-- n&#45;&gt;nobj -->
<g id="edge1" class="edge"><title>n&#45;&gt;nobj</title>
<path fill="none" stroke="black" d="M115,-234.697C115,-226.983 115,-217.712 115,-209.112"/>
<polygon fill="black" stroke="black" points="118.5,-209.104 115,-199.104 111.5,-209.104 118.5,-209.104"/>
</g>
<!-- ndesc -->
<g id="node3" class="node"><title>ndesc</title>
<ellipse fill="cyan" stroke="cyan" cx="115" cy="-109" rx="72.2875" ry="18"/>
<text text-anchor="middle" x="115" y="-105.3" font-family="Times,serif" font-size="14.00">ndarray metadata</text>
</g>
<!-- nobj&#45;&gt;ndesc -->
<g id="edge2" class="edge"><title>nobj&#45;&gt;ndesc</title>
<path fill="none" stroke="black" d="M115,-162.697C115,-154.983 115,-145.712 115,-137.112"/>
<polygon fill="black" stroke="black" points="118.5,-137.104 115,-127.104 111.5,-137.104 118.5,-137.104"/>
</g>
<!-- ndata_1 -->
<g id="node5" class="node"><title>ndata_1</title>
<polygon fill="cyan" stroke="cyan" points="142,-52 88,-52 88,-16 142,-16 142,-52"/>
<text text-anchor="middle" x="115" y="-30.3" font-family="Times,serif" font-size="14.00">2</text>
</g>
<!-- ndesc&#45;&gt;ndata_1 -->
<g id="edge3" class="edge"><title>ndesc&#45;&gt;ndata_1</title>
<path fill="none" stroke="black" d="M115,-90.7C115,-90.5431 115,-90.3856 115,-90.2274"/>
<polygon fill="black" stroke="black" points="118.5,-92.7351 115,-82.7352 111.5,-92.7352 118.5,-92.7351"/>
</g>
<!-- ndata_0 -->
<g id="node4" class="node"><title>ndata_0</title>
<polygon fill="cyan" stroke="cyan" points="214,-52 160,-52 160,-16 214,-16 214,-52"/>
<text text-anchor="middle" x="187" y="-30.3" font-family="Times,serif" font-size="14.00">3</text>
</g>
<!-- ndata_2 -->
<g id="node6" class="node"><title>ndata_2</title>
<polygon fill="cyan" stroke="cyan" points="70,-52 16,-52 16,-16 70,-16 70,-52"/>
<text text-anchor="middle" x="43" y="-30.3" font-family="Times,serif" font-size="14.00">1</text>
</g>
</g>
</svg>
