<?xml version="1.0" encoding="utf-8" standalone="no"?>
<!DOCTYPE svg PUBLIC "-//W3C//DTD SVG 1.1//EN"
  "http://www.w3.org/Graphics/SVG/1.1/DTD/svg11.dtd">
<!-- Created with matplotlib (http://matplotlib.org/) -->
<svg height="345.6pt" version="1.1" viewBox="0 0 460.8 345.6" width="460.8pt" xmlns="http://www.w3.org/2000/svg" xmlns:xlink="http://www.w3.org/1999/xlink">
 <defs>
  <style type="text/css">
*{stroke-linecap:butt;stroke-linejoin:round;}
  </style>
 </defs>
 <g id="figure_1">
  <g id="patch_1">
   <path d="M 0 345.6 
L 460.8 345.6 
L 460.8 0 
L 0 0 
z
" style="fill:#ffffff;"/>
  </g>
  <g id="axes_1">
   <g id="patch_2">
    <path d="M 57.6 307.584 
L 414.72 307.584 
L 414.72 41.472 
L 57.6 41.472 
z
" style="fill:#ffffff;"/>
   </g>
   <g id="matplotlib.axis_1">
    <g id="xtick_1">
     <g id="line2d_1">
      <defs>
       <path d="M 0 0 
L 0 3.5 
" id="m1a0219bdd4" style="stroke:#000000;stroke-width:0.8;"/>
      </defs>
      <g>
       <use style="stroke:#000000;stroke-width:0.8;" x="73.832727" xlink:href="#m1a0219bdd4" y="307.584"/>
      </g>
     </g>
     <g id="text_1">
      <!-- 0 -->
      <defs>
       <path d="M 31.78125 66.40625 
Q 24.171875 66.40625 20.328125 58.90625 
Q 16.5 51.421875 16.5 36.375 
Q 16.5 21.390625 20.328125 13.890625 
Q 24.171875 6.390625 31.78125 6.390625 
Q 39.453125 6.390625 43.28125 13.890625 
Q 47.125 21.390625 47.125 36.375 
Q 47.125 51.421875 43.28125 58.90625 
Q 39.453125 66.40625 31.78125 66.40625 
z
M 31.78125 74.21875 
Q 44.046875 74.21875 50.515625 64.515625 
Q 56.984375 54.828125 56.984375 36.375 
Q 56.984375 17.96875 50.515625 8.265625 
Q 44.046875 -1.421875 31.78125 -1.421875 
Q 19.53125 -1.421875 13.0625 8.265625 
Q 6.59375 17.96875 6.59375 36.375 
Q 6.59375 54.828125 13.0625 64.515625 
Q 19.53125 74.21875 31.78125 74.21875 
z
" id="DejaVuSans-30"/>
      </defs>
      <g transform="translate(70.651477 322.182437)scale(0.1 -0.1)">
       <use xlink:href="#DejaVuSans-30"/>
      </g>
     </g>
    </g>
    <g id="xtick_2">
     <g id="line2d_2">
      <g>
       <use style="stroke:#000000;stroke-width:0.8;" x="138.763636" xlink:href="#m1a0219bdd4" y="307.584"/>
      </g>
     </g>
     <g id="text_2">
      <!-- 1 -->
      <defs>
       <path d="M 12.40625 8.296875 
L 28.515625 8.296875 
L 28.515625 63.921875 
L 10.984375 60.40625 
L 10.984375 69.390625 
L 28.421875 72.90625 
L 38.28125 72.90625 
L 38.28125 8.296875 
L 54.390625 8.296875 
L 54.390625 0 
L 12.40625 0 
z
" id="DejaVuSans-31"/>
      </defs>
      <g transform="translate(135.582386 322.182437)scale(0.1 -0.1)">
       <use xlink:href="#DejaVuSans-31"/>
      </g>
     </g>
    </g>
    <g id="xtick_3">
     <g id="line2d_3">
      <g>
       <use style="stroke:#000000;stroke-width:0.8;" x="203.694545" xlink:href="#m1a0219bdd4" y="307.584"/>
      </g>
     </g>
     <g id="text_3">
      <!-- 2 -->
      <defs>
       <path d="M 19.1875 8.296875 
L 53.609375 8.296875 
L 53.609375 0 
L 7.328125 0 
L 7.328125 8.296875 
Q 12.9375 14.109375 22.625 23.890625 
Q 32.328125 33.6875 34.8125 36.53125 
Q 39.546875 41.84375 41.421875 45.53125 
Q 43.3125 49.21875 43.3125 52.78125 
Q 43.3125 58.59375 39.234375 62.25 
Q 35.15625 65.921875 28.609375 65.921875 
Q 23.96875 65.921875 18.8125 64.3125 
Q 13.671875 62.703125 7.8125 59.421875 
L 7.8125 69.390625 
Q 13.765625 71.78125 18.9375 73 
Q 24.125 74.21875 28.421875 74.21875 
Q 39.75 74.21875 46.484375 68.546875 
Q 53.21875 62.890625 53.21875 53.421875 
Q 53.21875 48.921875 51.53125 44.890625 
Q 49.859375 40.875 45.40625 35.40625 
Q 44.1875 33.984375 37.640625 27.21875 
Q 31.109375 20.453125 19.1875 8.296875 
z
" id="DejaVuSans-32"/>
      </defs>
      <g transform="translate(200.513295 322.182437)scale(0.1 -0.1)">
       <use xlink:href="#DejaVuSans-32"/>
      </g>
     </g>
    </g>
    <g id="xtick_4">
     <g id="line2d_4">
      <g>
       <use style="stroke:#000000;stroke-width:0.8;" x="268.625455" xlink:href="#m1a0219bdd4" y="307.584"/>
      </g>
     </g>
     <g id="text_4">
      <!-- 3 -->
      <defs>
       <path d="M 40.578125 39.3125 
Q 47.65625 37.796875 51.625 33 
Q 55.609375 28.21875 55.609375 21.1875 
Q 55.609375 10.40625 48.1875 4.484375 
Q 40.765625 -1.421875 27.09375 -1.421875 
Q 22.515625 -1.421875 17.65625 -0.515625 
Q 12.796875 0.390625 7.625 2.203125 
L 7.625 11.71875 
Q 11.71875 9.328125 16.59375 8.109375 
Q 21.484375 6.890625 26.8125 6.890625 
Q 36.078125 6.890625 40.9375 10.546875 
Q 45.796875 14.203125 45.796875 21.1875 
Q 45.796875 27.640625 41.28125 31.265625 
Q 36.765625 34.90625 28.71875 34.90625 
L 20.21875 34.90625 
L 20.21875 43.015625 
L 29.109375 43.015625 
Q 36.375 43.015625 40.234375 45.921875 
Q 44.09375 48.828125 44.09375 54.296875 
Q 44.09375 59.90625 40.109375 62.90625 
Q 36.140625 65.921875 28.71875 65.921875 
Q 24.65625 65.921875 20.015625 65.03125 
Q 15.375 64.15625 9.8125 62.3125 
L 9.8125 71.09375 
Q 15.4375 72.65625 20.34375 73.4375 
Q 25.25 74.21875 29.59375 74.21875 
Q 40.828125 74.21875 47.359375 69.109375 
Q 53.90625 64.015625 53.90625 55.328125 
Q 53.90625 49.265625 50.4375 45.09375 
Q 46.96875 40.921875 40.578125 39.3125 
z
" id="DejaVuSans-33"/>
      </defs>
      <g transform="translate(265.444205 322.182437)scale(0.1 -0.1)">
       <use xlink:href="#DejaVuSans-33"/>
      </g>
     </g>
    </g>
    <g id="xtick_5">
     <g id="line2d_5">
      <g>
       <use style="stroke:#000000;stroke-width:0.8;" x="333.556364" xlink:href="#m1a0219bdd4" y="307.584"/>
      </g>
     </g>
     <g id="text_5">
      <!-- 4 -->
      <defs>
       <path d="M 37.796875 64.3125 
L 12.890625 25.390625 
L 37.796875 25.390625 
z
M 35.203125 72.90625 
L 47.609375 72.90625 
L 47.609375 25.390625 
L 58.015625 25.390625 
L 58.015625 17.1875 
L 47.609375 17.1875 
L 47.609375 0 
L 37.796875 0 
L 37.796875 17.1875 
L 4.890625 17.1875 
L 4.890625 26.703125 
z
" id="DejaVuSans-34"/>
      </defs>
      <g transform="translate(330.375114 322.182437)scale(0.1 -0.1)">
       <use xlink:href="#DejaVuSans-34"/>
      </g>
     </g>
    </g>
    <g id="xtick_6">
     <g id="line2d_6">
      <g>
       <use style="stroke:#000000;stroke-width:0.8;" x="398.487273" xlink:href="#m1a0219bdd4" y="307.584"/>
      </g>
     </g>
     <g id="text_6">
      <!-- 5 -->
      <defs>
       <path d="M 10.796875 72.90625 
L 49.515625 72.90625 
L 49.515625 64.59375 
L 19.828125 64.59375 
L 19.828125 46.734375 
Q 21.96875 47.46875 24.109375 47.828125 
Q 26.265625 48.1875 28.421875 48.1875 
Q 40.625 48.1875 47.75 41.5 
Q 54.890625 34.8125 54.890625 23.390625 
Q 54.890625 11.625 47.5625 5.09375 
Q 40.234375 -1.421875 26.90625 -1.421875 
Q 22.3125 -1.421875 17.546875 -0.640625 
Q 12.796875 0.140625 7.71875 1.703125 
L 7.71875 11.625 
Q 12.109375 9.234375 16.796875 8.0625 
Q 21.484375 6.890625 26.703125 6.890625 
Q 35.15625 6.890625 40.078125 11.328125 
Q 45.015625 15.765625 45.015625 23.390625 
Q 45.015625 31 40.078125 35.4375 
Q 35.15625 39.890625 26.703125 39.890625 
Q 22.75 39.890625 18.8125 39.015625 
Q 14.890625 38.140625 10.796875 36.28125 
z
" id="DejaVuSans-35"/>
      </defs>
      <g transform="translate(395.306023 322.182437)scale(0.1 -0.1)">
       <use xlink:href="#DejaVuSans-35"/>
      </g>
     </g>
    </g>
    <g id="text_7">
     <!-- time (s) -->
     <defs>
      <path d="M 18.3125 70.21875 
L 18.3125 54.6875 
L 36.8125 54.6875 
L 36.8125 47.703125 
L 18.3125 47.703125 
L 18.3125 18.015625 
Q 18.3125 11.328125 20.140625 9.421875 
Q 21.96875 7.515625 27.59375 7.515625 
L 36.8125 7.515625 
L 36.8125 0 
L 27.59375 0 
Q 17.1875 0 13.234375 3.875 
Q 9.28125 7.765625 9.28125 18.015625 
L 9.28125 47.703125 
L 2.6875 47.703125 
L 2.6875 54.6875 
L 9.28125 54.6875 
L 9.28125 70.21875 
z
" id="DejaVuSans-74"/>
      <path d="M 9.421875 54.6875 
L 18.40625 54.6875 
L 18.40625 0 
L 9.421875 0 
z
M 9.421875 75.984375 
L 18.40625 75.984375 
L 18.40625 64.59375 
L 9.421875 64.59375 
z
" id="DejaVuSans-69"/>
      <path d="M 52 44.1875 
Q 55.375 50.25 60.0625 53.125 
Q 64.75 56 71.09375 56 
Q 79.640625 56 84.28125 50.015625 
Q 88.921875 44.046875 88.921875 33.015625 
L 88.921875 0 
L 79.890625 0 
L 79.890625 32.71875 
Q 79.890625 40.578125 77.09375 44.375 
Q 74.3125 48.1875 68.609375 48.1875 
Q 61.625 48.1875 57.5625 43.546875 
Q 53.515625 38.921875 53.515625 30.90625 
L 53.515625 0 
L 44.484375 0 
L 44.484375 32.71875 
Q 44.484375 40.625 41.703125 44.40625 
Q 38.921875 48.1875 33.109375 48.1875 
Q 26.21875 48.1875 22.15625 43.53125 
Q 18.109375 38.875 18.109375 30.90625 
L 18.109375 0 
L 9.078125 0 
L 9.078125 54.6875 
L 18.109375 54.6875 
L 18.109375 46.1875 
Q 21.1875 51.21875 25.484375 53.609375 
Q 29.78125 56 35.6875 56 
Q 41.65625 56 45.828125 52.96875 
Q 50 49.953125 52 44.1875 
z
" id="DejaVuSans-6d"/>
      <path d="M 56.203125 29.59375 
L 56.203125 25.203125 
L 14.890625 25.203125 
Q 15.484375 15.921875 20.484375 11.0625 
Q 25.484375 6.203125 34.421875 6.203125 
Q 39.59375 6.203125 44.453125 7.46875 
Q 49.3125 8.734375 54.109375 11.28125 
L 54.109375 2.78125 
Q 49.265625 0.734375 44.1875 -0.34375 
Q 39.109375 -1.421875 33.890625 -1.421875 
Q 20.796875 -1.421875 13.15625 6.1875 
Q 5.515625 13.8125 5.515625 26.8125 
Q 5.515625 40.234375 12.765625 48.109375 
Q 20.015625 56 32.328125 56 
Q 43.359375 56 49.78125 48.890625 
Q 56.203125 41.796875 56.203125 29.59375 
z
M 47.21875 32.234375 
Q 47.125 39.59375 43.09375 43.984375 
Q 39.0625 48.390625 32.421875 48.390625 
Q 24.90625 48.390625 20.390625 44.140625 
Q 15.875 39.890625 15.1875 32.171875 
z
" id="DejaVuSans-65"/>
      <path id="DejaVuSans-20"/>
      <path d="M 31 75.875 
Q 24.46875 64.65625 21.28125 53.65625 
Q 18.109375 42.671875 18.109375 31.390625 
Q 18.109375 20.125 21.3125 9.0625 
Q 24.515625 -2 31 -13.1875 
L 23.1875 -13.1875 
Q 15.875 -1.703125 12.234375 9.375 
Q 8.59375 20.453125 8.59375 31.390625 
Q 8.59375 42.28125 12.203125 53.3125 
Q 15.828125 64.359375 23.1875 75.875 
z
" id="DejaVuSans-28"/>
      <path d="M 44.28125 53.078125 
L 44.28125 44.578125 
Q 40.484375 46.53125 36.375 47.5 
Q 32.28125 48.484375 27.875 48.484375 
Q 21.1875 48.484375 17.84375 46.4375 
Q 14.5 44.390625 14.5 40.28125 
Q 14.5 37.15625 16.890625 35.375 
Q 19.28125 33.59375 26.515625 31.984375 
L 29.59375 31.296875 
Q 39.15625 29.25 43.1875 25.515625 
Q 47.21875 21.78125 47.21875 15.09375 
Q 47.21875 7.46875 41.1875 3.015625 
Q 35.15625 -1.421875 24.609375 -1.421875 
Q 20.21875 -1.421875 15.453125 -0.5625 
Q 10.6875 0.296875 5.421875 2 
L 5.421875 11.28125 
Q 10.40625 8.6875 15.234375 7.390625 
Q 20.0625 6.109375 24.8125 6.109375 
Q 31.15625 6.109375 34.5625 8.28125 
Q 37.984375 10.453125 37.984375 14.40625 
Q 37.984375 18.0625 35.515625 20.015625 
Q 33.0625 21.96875 24.703125 23.78125 
L 21.578125 24.515625 
Q 13.234375 26.265625 9.515625 29.90625 
Q 5.8125 33.546875 5.8125 39.890625 
Q 5.8125 47.609375 11.28125 51.796875 
Q 16.75 56 26.8125 56 
Q 31.78125 56 36.171875 55.265625 
Q 40.578125 54.546875 44.28125 53.078125 
z
" id="DejaVuSans-73"/>
      <path d="M 8.015625 75.875 
L 15.828125 75.875 
Q 23.140625 64.359375 26.78125 53.3125 
Q 30.421875 42.28125 30.421875 31.390625 
Q 30.421875 20.453125 26.78125 9.375 
Q 23.140625 -1.703125 15.828125 -13.1875 
L 8.015625 -13.1875 
Q 14.5 -2 17.703125 9.0625 
Q 20.90625 20.125 20.90625 31.390625 
Q 20.90625 42.671875 17.703125 53.65625 
Q 14.5 64.65625 8.015625 75.875 
z
" id="DejaVuSans-29"/>
     </defs>
     <g transform="translate(216.768594 335.860562)scale(0.1 -0.1)">
      <use xlink:href="#DejaVuSans-74"/>
      <use x="39.208984" xlink:href="#DejaVuSans-69"/>
      <use x="66.992188" xlink:href="#DejaVuSans-6d"/>
      <use x="164.404297" xlink:href="#DejaVuSans-65"/>
      <use x="225.927734" xlink:href="#DejaVuSans-20"/>
      <use x="257.714844" xlink:href="#DejaVuSans-28"/>
      <use x="296.728516" xlink:href="#DejaVuSans-73"/>
      <use x="348.828125" xlink:href="#DejaVuSans-29"/>
     </g>
    </g>
   </g>
   <g id="matplotlib.axis_2">
    <g id="ytick_1">
     <g id="line2d_7">
      <defs>
       <path d="M 0 0 
L -3.5 0 
" id="mb25beb1aa5" style="stroke:#000000;stroke-width:0.8;"/>
      </defs>
      <g>
       <use style="stroke:#000000;stroke-width:0.8;" x="57.6" xlink:href="#mb25beb1aa5" y="295.503227"/>
      </g>
     </g>
     <g id="text_8">
      <!-- −1.00 -->
      <defs>
       <path d="M 10.59375 35.5 
L 73.1875 35.5 
L 73.1875 27.203125 
L 10.59375 27.203125 
z
" id="DejaVuSans-2212"/>
       <path d="M 10.6875 12.40625 
L 21 12.40625 
L 21 0 
L 10.6875 0 
z
" id="DejaVuSans-2e"/>
      </defs>
      <g transform="translate(19.954687 299.302446)scale(0.1 -0.1)">
       <use xlink:href="#DejaVuSans-2212"/>
       <use x="83.789062" xlink:href="#DejaVuSans-31"/>
       <use x="147.412109" xlink:href="#DejaVuSans-2e"/>
       <use x="179.199219" xlink:href="#DejaVuSans-30"/>
       <use x="242.822266" xlink:href="#DejaVuSans-30"/>
      </g>
     </g>
    </g>
    <g id="ytick_2">
     <g id="line2d_8">
      <g>
       <use style="stroke:#000000;stroke-width:0.8;" x="57.6" xlink:href="#mb25beb1aa5" y="265.259421"/>
      </g>
     </g>
     <g id="text_9">
      <!-- −0.75 -->
      <defs>
       <path d="M 8.203125 72.90625 
L 55.078125 72.90625 
L 55.078125 68.703125 
L 28.609375 0 
L 18.3125 0 
L 43.21875 64.59375 
L 8.203125 64.59375 
z
" id="DejaVuSans-37"/>
      </defs>
      <g transform="translate(19.954687 269.058639)scale(0.1 -0.1)">
       <use xlink:href="#DejaVuSans-2212"/>
       <use x="83.789062" xlink:href="#DejaVuSans-30"/>
       <use x="147.412109" xlink:href="#DejaVuSans-2e"/>
       <use x="179.199219" xlink:href="#DejaVuSans-37"/>
       <use x="242.822266" xlink:href="#DejaVuSans-35"/>
      </g>
     </g>
    </g>
    <g id="ytick_3">
     <g id="line2d_9">
      <g>
       <use style="stroke:#000000;stroke-width:0.8;" x="57.6" xlink:href="#mb25beb1aa5" y="235.015614"/>
      </g>
     </g>
     <g id="text_10">
      <!-- −0.50 -->
      <g transform="translate(19.954687 238.814832)scale(0.1 -0.1)">
       <use xlink:href="#DejaVuSans-2212"/>
       <use x="83.789062" xlink:href="#DejaVuSans-30"/>
       <use x="147.412109" xlink:href="#DejaVuSans-2e"/>
       <use x="179.199219" xlink:href="#DejaVuSans-35"/>
       <use x="242.822266" xlink:href="#DejaVuSans-30"/>
      </g>
     </g>
    </g>
    <g id="ytick_4">
     <g id="line2d_10">
      <g>
       <use style="stroke:#000000;stroke-width:0.8;" x="57.6" xlink:href="#mb25beb1aa5" y="204.771807"/>
      </g>
     </g>
     <g id="text_11">
      <!-- −0.25 -->
      <g transform="translate(19.954687 208.571026)scale(0.1 -0.1)">
       <use xlink:href="#DejaVuSans-2212"/>
       <use x="83.789062" xlink:href="#DejaVuSans-30"/>
       <use x="147.412109" xlink:href="#DejaVuSans-2e"/>
       <use x="179.199219" xlink:href="#DejaVuSans-32"/>
       <use x="242.822266" xlink:href="#DejaVuSans-35"/>
      </g>
     </g>
    </g>
    <g id="ytick_5">
     <g id="line2d_11">
      <g>
       <use style="stroke:#000000;stroke-width:0.8;" x="57.6" xlink:href="#mb25beb1aa5" y="174.528"/>
      </g>
     </g>
     <g id="text_12">
      <!-- 0.00 -->
      <g transform="translate(28.334375 178.327219)scale(0.1 -0.1)">
       <use xlink:href="#DejaVuSans-30"/>
       <use x="63.623047" xlink:href="#DejaVuSans-2e"/>
       <use x="95.410156" xlink:href="#DejaVuSans-30"/>
       <use x="159.033203" xlink:href="#DejaVuSans-30"/>
      </g>
     </g>
    </g>
    <g id="ytick_6">
     <g id="line2d_12">
      <g>
       <use style="stroke:#000000;stroke-width:0.8;" x="57.6" xlink:href="#mb25beb1aa5" y="144.284193"/>
      </g>
     </g>
     <g id="text_13">
      <!-- 0.25 -->
      <g transform="translate(28.334375 148.083412)scale(0.1 -0.1)">
       <use xlink:href="#DejaVuSans-30"/>
       <use x="63.623047" xlink:href="#DejaVuSans-2e"/>
       <use x="95.410156" xlink:href="#DejaVuSans-32"/>
       <use x="159.033203" xlink:href="#DejaVuSans-35"/>
      </g>
     </g>
    </g>
    <g id="ytick_7">
     <g id="line2d_13">
      <g>
       <use style="stroke:#000000;stroke-width:0.8;" x="57.6" xlink:href="#mb25beb1aa5" y="114.040386"/>
      </g>
     </g>
     <g id="text_14">
      <!-- 0.50 -->
      <g transform="translate(28.334375 117.839605)scale(0.1 -0.1)">
       <use xlink:href="#DejaVuSans-30"/>
       <use x="63.623047" xlink:href="#DejaVuSans-2e"/>
       <use x="95.410156" xlink:href="#DejaVuSans-35"/>
       <use x="159.033203" xlink:href="#DejaVuSans-30"/>
      </g>
     </g>
    </g>
    <g id="ytick_8">
     <g id="line2d_14">
      <g>
       <use style="stroke:#000000;stroke-width:0.8;" x="57.6" xlink:href="#mb25beb1aa5" y="83.796579"/>
      </g>
     </g>
     <g id="text_15">
      <!-- 0.75 -->
      <g transform="translate(28.334375 87.595798)scale(0.1 -0.1)">
       <use xlink:href="#DejaVuSans-30"/>
       <use x="63.623047" xlink:href="#DejaVuSans-2e"/>
       <use x="95.410156" xlink:href="#DejaVuSans-37"/>
       <use x="159.033203" xlink:href="#DejaVuSans-35"/>
      </g>
     </g>
    </g>
    <g id="ytick_9">
     <g id="line2d_15">
      <g>
       <use style="stroke:#000000;stroke-width:0.8;" x="57.6" xlink:href="#mb25beb1aa5" y="53.552773"/>
      </g>
     </g>
     <g id="text_16">
      <!-- 1.00 -->
      <g transform="translate(28.334375 57.351991)scale(0.1 -0.1)">
       <use xlink:href="#DejaVuSans-31"/>
       <use x="63.623047" xlink:href="#DejaVuSans-2e"/>
       <use x="95.410156" xlink:href="#DejaVuSans-30"/>
       <use x="159.033203" xlink:href="#DejaVuSans-30"/>
      </g>
     </g>
    </g>
    <g id="text_17">
     <!-- Oscillation (mm) -->
     <defs>
      <path d="M 39.40625 66.21875 
Q 28.65625 66.21875 22.328125 58.203125 
Q 16.015625 50.203125 16.015625 36.375 
Q 16.015625 22.609375 22.328125 14.59375 
Q 28.65625 6.59375 39.40625 6.59375 
Q 50.140625 6.59375 56.421875 14.59375 
Q 62.703125 22.609375 62.703125 36.375 
Q 62.703125 50.203125 56.421875 58.203125 
Q 50.140625 66.21875 39.40625 66.21875 
z
M 39.40625 74.21875 
Q 54.734375 74.21875 63.90625 63.9375 
Q 73.09375 53.65625 73.09375 36.375 
Q 73.09375 19.140625 63.90625 8.859375 
Q 54.734375 -1.421875 39.40625 -1.421875 
Q 24.03125 -1.421875 14.8125 8.828125 
Q 5.609375 19.09375 5.609375 36.375 
Q 5.609375 53.65625 14.8125 63.9375 
Q 24.03125 74.21875 39.40625 74.21875 
z
" id="DejaVuSans-4f"/>
      <path d="M 48.78125 52.59375 
L 48.78125 44.1875 
Q 44.96875 46.296875 41.140625 47.34375 
Q 37.3125 48.390625 33.40625 48.390625 
Q 24.65625 48.390625 19.8125 42.84375 
Q 14.984375 37.3125 14.984375 27.296875 
Q 14.984375 17.28125 19.8125 11.734375 
Q 24.65625 6.203125 33.40625 6.203125 
Q 37.3125 6.203125 41.140625 7.25 
Q 44.96875 8.296875 48.78125 10.40625 
L 48.78125 2.09375 
Q 45.015625 0.34375 40.984375 -0.53125 
Q 36.96875 -1.421875 32.421875 -1.421875 
Q 20.0625 -1.421875 12.78125 6.34375 
Q 5.515625 14.109375 5.515625 27.296875 
Q 5.515625 40.671875 12.859375 48.328125 
Q 20.21875 56 33.015625 56 
Q 37.15625 56 41.109375 55.140625 
Q 45.0625 54.296875 48.78125 52.59375 
z
" id="DejaVuSans-63"/>
      <path d="M 9.421875 75.984375 
L 18.40625 75.984375 
L 18.40625 0 
L 9.421875 0 
z
" id="DejaVuSans-6c"/>
      <path d="M 34.28125 27.484375 
Q 23.390625 27.484375 19.1875 25 
Q 14.984375 22.515625 14.984375 16.5 
Q 14.984375 11.71875 18.140625 8.90625 
Q 21.296875 6.109375 26.703125 6.109375 
Q 34.1875 6.109375 38.703125 11.40625 
Q 43.21875 16.703125 43.21875 25.484375 
L 43.21875 27.484375 
z
M 52.203125 31.203125 
L 52.203125 0 
L 43.21875 0 
L 43.21875 8.296875 
Q 40.140625 3.328125 35.546875 0.953125 
Q 30.953125 -1.421875 24.3125 -1.421875 
Q 15.921875 -1.421875 10.953125 3.296875 
Q 6 8.015625 6 15.921875 
Q 6 25.140625 12.171875 29.828125 
Q 18.359375 34.515625 30.609375 34.515625 
L 43.21875 34.515625 
L 43.21875 35.40625 
Q 43.21875 41.609375 39.140625 45 
Q 35.0625 48.390625 27.6875 48.390625 
Q 23 48.390625 18.546875 47.265625 
Q 14.109375 46.140625 10.015625 43.890625 
L 10.015625 52.203125 
Q 14.9375 54.109375 19.578125 55.046875 
Q 24.21875 56 28.609375 56 
Q 40.484375 56 46.34375 49.84375 
Q 52.203125 43.703125 52.203125 31.203125 
z
" id="DejaVuSans-61"/>
      <path d="M 30.609375 48.390625 
Q 23.390625 48.390625 19.1875 42.75 
Q 14.984375 37.109375 14.984375 27.296875 
Q 14.984375 17.484375 19.15625 11.84375 
Q 23.34375 6.203125 30.609375 6.203125 
Q 37.796875 6.203125 41.984375 11.859375 
Q 46.1875 17.53125 46.1875 27.296875 
Q 46.1875 37.015625 41.984375 42.703125 
Q 37.796875 48.390625 30.609375 48.390625 
z
M 30.609375 56 
Q 42.328125 56 49.015625 48.375 
Q 55.71875 40.765625 55.71875 27.296875 
Q 55.71875 13.875 49.015625 6.21875 
Q 42.328125 -1.421875 30.609375 -1.421875 
Q 18.84375 -1.421875 12.171875 6.21875 
Q 5.515625 13.875 5.515625 27.296875 
Q 5.515625 40.765625 12.171875 48.375 
Q 18.84375 56 30.609375 56 
z
" id="DejaVuSans-6f"/>
      <path d="M 54.890625 33.015625 
L 54.890625 0 
L 45.90625 0 
L 45.90625 32.71875 
Q 45.90625 40.484375 42.875 44.328125 
Q 39.84375 48.1875 33.796875 48.1875 
Q 26.515625 48.1875 22.3125 43.546875 
Q 18.109375 38.921875 18.109375 30.90625 
L 18.109375 0 
L 9.078125 0 
L 9.078125 54.6875 
L 18.109375 54.6875 
L 18.109375 46.1875 
Q 21.34375 51.125 25.703125 53.5625 
Q 30.078125 56 35.796875 56 
Q 45.21875 56 50.046875 50.171875 
Q 54.890625 44.34375 54.890625 33.015625 
z
" id="DejaVuSans-6e"/>
     </defs>
     <g transform="translate(13.875 215.857687)rotate(-90)scale(0.1 -0.1)">
      <use xlink:href="#DejaVuSans-4f"/>
      <use x="78.710938" xlink:href="#DejaVuSans-73"/>
      <use x="130.810547" xlink:href="#DejaVuSans-63"/>
      <use x="185.791016" xlink:href="#DejaVuSans-69"/>
      <use x="213.574219" xlink:href="#DejaVuSans-6c"/>
      <use x="241.357422" xlink:href="#DejaVuSans-6c"/>
      <use x="269.140625" xlink:href="#DejaVuSans-61"/>
      <use x="330.419922" xlink:href="#DejaVuSans-74"/>
      <use x="369.628906" xlink:href="#DejaVuSans-69"/>
      <use x="397.412109" xlink:href="#DejaVuSans-6f"/>
      <use x="458.59375" xlink:href="#DejaVuSans-6e"/>
      <use x="521.972656" xlink:href="#DejaVuSans-20"/>
      <use x="553.759766" xlink:href="#DejaVuSans-28"/>
      <use x="592.773438" xlink:href="#DejaVuSans-6d"/>
      <use x="690.185547" xlink:href="#DejaVuSans-6d"/>
      <use x="787.597656" xlink:href="#DejaVuSans-29"/>
     </g>
    </g>
   </g>
   <g id="line2d_16">
    <path clip-path="url(#p506b642aa3)" d="M 73.832727 174.528 
L 77.112066 138.638821 
L 80.391405 109.692095 
L 83.670744 89.839228 
L 86.950083 80.139496 
L 90.229421 80.561845 
L 93.50876 90.092663 
L 96.788099 106.92887 
L 100.067438 128.729333 
L 103.346777 152.894494 
L 106.626116 176.844315 
L 109.905455 198.267601 
L 113.184793 215.321208 
L 116.464132 226.764526 
L 119.743471 232.022389 
L 123.02281 231.177136 
L 126.302149 224.89743 
L 129.581488 214.316817 
L 132.860826 200.878697 
L 136.140165 186.166015 
L 139.419504 171.733731 
L 142.698843 158.960109 
L 145.978182 148.9295 
L 149.257521 142.354999 
L 152.53686 139.544685 
L 155.816198 140.410538 
L 159.095537 144.51506 
L 162.374876 151.147456 
L 165.654215 159.419092 
L 168.933554 168.367105 
L 172.212893 177.055285 
L 175.492231 184.662669 
L 178.77157 190.5524 
L 182.050909 194.316047 
L 185.330248 195.791429 
L 188.609587 195.05474 
L 191.888926 192.390237 
L 195.168264 188.242566 
L 198.447603 183.158064 
L 201.726942 177.721792 
L 205.006281 172.496852 
L 208.28562 167.971666 
L 211.564959 164.519602 
L 214.844298 162.373671 
L 218.123636 161.617322 
L 221.402975 162.190692 
L 224.682314 163.910202 
L 227.961653 166.498313 
L 231.240992 169.619582 
L 234.520331 172.918881 
L 237.799669 176.057869 
L 241.079008 178.746318 
L 244.358347 180.765755 
L 247.637686 181.98383 
L 250.917025 182.358938 
L 254.196364 181.935546 
L 257.475702 180.831593 
L 260.755041 179.219952 
L 264.03438 177.306318 
L 267.313719 175.306027 
L 270.593058 173.422163 
L 273.872397 171.826963 
L 277.151736 170.648011 
L 280.431074 169.960105 
L 283.710413 169.783045 
L 286.989752 170.08499 
L 290.269091 170.790521 
L 293.54843 171.792167 
L 296.827769 172.963955 
L 300.107107 174.175446 
L 303.386446 175.304868 
L 306.665785 176.250139 
L 309.945124 176.936916 
L 313.224463 177.323165 
L 316.503802 177.400153 
L 319.78314 177.190096 
L 323.062479 176.741024 
L 326.341818 176.119626 
L 329.621157 175.40296 
L 332.900496 174.669958 
L 336.179835 173.993558 
L 339.459174 173.43418 
L 342.738512 173.035045 
L 346.017851 172.819619 
L 349.29719 172.791228 
L 352.576529 172.934666 
L 355.855868 173.219458 
L 359.135207 173.604296 
L 362.414545 174.042096 
L 365.693884 174.485145 
L 368.973223 174.889799 
L 372.252562 175.22035 
L 375.531901 175.451731 
L 378.81124 175.570943 
L 382.090579 175.577155 
L 385.369917 175.480619 
L 388.649256 175.300606 
L 391.928595 175.062662 
L 395.207934 174.795522 
L 398.487273 174.528 
" style="fill:none;stroke:#000000;stroke-linecap:square;stroke-width:1.5;"/>
    <defs>
     <path d="M 0 1.5 
C 0.397805 1.5 0.77937 1.341951 1.06066 1.06066 
C 1.341951 0.77937 1.5 0.397805 1.5 0 
C 1.5 -0.397805 1.341951 -0.77937 1.06066 -1.06066 
C 0.77937 -1.341951 0.397805 -1.5 0 -1.5 
C -0.397805 -1.5 -0.77937 -1.341951 -1.06066 -1.06066 
C -1.341951 -0.77937 -1.5 -0.397805 -1.5 0 
C -1.5 0.397805 -1.341951 0.77937 -1.06066 1.06066 
C -0.77937 1.341951 -0.397805 1.5 0 1.5 
z
" id="md3ee0f0f8f" style="stroke:#000000;"/>
    </defs>
    <g clip-path="url(#p506b642aa3)">
     <use style="stroke:#000000;" x="73.832727" xlink:href="#md3ee0f0f8f" y="174.528"/>
     <use style="stroke:#000000;" x="77.112066" xlink:href="#md3ee0f0f8f" y="138.638821"/>
     <use style="stroke:#000000;" x="80.391405" xlink:href="#md3ee0f0f8f" y="109.692095"/>
     <use style="stroke:#000000;" x="83.670744" xlink:href="#md3ee0f0f8f" y="89.839228"/>
     <use style="stroke:#000000;" x="86.950083" xlink:href="#md3ee0f0f8f" y="80.139496"/>
     <use style="stroke:#000000;" x="90.229421" xlink:href="#md3ee0f0f8f" y="80.561845"/>
     <use style="stroke:#000000;" x="93.50876" xlink:href="#md3ee0f0f8f" y="90.092663"/>
     <use style="stroke:#000000;" x="96.788099" xlink:href="#md3ee0f0f8f" y="106.92887"/>
     <use style="stroke:#000000;" x="100.067438" xlink:href="#md3ee0f0f8f" y="128.729333"/>
     <use style="stroke:#000000;" x="103.346777" xlink:href="#md3ee0f0f8f" y="152.894494"/>
     <use style="stroke:#000000;" x="106.626116" xlink:href="#md3ee0f0f8f" y="176.844315"/>
     <use style="stroke:#000000;" x="109.905455" xlink:href="#md3ee0f0f8f" y="198.267601"/>
     <use style="stroke:#000000;" x="113.184793" xlink:href="#md3ee0f0f8f" y="215.321208"/>
     <use style="stroke:#000000;" x="116.464132" xlink:href="#md3ee0f0f8f" y="226.764526"/>
     <use style="stroke:#000000;" x="119.743471" xlink:href="#md3ee0f0f8f" y="232.022389"/>
     <use style="stroke:#000000;" x="123.02281" xlink:href="#md3ee0f0f8f" y="231.177136"/>
     <use style="stroke:#000000;" x="126.302149" xlink:href="#md3ee0f0f8f" y="224.89743"/>
     <use style="stroke:#000000;" x="129.581488" xlink:href="#md3ee0f0f8f" y="214.316817"/>
     <use style="stroke:#000000;" x="132.860826" xlink:href="#md3ee0f0f8f" y="200.878697"/>
     <use style="stroke:#000000;" x="136.140165" xlink:href="#md3ee0f0f8f" y="186.166015"/>
     <use style="stroke:#000000;" x="139.419504" xlink:href="#md3ee0f0f8f" y="171.733731"/>
     <use style="stroke:#000000;" x="142.698843" xlink:href="#md3ee0f0f8f" y="158.960109"/>
     <use style="stroke:#000000;" x="145.978182" xlink:href="#md3ee0f0f8f" y="148.9295"/>
     <use style="stroke:#000000;" x="149.257521" xlink:href="#md3ee0f0f8f" y="142.354999"/>
     <use style="stroke:#000000;" x="152.53686" xlink:href="#md3ee0f0f8f" y="139.544685"/>
     <use style="stroke:#000000;" x="155.816198" xlink:href="#md3ee0f0f8f" y="140.410538"/>
     <use style="stroke:#000000;" x="159.095537" xlink:href="#md3ee0f0f8f" y="144.51506"/>
     <use style="stroke:#000000;" x="162.374876" xlink:href="#md3ee0f0f8f" y="151.147456"/>
     <use style="stroke:#000000;" x="165.654215" xlink:href="#md3ee0f0f8f" y="159.419092"/>
     <use style="stroke:#000000;" x="168.933554" xlink:href="#md3ee0f0f8f" y="168.367105"/>
     <use style="stroke:#000000;" x="172.212893" xlink:href="#md3ee0f0f8f" y="177.055285"/>
     <use style="stroke:#000000;" x="175.492231" xlink:href="#md3ee0f0f8f" y="184.662669"/>
     <use style="stroke:#000000;" x="178.77157" xlink:href="#md3ee0f0f8f" y="190.5524"/>
     <use style="stroke:#000000;" x="182.050909" xlink:href="#md3ee0f0f8f" y="194.316047"/>
     <use style="stroke:#000000;" x="185.330248" xlink:href="#md3ee0f0f8f" y="195.791429"/>
     <use style="stroke:#000000;" x="188.609587" xlink:href="#md3ee0f0f8f" y="195.05474"/>
     <use style="stroke:#000000;" x="191.888926" xlink:href="#md3ee0f0f8f" y="192.390237"/>
     <use style="stroke:#000000;" x="195.168264" xlink:href="#md3ee0f0f8f" y="188.242566"/>
     <use style="stroke:#000000;" x="198.447603" xlink:href="#md3ee0f0f8f" y="183.158064"/>
     <use style="stroke:#000000;" x="201.726942" xlink:href="#md3ee0f0f8f" y="177.721792"/>
     <use style="stroke:#000000;" x="205.006281" xlink:href="#md3ee0f0f8f" y="172.496852"/>
     <use style="stroke:#000000;" x="208.28562" xlink:href="#md3ee0f0f8f" y="167.971666"/>
     <use style="stroke:#000000;" x="211.564959" xlink:href="#md3ee0f0f8f" y="164.519602"/>
     <use style="stroke:#000000;" x="214.844298" xlink:href="#md3ee0f0f8f" y="162.373671"/>
     <use style="stroke:#000000;" x="218.123636" xlink:href="#md3ee0f0f8f" y="161.617322"/>
     <use style="stroke:#000000;" x="221.402975" xlink:href="#md3ee0f0f8f" y="162.190692"/>
     <use style="stroke:#000000;" x="224.682314" xlink:href="#md3ee0f0f8f" y="163.910202"/>
     <use style="stroke:#000000;" x="227.961653" xlink:href="#md3ee0f0f8f" y="166.498313"/>
     <use style="stroke:#000000;" x="231.240992" xlink:href="#md3ee0f0f8f" y="169.619582"/>
     <use style="stroke:#000000;" x="234.520331" xlink:href="#md3ee0f0f8f" y="172.918881"/>
     <use style="stroke:#000000;" x="237.799669" xlink:href="#md3ee0f0f8f" y="176.057869"/>
     <use style="stroke:#000000;" x="241.079008" xlink:href="#md3ee0f0f8f" y="178.746318"/>
     <use style="stroke:#000000;" x="244.358347" xlink:href="#md3ee0f0f8f" y="180.765755"/>
     <use style="stroke:#000000;" x="247.637686" xlink:href="#md3ee0f0f8f" y="181.98383"/>
     <use style="stroke:#000000;" x="250.917025" xlink:href="#md3ee0f0f8f" y="182.358938"/>
     <use style="stroke:#000000;" x="254.196364" xlink:href="#md3ee0f0f8f" y="181.935546"/>
     <use style="stroke:#000000;" x="257.475702" xlink:href="#md3ee0f0f8f" y="180.831593"/>
     <use style="stroke:#000000;" x="260.755041" xlink:href="#md3ee0f0f8f" y="179.219952"/>
     <use style="stroke:#000000;" x="264.03438" xlink:href="#md3ee0f0f8f" y="177.306318"/>
     <use style="stroke:#000000;" x="267.313719" xlink:href="#md3ee0f0f8f" y="175.306027"/>
     <use style="stroke:#000000;" x="270.593058" xlink:href="#md3ee0f0f8f" y="173.422163"/>
     <use style="stroke:#000000;" x="273.872397" xlink:href="#md3ee0f0f8f" y="171.826963"/>
     <use style="stroke:#000000;" x="277.151736" xlink:href="#md3ee0f0f8f" y="170.648011"/>
     <use style="stroke:#000000;" x="280.431074" xlink:href="#md3ee0f0f8f" y="169.960105"/>
     <use style="stroke:#000000;" x="283.710413" xlink:href="#md3ee0f0f8f" y="169.783045"/>
     <use style="stroke:#000000;" x="286.989752" xlink:href="#md3ee0f0f8f" y="170.08499"/>
     <use style="stroke:#000000;" x="290.269091" xlink:href="#md3ee0f0f8f" y="170.790521"/>
     <use style="stroke:#000000;" x="293.54843" xlink:href="#md3ee0f0f8f" y="171.792167"/>
     <use style="stroke:#000000;" x="296.827769" xlink:href="#md3ee0f0f8f" y="172.963955"/>
     <use style="stroke:#000000;" x="300.107107" xlink:href="#md3ee0f0f8f" y="174.175446"/>
     <use style="stroke:#000000;" x="303.386446" xlink:href="#md3ee0f0f8f" y="175.304868"/>
     <use style="stroke:#000000;" x="306.665785" xlink:href="#md3ee0f0f8f" y="176.250139"/>
     <use style="stroke:#000000;" x="309.945124" xlink:href="#md3ee0f0f8f" y="176.936916"/>
     <use style="stroke:#000000;" x="313.224463" xlink:href="#md3ee0f0f8f" y="177.323165"/>
     <use style="stroke:#000000;" x="316.503802" xlink:href="#md3ee0f0f8f" y="177.400153"/>
     <use style="stroke:#000000;" x="319.78314" xlink:href="#md3ee0f0f8f" y="177.190096"/>
     <use style="stroke:#000000;" x="323.062479" xlink:href="#md3ee0f0f8f" y="176.741024"/>
     <use style="stroke:#000000;" x="326.341818" xlink:href="#md3ee0f0f8f" y="176.119626"/>
     <use style="stroke:#000000;" x="329.621157" xlink:href="#md3ee0f0f8f" y="175.40296"/>
     <use style="stroke:#000000;" x="332.900496" xlink:href="#md3ee0f0f8f" y="174.669958"/>
     <use style="stroke:#000000;" x="336.179835" xlink:href="#md3ee0f0f8f" y="173.993558"/>
     <use style="stroke:#000000;" x="339.459174" xlink:href="#md3ee0f0f8f" y="173.43418"/>
     <use style="stroke:#000000;" x="342.738512" xlink:href="#md3ee0f0f8f" y="173.035045"/>
     <use style="stroke:#000000;" x="346.017851" xlink:href="#md3ee0f0f8f" y="172.819619"/>
     <use style="stroke:#000000;" x="349.29719" xlink:href="#md3ee0f0f8f" y="172.791228"/>
     <use style="stroke:#000000;" x="352.576529" xlink:href="#md3ee0f0f8f" y="172.934666"/>
     <use style="stroke:#000000;" x="355.855868" xlink:href="#md3ee0f0f8f" y="173.219458"/>
     <use style="stroke:#000000;" x="359.135207" xlink:href="#md3ee0f0f8f" y="173.604296"/>
     <use style="stroke:#000000;" x="362.414545" xlink:href="#md3ee0f0f8f" y="174.042096"/>
     <use style="stroke:#000000;" x="365.693884" xlink:href="#md3ee0f0f8f" y="174.485145"/>
     <use style="stroke:#000000;" x="368.973223" xlink:href="#md3ee0f0f8f" y="174.889799"/>
     <use style="stroke:#000000;" x="372.252562" xlink:href="#md3ee0f0f8f" y="175.22035"/>
     <use style="stroke:#000000;" x="375.531901" xlink:href="#md3ee0f0f8f" y="175.451731"/>
     <use style="stroke:#000000;" x="378.81124" xlink:href="#md3ee0f0f8f" y="175.570943"/>
     <use style="stroke:#000000;" x="382.090579" xlink:href="#md3ee0f0f8f" y="175.577155"/>
     <use style="stroke:#000000;" x="385.369917" xlink:href="#md3ee0f0f8f" y="175.480619"/>
     <use style="stroke:#000000;" x="388.649256" xlink:href="#md3ee0f0f8f" y="175.300606"/>
     <use style="stroke:#000000;" x="391.928595" xlink:href="#md3ee0f0f8f" y="175.062662"/>
     <use style="stroke:#000000;" x="395.207934" xlink:href="#md3ee0f0f8f" y="174.795522"/>
     <use style="stroke:#000000;" x="398.487273" xlink:href="#md3ee0f0f8f" y="174.528"/>
    </g>
   </g>
   <g id="line2d_17">
    <path clip-path="url(#p506b642aa3)" d="M 73.832727 174.528 
L 77.112066 136.779683 
L 80.391405 102.800828 
L 83.670744 75.984489 
L 86.950083 59.008484 
L 90.229421 53.568 
L 93.50876 60.206311 
L 96.788099 78.26053 
L 100.067438 105.927804 
L 103.346777 140.44534 
L 106.626116 178.366294 
L 109.905455 215.903965 
L 113.184793 249.309924 
L 116.464132 275.248328 
L 119.743471 291.129024 
L 123.02281 295.366204 
L 126.302149 287.53675 
L 129.581488 268.422495 
L 132.860826 239.932146 
L 136.140165 204.910685 
L 139.419504 166.855277 
L 142.698843 129.56605 
L 145.978182 96.766623 
L 149.257521 71.732273 
L 152.53686 56.962874 
L 155.816198 53.933267 
L 159.095537 62.945979 
L 162.374876 83.101023 
L 165.654215 112.385761 
L 168.933554 147.875883 
L 172.212893 186.027426 
L 175.492231 223.030663 
L 178.77157 255.190531 
L 182.050909 279.29562 
L 185.330248 292.938849 
L 188.609587 294.757834 
L 191.888926 284.570938 
L 195.168264 263.395399 
L 198.447603 233.345761 
L 201.726942 197.422712 
L 205.006281 159.213449 
L 208.28562 122.533463 
L 211.564959 91.045535 
L 214.844298 67.893979 
L 218.123636 55.390658 
L 221.402975 54.784126 
L 224.682314 66.134949 
L 227.961653 88.309661 
L 231.240992 119.093942 
L 234.520331 155.413745 
L 237.799669 193.642255 
L 241.079008 229.962058 
L 244.358347 260.746339 
L 247.637686 282.921051 
L 250.917025 294.271874 
L 254.196364 293.665342 
L 257.475702 281.162021 
L 260.755041 258.010465 
L 264.03438 226.522537 
L 267.313719 189.842551 
L 270.593058 151.633288 
L 273.872397 115.710239 
L 277.151736 85.660601 
L 280.431074 64.485062 
L 283.710413 54.298166 
L 286.989752 56.117151 
L 290.269091 69.76038 
L 293.54843 93.865469 
L 296.827769 126.025337 
L 300.107107 163.028574 
L 303.386446 201.180117 
L 306.665785 236.670239 
L 309.945124 265.954977 
L 313.224463 286.110021 
L 316.503802 295.122733 
L 319.78314 292.093126 
L 323.062479 277.323727 
L 326.341818 252.289377 
L 329.621157 219.48995 
L 332.900496 182.200723 
L 336.179835 144.145315 
L 339.459174 109.123854 
L 342.738512 80.633505 
L 346.017851 61.51925 
L 349.29719 53.689796 
L 352.576529 57.926976 
L 355.855868 73.807672 
L 359.135207 99.746076 
L 362.414545 133.152035 
L 365.693884 170.689706 
L 368.973223 208.61066 
L 372.252562 243.128196 
L 375.531901 270.79547 
L 378.81124 288.849689 
L 382.090579 295.488 
L 385.369917 290.047516 
L 388.649256 273.071511 
L 391.928595 246.255172 
L 395.207934 212.276317 
L 398.487273 174.528 
" style="fill:none;stroke:#000000;stroke-dasharray:5.55,2.4;stroke-dashoffset:0;stroke-width:1.5;"/>
    <defs>
     <path d="M -0 3 
L 3 -3 
L -3 -3 
z
" id="mc90fef8fdc" style="stroke:#000000;stroke-linejoin:miter;"/>
    </defs>
    <g clip-path="url(#p506b642aa3)">
     <use style="stroke:#000000;stroke-linejoin:miter;" x="73.832727" xlink:href="#mc90fef8fdc" y="174.528"/>
     <use style="stroke:#000000;stroke-linejoin:miter;" x="77.112066" xlink:href="#mc90fef8fdc" y="136.779683"/>
     <use style="stroke:#000000;stroke-linejoin:miter;" x="80.391405" xlink:href="#mc90fef8fdc" y="102.800828"/>
     <use style="stroke:#000000;stroke-linejoin:miter;" x="83.670744" xlink:href="#mc90fef8fdc" y="75.984489"/>
     <use style="stroke:#000000;stroke-linejoin:miter;" x="86.950083" xlink:href="#mc90fef8fdc" y="59.008484"/>
     <use style="stroke:#000000;stroke-linejoin:miter;" x="90.229421" xlink:href="#mc90fef8fdc" y="53.568"/>
     <use style="stroke:#000000;stroke-linejoin:miter;" x="93.50876" xlink:href="#mc90fef8fdc" y="60.206311"/>
     <use style="stroke:#000000;stroke-linejoin:miter;" x="96.788099" xlink:href="#mc90fef8fdc" y="78.26053"/>
     <use style="stroke:#000000;stroke-linejoin:miter;" x="100.067438" xlink:href="#mc90fef8fdc" y="105.927804"/>
     <use style="stroke:#000000;stroke-linejoin:miter;" x="103.346777" xlink:href="#mc90fef8fdc" y="140.44534"/>
     <use style="stroke:#000000;stroke-linejoin:miter;" x="106.626116" xlink:href="#mc90fef8fdc" y="178.366294"/>
     <use style="stroke:#000000;stroke-linejoin:miter;" x="109.905455" xlink:href="#mc90fef8fdc" y="215.903965"/>
     <use style="stroke:#000000;stroke-linejoin:miter;" x="113.184793" xlink:href="#mc90fef8fdc" y="249.309924"/>
     <use style="stroke:#000000;stroke-linejoin:miter;" x="116.464132" xlink:href="#mc90fef8fdc" y="275.248328"/>
     <use style="stroke:#000000;stroke-linejoin:miter;" x="119.743471" xlink:href="#mc90fef8fdc" y="291.129024"/>
     <use style="stroke:#000000;stroke-linejoin:miter;" x="123.02281" xlink:href="#mc90fef8fdc" y="295.366204"/>
     <use style="stroke:#000000;stroke-linejoin:miter;" x="126.302149" xlink:href="#mc90fef8fdc" y="287.53675"/>
     <use style="stroke:#000000;stroke-linejoin:miter;" x="129.581488" xlink:href="#mc90fef8fdc" y="268.422495"/>
     <use style="stroke:#000000;stroke-linejoin:miter;" x="132.860826" xlink:href="#mc90fef8fdc" y="239.932146"/>
     <use style="stroke:#000000;stroke-linejoin:miter;" x="136.140165" xlink:href="#mc90fef8fdc" y="204.910685"/>
     <use style="stroke:#000000;stroke-linejoin:miter;" x="139.419504" xlink:href="#mc90fef8fdc" y="166.855277"/>
     <use style="stroke:#000000;stroke-linejoin:miter;" x="142.698843" xlink:href="#mc90fef8fdc" y="129.56605"/>
     <use style="stroke:#000000;stroke-linejoin:miter;" x="145.978182" xlink:href="#mc90fef8fdc" y="96.766623"/>
     <use style="stroke:#000000;stroke-linejoin:miter;" x="149.257521" xlink:href="#mc90fef8fdc" y="71.732273"/>
     <use style="stroke:#000000;stroke-linejoin:miter;" x="152.53686" xlink:href="#mc90fef8fdc" y="56.962874"/>
     <use style="stroke:#000000;stroke-linejoin:miter;" x="155.816198" xlink:href="#mc90fef8fdc" y="53.933267"/>
     <use style="stroke:#000000;stroke-linejoin:miter;" x="159.095537" xlink:href="#mc90fef8fdc" y="62.945979"/>
     <use style="stroke:#000000;stroke-linejoin:miter;" x="162.374876" xlink:href="#mc90fef8fdc" y="83.101023"/>
     <use style="stroke:#000000;stroke-linejoin:miter;" x="165.654215" xlink:href="#mc90fef8fdc" y="112.385761"/>
     <use style="stroke:#000000;stroke-linejoin:miter;" x="168.933554" xlink:href="#mc90fef8fdc" y="147.875883"/>
     <use style="stroke:#000000;stroke-linejoin:miter;" x="172.212893" xlink:href="#mc90fef8fdc" y="186.027426"/>
     <use style="stroke:#000000;stroke-linejoin:miter;" x="175.492231" xlink:href="#mc90fef8fdc" y="223.030663"/>
     <use style="stroke:#000000;stroke-linejoin:miter;" x="178.77157" xlink:href="#mc90fef8fdc" y="255.190531"/>
     <use style="stroke:#000000;stroke-linejoin:miter;" x="182.050909" xlink:href="#mc90fef8fdc" y="279.29562"/>
     <use style="stroke:#000000;stroke-linejoin:miter;" x="185.330248" xlink:href="#mc90fef8fdc" y="292.938849"/>
     <use style="stroke:#000000;stroke-linejoin:miter;" x="188.609587" xlink:href="#mc90fef8fdc" y="294.757834"/>
     <use style="stroke:#000000;stroke-linejoin:miter;" x="191.888926" xlink:href="#mc90fef8fdc" y="284.570938"/>
     <use style="stroke:#000000;stroke-linejoin:miter;" x="195.168264" xlink:href="#mc90fef8fdc" y="263.395399"/>
     <use style="stroke:#000000;stroke-linejoin:miter;" x="198.447603" xlink:href="#mc90fef8fdc" y="233.345761"/>
     <use style="stroke:#000000;stroke-linejoin:miter;" x="201.726942" xlink:href="#mc90fef8fdc" y="197.422712"/>
     <use style="stroke:#000000;stroke-linejoin:miter;" x="205.006281" xlink:href="#mc90fef8fdc" y="159.213449"/>
     <use style="stroke:#000000;stroke-linejoin:miter;" x="208.28562" xlink:href="#mc90fef8fdc" y="122.533463"/>
     <use style="stroke:#000000;stroke-linejoin:miter;" x="211.564959" xlink:href="#mc90fef8fdc" y="91.045535"/>
     <use style="stroke:#000000;stroke-linejoin:miter;" x="214.844298" xlink:href="#mc90fef8fdc" y="67.893979"/>
     <use style="stroke:#000000;stroke-linejoin:miter;" x="218.123636" xlink:href="#mc90fef8fdc" y="55.390658"/>
     <use style="stroke:#000000;stroke-linejoin:miter;" x="221.402975" xlink:href="#mc90fef8fdc" y="54.784126"/>
     <use style="stroke:#000000;stroke-linejoin:miter;" x="224.682314" xlink:href="#mc90fef8fdc" y="66.134949"/>
     <use style="stroke:#000000;stroke-linejoin:miter;" x="227.961653" xlink:href="#mc90fef8fdc" y="88.309661"/>
     <use style="stroke:#000000;stroke-linejoin:miter;" x="231.240992" xlink:href="#mc90fef8fdc" y="119.093942"/>
     <use style="stroke:#000000;stroke-linejoin:miter;" x="234.520331" xlink:href="#mc90fef8fdc" y="155.413745"/>
     <use style="stroke:#000000;stroke-linejoin:miter;" x="237.799669" xlink:href="#mc90fef8fdc" y="193.642255"/>
     <use style="stroke:#000000;stroke-linejoin:miter;" x="241.079008" xlink:href="#mc90fef8fdc" y="229.962058"/>
     <use style="stroke:#000000;stroke-linejoin:miter;" x="244.358347" xlink:href="#mc90fef8fdc" y="260.746339"/>
     <use style="stroke:#000000;stroke-linejoin:miter;" x="247.637686" xlink:href="#mc90fef8fdc" y="282.921051"/>
     <use style="stroke:#000000;stroke-linejoin:miter;" x="250.917025" xlink:href="#mc90fef8fdc" y="294.271874"/>
     <use style="stroke:#000000;stroke-linejoin:miter;" x="254.196364" xlink:href="#mc90fef8fdc" y="293.665342"/>
     <use style="stroke:#000000;stroke-linejoin:miter;" x="257.475702" xlink:href="#mc90fef8fdc" y="281.162021"/>
     <use style="stroke:#000000;stroke-linejoin:miter;" x="260.755041" xlink:href="#mc90fef8fdc" y="258.010465"/>
     <use style="stroke:#000000;stroke-linejoin:miter;" x="264.03438" xlink:href="#mc90fef8fdc" y="226.522537"/>
     <use style="stroke:#000000;stroke-linejoin:miter;" x="267.313719" xlink:href="#mc90fef8fdc" y="189.842551"/>
     <use style="stroke:#000000;stroke-linejoin:miter;" x="270.593058" xlink:href="#mc90fef8fdc" y="151.633288"/>
     <use style="stroke:#000000;stroke-linejoin:miter;" x="273.872397" xlink:href="#mc90fef8fdc" y="115.710239"/>
     <use style="stroke:#000000;stroke-linejoin:miter;" x="277.151736" xlink:href="#mc90fef8fdc" y="85.660601"/>
     <use style="stroke:#000000;stroke-linejoin:miter;" x="280.431074" xlink:href="#mc90fef8fdc" y="64.485062"/>
     <use style="stroke:#000000;stroke-linejoin:miter;" x="283.710413" xlink:href="#mc90fef8fdc" y="54.298166"/>
     <use style="stroke:#000000;stroke-linejoin:miter;" x="286.989752" xlink:href="#mc90fef8fdc" y="56.117151"/>
     <use style="stroke:#000000;stroke-linejoin:miter;" x="290.269091" xlink:href="#mc90fef8fdc" y="69.76038"/>
     <use style="stroke:#000000;stroke-linejoin:miter;" x="293.54843" xlink:href="#mc90fef8fdc" y="93.865469"/>
     <use style="stroke:#000000;stroke-linejoin:miter;" x="296.827769" xlink:href="#mc90fef8fdc" y="126.025337"/>
     <use style="stroke:#000000;stroke-linejoin:miter;" x="300.107107" xlink:href="#mc90fef8fdc" y="163.028574"/>
     <use style="stroke:#000000;stroke-linejoin:miter;" x="303.386446" xlink:href="#mc90fef8fdc" y="201.180117"/>
     <use style="stroke:#000000;stroke-linejoin:miter;" x="306.665785" xlink:href="#mc90fef8fdc" y="236.670239"/>
     <use style="stroke:#000000;stroke-linejoin:miter;" x="309.945124" xlink:href="#mc90fef8fdc" y="265.954977"/>
     <use style="stroke:#000000;stroke-linejoin:miter;" x="313.224463" xlink:href="#mc90fef8fdc" y="286.110021"/>
     <use style="stroke:#000000;stroke-linejoin:miter;" x="316.503802" xlink:href="#mc90fef8fdc" y="295.122733"/>
     <use style="stroke:#000000;stroke-linejoin:miter;" x="319.78314" xlink:href="#mc90fef8fdc" y="292.093126"/>
     <use style="stroke:#000000;stroke-linejoin:miter;" x="323.062479" xlink:href="#mc90fef8fdc" y="277.323727"/>
     <use style="stroke:#000000;stroke-linejoin:miter;" x="326.341818" xlink:href="#mc90fef8fdc" y="252.289377"/>
     <use style="stroke:#000000;stroke-linejoin:miter;" x="329.621157" xlink:href="#mc90fef8fdc" y="219.48995"/>
     <use style="stroke:#000000;stroke-linejoin:miter;" x="332.900496" xlink:href="#mc90fef8fdc" y="182.200723"/>
     <use style="stroke:#000000;stroke-linejoin:miter;" x="336.179835" xlink:href="#mc90fef8fdc" y="144.145315"/>
     <use style="stroke:#000000;stroke-linejoin:miter;" x="339.459174" xlink:href="#mc90fef8fdc" y="109.123854"/>
     <use style="stroke:#000000;stroke-linejoin:miter;" x="342.738512" xlink:href="#mc90fef8fdc" y="80.633505"/>
     <use style="stroke:#000000;stroke-linejoin:miter;" x="346.017851" xlink:href="#mc90fef8fdc" y="61.51925"/>
     <use style="stroke:#000000;stroke-linejoin:miter;" x="349.29719" xlink:href="#mc90fef8fdc" y="53.689796"/>
     <use style="stroke:#000000;stroke-linejoin:miter;" x="352.576529" xlink:href="#mc90fef8fdc" y="57.926976"/>
     <use style="stroke:#000000;stroke-linejoin:miter;" x="355.855868" xlink:href="#mc90fef8fdc" y="73.807672"/>
     <use style="stroke:#000000;stroke-linejoin:miter;" x="359.135207" xlink:href="#mc90fef8fdc" y="99.746076"/>
     <use style="stroke:#000000;stroke-linejoin:miter;" x="362.414545" xlink:href="#mc90fef8fdc" y="133.152035"/>
     <use style="stroke:#000000;stroke-linejoin:miter;" x="365.693884" xlink:href="#mc90fef8fdc" y="170.689706"/>
     <use style="stroke:#000000;stroke-linejoin:miter;" x="368.973223" xlink:href="#mc90fef8fdc" y="208.61066"/>
     <use style="stroke:#000000;stroke-linejoin:miter;" x="372.252562" xlink:href="#mc90fef8fdc" y="243.128196"/>
     <use style="stroke:#000000;stroke-linejoin:miter;" x="375.531901" xlink:href="#mc90fef8fdc" y="270.79547"/>
     <use style="stroke:#000000;stroke-linejoin:miter;" x="378.81124" xlink:href="#mc90fef8fdc" y="288.849689"/>
     <use style="stroke:#000000;stroke-linejoin:miter;" x="382.090579" xlink:href="#mc90fef8fdc" y="295.488"/>
     <use style="stroke:#000000;stroke-linejoin:miter;" x="385.369917" xlink:href="#mc90fef8fdc" y="290.047516"/>
     <use style="stroke:#000000;stroke-linejoin:miter;" x="388.649256" xlink:href="#mc90fef8fdc" y="273.071511"/>
     <use style="stroke:#000000;stroke-linejoin:miter;" x="391.928595" xlink:href="#mc90fef8fdc" y="246.255172"/>
     <use style="stroke:#000000;stroke-linejoin:miter;" x="395.207934" xlink:href="#mc90fef8fdc" y="212.276317"/>
     <use style="stroke:#000000;stroke-linejoin:miter;" x="398.487273" xlink:href="#mc90fef8fdc" y="174.528"/>
    </g>
   </g>
   <g id="patch_3">
    <path d="M 57.6 307.584 
L 57.6 41.472 
" style="fill:none;stroke:#000000;stroke-linecap:square;stroke-linejoin:miter;stroke-width:0.8;"/>
   </g>
   <g id="patch_4">
    <path d="M 414.72 307.584 
L 414.72 41.472 
" style="fill:none;stroke:#000000;stroke-linecap:square;stroke-linejoin:miter;stroke-width:0.8;"/>
   </g>
   <g id="patch_5">
    <path d="M 57.6 307.584 
L 414.72 307.584 
" style="fill:none;stroke:#000000;stroke-linecap:square;stroke-linejoin:miter;stroke-width:0.8;"/>
   </g>
   <g id="patch_6">
    <path d="M 57.6 41.472 
L 414.72 41.472 
" style="fill:none;stroke:#000000;stroke-linecap:square;stroke-linejoin:miter;stroke-width:0.8;"/>
   </g>
   <g id="text_18">
    <!-- My fine plot of damped and undamped $f(x) = \sin (x)$ -->
    <defs>
     <path d="M 9.8125 72.90625 
L 24.515625 72.90625 
L 43.109375 23.296875 
L 61.8125 72.90625 
L 76.515625 72.90625 
L 76.515625 0 
L 66.890625 0 
L 66.890625 64.015625 
L 48.09375 14.015625 
L 38.1875 14.015625 
L 19.390625 64.015625 
L 19.390625 0 
L 9.8125 0 
z
" id="DejaVuSans-4d"/>
     <path d="M 32.171875 -5.078125 
Q 28.375 -14.84375 24.75 -17.8125 
Q 21.140625 -20.796875 15.09375 -20.796875 
L 7.90625 -20.796875 
L 7.90625 -13.28125 
L 13.1875 -13.28125 
Q 16.890625 -13.28125 18.9375 -11.515625 
Q 21 -9.765625 23.484375 -3.21875 
L 25.09375 0.875 
L 2.984375 54.6875 
L 12.5 54.6875 
L 29.59375 11.921875 
L 46.6875 54.6875 
L 56.203125 54.6875 
z
" id="DejaVuSans-79"/>
     <path d="M 37.109375 75.984375 
L 37.109375 68.5 
L 28.515625 68.5 
Q 23.6875 68.5 21.796875 66.546875 
Q 19.921875 64.59375 19.921875 59.515625 
L 19.921875 54.6875 
L 34.71875 54.6875 
L 34.71875 47.703125 
L 19.921875 47.703125 
L 19.921875 0 
L 10.890625 0 
L 10.890625 47.703125 
L 2.296875 47.703125 
L 2.296875 54.6875 
L 10.890625 54.6875 
L 10.890625 58.5 
Q 10.890625 67.625 15.140625 71.796875 
Q 19.390625 75.984375 28.609375 75.984375 
z
" id="DejaVuSans-66"/>
     <path d="M 18.109375 8.203125 
L 18.109375 -20.796875 
L 9.078125 -20.796875 
L 9.078125 54.6875 
L 18.109375 54.6875 
L 18.109375 46.390625 
Q 20.953125 51.265625 25.265625 53.625 
Q 29.59375 56 35.59375 56 
Q 45.5625 56 51.78125 48.09375 
Q 58.015625 40.1875 58.015625 27.296875 
Q 58.015625 14.40625 51.78125 6.484375 
Q 45.5625 -1.421875 35.59375 -1.421875 
Q 29.59375 -1.421875 25.265625 0.953125 
Q 20.953125 3.328125 18.109375 8.203125 
z
M 48.6875 27.296875 
Q 48.6875 37.203125 44.609375 42.84375 
Q 40.53125 48.484375 33.40625 48.484375 
Q 26.265625 48.484375 22.1875 42.84375 
Q 18.109375 37.203125 18.109375 27.296875 
Q 18.109375 17.390625 22.1875 11.75 
Q 26.265625 6.109375 33.40625 6.109375 
Q 40.53125 6.109375 44.609375 11.75 
Q 48.6875 17.390625 48.6875 27.296875 
z
" id="DejaVuSans-70"/>
     <path d="M 45.40625 46.390625 
L 45.40625 75.984375 
L 54.390625 75.984375 
L 54.390625 0 
L 45.40625 0 
L 45.40625 8.203125 
Q 42.578125 3.328125 38.25 0.953125 
Q 33.9375 -1.421875 27.875 -1.421875 
Q 17.96875 -1.421875 11.734375 6.484375 
Q 5.515625 14.40625 5.515625 27.296875 
Q 5.515625 40.1875 11.734375 48.09375 
Q 17.96875 56 27.875 56 
Q 33.9375 56 38.25 53.625 
Q 42.578125 51.265625 45.40625 46.390625 
z
M 14.796875 27.296875 
Q 14.796875 17.390625 18.875 11.75 
Q 22.953125 6.109375 30.078125 6.109375 
Q 37.203125 6.109375 41.296875 11.75 
Q 45.40625 17.390625 45.40625 27.296875 
Q 45.40625 37.203125 41.296875 42.84375 
Q 37.203125 48.484375 30.078125 48.484375 
Q 22.953125 48.484375 18.875 42.84375 
Q 14.796875 37.203125 14.796875 27.296875 
z
" id="DejaVuSans-64"/>
     <path d="M 8.5 21.578125 
L 8.5 54.6875 
L 17.484375 54.6875 
L 17.484375 21.921875 
Q 17.484375 14.15625 20.5 10.265625 
Q 23.53125 6.390625 29.59375 6.390625 
Q 36.859375 6.390625 41.078125 11.03125 
Q 45.3125 15.671875 45.3125 23.6875 
L 45.3125 54.6875 
L 54.296875 54.6875 
L 54.296875 0 
L 45.3125 0 
L 45.3125 8.40625 
Q 42.046875 3.421875 37.71875 1 
Q 33.40625 -1.421875 27.6875 -1.421875 
Q 18.265625 -1.421875 13.375 4.4375 
Q 8.5 10.296875 8.5 21.578125 
z
M 31.109375 56 
z
" id="DejaVuSans-75"/>
     <path d="M 47.796875 75.984375 
L 46.390625 68.5 
L 37.796875 68.5 
Q 32.90625 68.5 30.6875 66.578125 
Q 28.46875 64.65625 27.390625 59.515625 
L 26.421875 54.6875 
L 41.21875 54.6875 
L 39.890625 47.703125 
L 25.09375 47.703125 
L 15.828125 0 
L 6.78125 0 
L 16.109375 47.703125 
L 7.515625 47.703125 
L 8.796875 54.6875 
L 17.390625 54.6875 
L 18.109375 58.5 
Q 19.96875 68.171875 24.625 72.078125 
Q 29.296875 75.984375 39.3125 75.984375 
z
" id="DejaVuSans-Oblique-66"/>
     <path d="M 60.015625 54.6875 
L 34.90625 27.875 
L 50.296875 0 
L 39.984375 0 
L 28.421875 21.6875 
L 8.296875 0 
L -2.59375 0 
L 24.3125 28.8125 
L 10.015625 54.6875 
L 20.3125 54.6875 
L 30.8125 34.90625 
L 49.125 54.6875 
z
" id="DejaVuSans-Oblique-78"/>
     <path d="M 10.59375 45.40625 
L 73.1875 45.40625 
L 73.1875 37.203125 
L 10.59375 37.203125 
z
M 10.59375 25.484375 
L 73.1875 25.484375 
L 73.1875 17.1875 
L 10.59375 17.1875 
z
" id="DejaVuSans-3d"/>
    </defs>
    <g transform="translate(82.8 35.472)scale(0.12 -0.12)">
     <use transform="translate(0 0.015625)" xlink:href="#DejaVuSans-4d"/>
     <use transform="translate(86.279297 0.015625)" xlink:href="#DejaVuSans-79"/>
     <use transform="translate(145.458984 0.015625)" xlink:href="#DejaVuSans-20"/>
     <use transform="translate(177.246094 0.015625)" xlink:href="#DejaVuSans-66"/>
     <use transform="translate(212.451172 0.015625)" xlink:href="#DejaVuSans-69"/>
     <use transform="translate(240.234375 0.015625)" xlink:href="#DejaVuSans-6e"/>
     <use transform="translate(303.613281 0.015625)" xlink:href="#DejaVuSans-65"/>
     <use transform="translate(365.136719 0.015625)" xlink:href="#DejaVuSans-20"/>
     <use transform="translate(396.923828 0.015625)" xlink:href="#DejaVuSans-70"/>
     <use transform="translate(460.400391 0.015625)" xlink:href="#DejaVuSans-6c"/>
     <use transform="translate(488.183594 0.015625)" xlink:href="#DejaVuSans-6f"/>
     <use transform="translate(549.365234 0.015625)" xlink:href="#DejaVuSans-74"/>
     <use transform="translate(588.574219 0.015625)" xlink:href="#DejaVuSans-20"/>
     <use transform="translate(620.361328 0.015625)" xlink:href="#DejaVuSans-6f"/>
     <use transform="translate(681.542969 0.015625)" xlink:href="#DejaVuSans-66"/>
     <use transform="translate(716.748047 0.015625)" xlink:href="#DejaVuSans-20"/>
     <use transform="translate(748.535156 0.015625)" xlink:href="#DejaVuSans-64"/>
     <use transform="translate(812.011719 0.015625)" xlink:href="#DejaVuSans-61"/>
     <use transform="translate(873.291016 0.015625)" xlink:href="#DejaVuSans-6d"/>
     <use transform="translate(970.703125 0.015625)" xlink:href="#DejaVuSans-70"/>
     <use transform="translate(1034.179688 0.015625)" xlink:href="#DejaVuSans-65"/>
     <use transform="translate(1095.703125 0.015625)" xlink:href="#DejaVuSans-64"/>
     <use transform="translate(1159.179688 0.015625)" xlink:href="#DejaVuSans-20"/>
     <use transform="translate(1190.966797 0.015625)" xlink:href="#DejaVuSans-61"/>
     <use transform="translate(1252.246094 0.015625)" xlink:href="#DejaVuSans-6e"/>
     <use transform="translate(1315.625 0.015625)" xlink:href="#DejaVuSans-64"/>
     <use transform="translate(1379.101562 0.015625)" xlink:href="#DejaVuSans-20"/>
     <use transform="translate(1410.888672 0.015625)" xlink:href="#DejaVuSans-75"/>
     <use transform="translate(1474.267578 0.015625)" xlink:href="#DejaVuSans-6e"/>
     <use transform="translate(1537.646484 0.015625)" xlink:href="#DejaVuSans-64"/>
     <use transform="translate(1601.123047 0.015625)" xlink:href="#DejaVuSans-61"/>
     <use transform="translate(1662.402344 0.015625)" xlink:href="#DejaVuSans-6d"/>
     <use transform="translate(1759.814453 0.015625)" xlink:href="#DejaVuSans-70"/>
     <use transform="translate(1823.291016 0.015625)" xlink:href="#DejaVuSans-65"/>
     <use transform="translate(1884.814453 0.015625)" xlink:href="#DejaVuSans-64"/>
     <use transform="translate(1948.291016 0.015625)" xlink:href="#DejaVuSans-20"/>
     <use transform="translate(1980.078125 0.015625)" xlink:href="#DejaVuSans-Oblique-66"/>
     <use transform="translate(2015.283203 0.015625)" xlink:href="#DejaVuSans-28"/>
     <use transform="translate(2054.296875 0.015625)" xlink:href="#DejaVuSans-Oblique-78"/>
     <use transform="translate(2113.476562 0.015625)" xlink:href="#DejaVuSans-29"/>
     <use transform="translate(2171.972656 0.015625)" xlink:href="#DejaVuSans-3d"/>
     <use transform="translate(2275.244141 0.015625)" xlink:href="#DejaVuSans-73"/>
     <use transform="translate(2327.34375 0.015625)" xlink:href="#DejaVuSans-69"/>
     <use transform="translate(2355.126953 0.015625)" xlink:href="#DejaVuSans-6e"/>
     <use transform="translate(2418.505859 0.015625)" xlink:href="#DejaVuSans-28"/>
     <use transform="translate(2457.519531 0.015625)" xlink:href="#DejaVuSans-Oblique-78"/>
     <use transform="translate(2516.699219 0.015625)" xlink:href="#DejaVuSans-29"/>
    </g>
   </g>
   <g id="legend_1">
    <g id="patch_7">
     <path d="M 320.996563 78.82825 
L 407.72 78.82825 
Q 409.72 78.82825 409.72 76.82825 
L 409.72 48.472 
Q 409.72 46.472 407.72 46.472 
L 320.996563 46.472 
Q 318.996563 46.472 318.996563 48.472 
L 318.996563 76.82825 
Q 318.996563 78.82825 320.996563 78.82825 
z
" style="fill:#ffffff;stroke:#cccccc;stroke-linejoin:miter;"/>
    </g>
    <g id="line2d_18">
     <path d="M 322.996563 54.570437 
L 342.996563 54.570437 
" style="fill:none;stroke:#000000;stroke-linecap:square;stroke-width:1.5;"/>
    </g>
    <g id="line2d_19">
     <g>
      <use style="stroke:#000000;" x="332.996563" xlink:href="#md3ee0f0f8f" y="54.570437"/>
     </g>
    </g>
    <g id="text_19">
     <!-- Damped -->
     <defs>
      <path d="M 19.671875 64.796875 
L 19.671875 8.109375 
L 31.59375 8.109375 
Q 46.6875 8.109375 53.6875 14.9375 
Q 60.6875 21.78125 60.6875 36.53125 
Q 60.6875 51.171875 53.6875 57.984375 
Q 46.6875 64.796875 31.59375 64.796875 
z
M 9.8125 72.90625 
L 30.078125 72.90625 
Q 51.265625 72.90625 61.171875 64.09375 
Q 71.09375 55.28125 71.09375 36.53125 
Q 71.09375 17.671875 61.125 8.828125 
Q 51.171875 0 30.078125 0 
L 9.8125 0 
z
" id="DejaVuSans-44"/>
     </defs>
     <g transform="translate(350.996563 58.070437)scale(0.1 -0.1)">
      <use xlink:href="#DejaVuSans-44"/>
      <use x="77.001953" xlink:href="#DejaVuSans-61"/>
      <use x="138.28125" xlink:href="#DejaVuSans-6d"/>
      <use x="235.693359" xlink:href="#DejaVuSans-70"/>
      <use x="299.169922" xlink:href="#DejaVuSans-65"/>
      <use x="360.693359" xlink:href="#DejaVuSans-64"/>
     </g>
    </g>
    <g id="line2d_20">
     <path d="M 322.996563 69.248562 
L 342.996563 69.248562 
" style="fill:none;stroke:#000000;stroke-dasharray:5.55,2.4;stroke-dashoffset:0;stroke-width:1.5;"/>
    </g>
    <g id="line2d_21">
     <g>
      <use style="stroke:#000000;stroke-linejoin:miter;" x="332.996563" xlink:href="#mc90fef8fdc" y="69.248562"/>
     </g>
    </g>
    <g id="text_20">
     <!-- Undamped -->
     <defs>
      <path d="M 8.6875 72.90625 
L 18.609375 72.90625 
L 18.609375 28.609375 
Q 18.609375 16.890625 22.84375 11.734375 
Q 27.09375 6.59375 36.625 6.59375 
Q 46.09375 6.59375 50.34375 11.734375 
Q 54.59375 16.890625 54.59375 28.609375 
L 54.59375 72.90625 
L 64.5 72.90625 
L 64.5 27.390625 
Q 64.5 13.140625 57.4375 5.859375 
Q 50.390625 -1.421875 36.625 -1.421875 
Q 22.796875 -1.421875 15.734375 5.859375 
Q 8.6875 13.140625 8.6875 27.390625 
z
" id="DejaVuSans-55"/>
     </defs>
     <g transform="translate(350.996563 72.748562)scale(0.1 -0.1)">
      <use xlink:href="#DejaVuSans-55"/>
      <use x="73.193359" xlink:href="#DejaVuSans-6e"/>
      <use x="136.572266" xlink:href="#DejaVuSans-64"/>
      <use x="200.048828" xlink:href="#DejaVuSans-61"/>
      <use x="261.328125" xlink:href="#DejaVuSans-6d"/>
      <use x="358.740234" xlink:href="#DejaVuSans-70"/>
      <use x="422.216797" xlink:href="#DejaVuSans-65"/>
      <use x="483.740234" xlink:href="#DejaVuSans-64"/>
     </g>
    </g>
   </g>
  </g>
 </g>
 <defs>
  <clipPath id="p506b642aa3">
   <rect height="266.112" width="357.12" x="57.6" y="41.472"/>
  </clipPath>
 </defs>
</svg>
