<?xml version="1.0" encoding="UTF-8"?><svg xmlns="http://www.w3.org/2000/svg" xmlns:xlink="http://www.w3.org/1999/xlink" fill-opacity="1" color-rendering="auto" color-interpolation="auto" text-rendering="auto" stroke="black" stroke-linecap="square" width="747" stroke-miterlimit="10" shape-rendering="auto" stroke-opacity="1" fill="black" stroke-dasharray="none" font-weight="normal" stroke-width="1" height="594" font-family="'Dialog'" font-style="normal" stroke-linejoin="miter" font-size="12px" stroke-dashoffset="0" image-rendering="auto">
  <!--Generated by ySVG 2.6-->
  <defs id="genericDefs"/>
  <g>
    <defs id="defs1">
      <clipPath clipPathUnits="userSpaceOnUse" id="clipPath1">
        <path d="M0 0 L747 0 L747 594 L0 594 L0 0 Z"/>
      </clipPath>
      <clipPath clipPathUnits="userSpaceOnUse" id="clipPath2">
        <path d="M59 -389 L806 -389 L806 205 L59 205 L59 -389 Z"/>
      </clipPath>
    </defs>
    <g fill="rgb(219,250,244)" text-rendering="geometricPrecision" shape-rendering="geometricPrecision" transform="matrix(1,0,0,1,-59,389)" stroke="rgb(219,250,244)">
      <rect x="489.2707" y="15.0932" clip-path="url(#clipPath2)" width="197.4006" rx="4" ry="4" height="130.3136" stroke="none"/>
    </g>
    <g text-rendering="geometricPrecision" stroke-miterlimit="1.45" shape-rendering="geometricPrecision" transform="matrix(1,0,0,1,-59,389)" stroke-linecap="butt">
      <rect x="489.2707" y="15.0932" clip-path="url(#clipPath2)" fill="none" width="197.4006" rx="4" ry="4" height="130.3136"/>
      <text x="562.3028" y="2.7532" clip-path="url(#clipPath2)" font-family="'Lato Medium'" stroke="none" font-weight="bold" xml:space="preserve">Node # 2</text>
    </g>
    <g fill="rgb(219,250,244)" text-rendering="geometricPrecision" shape-rendering="geometricPrecision" transform="matrix(1,0,0,1,-59,389)" stroke="rgb(219,250,244)">
      <rect x="183.2997" y="15.0932" clip-path="url(#clipPath2)" width="197.4006" rx="4" ry="4" height="130.3136" stroke="none"/>
    </g>
    <g text-rendering="geometricPrecision" stroke-miterlimit="1.45" shape-rendering="geometricPrecision" transform="matrix(1,0,0,1,-59,389)" stroke-linecap="butt">
      <rect x="183.2997" y="15.0932" clip-path="url(#clipPath2)" fill="none" width="197.4006" rx="4" ry="4" height="130.3136"/>
      <text x="256.3318" y="2.7532" clip-path="url(#clipPath2)" font-family="'Lato Medium'" stroke="none" font-weight="bold" xml:space="preserve">Node # 1</text>
    </g>
    <g fill="rgb(98,180,164)" text-rendering="geometricPrecision" shape-rendering="geometricPrecision" transform="matrix(1,0,0,1,-59,389)" stroke="rgb(98,180,164)">
      <rect x="194" width="176" height="22" y="25" clip-path="url(#clipPath2)" stroke="none"/>
    </g>
    <g text-rendering="geometricPrecision" stroke-miterlimit="1.45" shape-rendering="geometricPrecision" transform="matrix(1,0,0,1,-59,389)" stroke-linecap="butt">
      <rect fill="none" x="194" width="176" height="22" y="25" clip-path="url(#clipPath2)"/>
      <text x="259.7728" xml:space="preserve" y="39.66" clip-path="url(#clipPath2)" font-family="'Lato Medium'" stroke="none">Task # 1</text>
    </g>
    <g fill="rgb(98,180,164)" text-rendering="geometricPrecision" shape-rendering="geometricPrecision" transform="matrix(1,0,0,1,-59,389)" stroke="rgb(98,180,164)">
      <rect x="499.971" width="176" height="22" y="25" clip-path="url(#clipPath2)" stroke="none"/>
    </g>
    <g text-rendering="geometricPrecision" stroke-miterlimit="1.45" shape-rendering="geometricPrecision" transform="matrix(1,0,0,1,-59,389)" stroke-linecap="butt">
      <rect fill="none" x="499.971" width="176" height="22" y="25" clip-path="url(#clipPath2)"/>
      <text x="565.7438" xml:space="preserve" y="39.66" clip-path="url(#clipPath2)" font-family="'Lato Medium'" stroke="none">Task # 3</text>
    </g>
    <g fill="rgb(98,180,164)" text-rendering="geometricPrecision" shape-rendering="geometricPrecision" transform="matrix(1,0,0,1,-59,389)" stroke="rgb(98,180,164)">
      <rect x="194" width="176" height="22" y="84" clip-path="url(#clipPath2)" stroke="none"/>
    </g>
    <g text-rendering="geometricPrecision" stroke-miterlimit="1.45" shape-rendering="geometricPrecision" transform="matrix(1,0,0,1,-59,389)" stroke-linecap="butt">
      <rect fill="none" x="194" width="176" height="22" y="84" clip-path="url(#clipPath2)"/>
      <text x="259.7728" xml:space="preserve" y="98.66" clip-path="url(#clipPath2)" font-family="'Lato Medium'" stroke="none">Task # 2</text>
    </g>
    <g fill="rgb(98,180,164)" text-rendering="geometricPrecision" shape-rendering="geometricPrecision" transform="matrix(1,0,0,1,-59,389)" stroke="rgb(98,180,164)">
      <rect x="499.971" width="176" height="22" y="84" clip-path="url(#clipPath2)" stroke="none"/>
    </g>
    <g text-rendering="geometricPrecision" stroke-miterlimit="1.45" shape-rendering="geometricPrecision" transform="matrix(1,0,0,1,-59,389)" stroke-linecap="butt">
      <rect fill="none" x="499.971" width="176" height="22" y="84" clip-path="url(#clipPath2)"/>
      <text x="565.7438" xml:space="preserve" y="98.66" clip-path="url(#clipPath2)" font-family="'Lato Medium'" stroke="none">Task # 4</text>
    </g>
    <g fill="rgb(153,204,255)" text-rendering="geometricPrecision" shape-rendering="geometricPrecision" transform="matrix(1,0,0,1,-59,389)" stroke="rgb(153,204,255)">
      <rect x="253.5" width="57" height="22" y="54.5" clip-path="url(#clipPath2)" stroke="none"/>
    </g>
    <g text-rendering="geometricPrecision" stroke-miterlimit="1.45" shape-rendering="geometricPrecision" transform="matrix(1,0,0,1,-59,389)" stroke-linecap="butt">
      <rect fill="none" x="253.5" width="57" height="22" y="54.5" clip-path="url(#clipPath2)"/>
      <text x="269.9549" xml:space="preserve" y="69.16" clip-path="url(#clipPath2)" font-family="'Lato Medium'" stroke="none">CPU</text>
    </g>
    <g fill="rgb(153,204,255)" text-rendering="geometricPrecision" shape-rendering="geometricPrecision" transform="matrix(1,0,0,1,-59,389)" stroke="rgb(153,204,255)">
      <rect x="559.471" width="57" height="22" y="54.5" clip-path="url(#clipPath2)" stroke="none"/>
    </g>
    <g text-rendering="geometricPrecision" stroke-miterlimit="1.45" shape-rendering="geometricPrecision" transform="matrix(1,0,0,1,-59,389)" stroke-linecap="butt">
      <rect fill="none" x="559.471" width="57" height="22" y="54.5" clip-path="url(#clipPath2)"/>
      <text x="575.9259" xml:space="preserve" y="69.16" clip-path="url(#clipPath2)" font-family="'Lato Medium'" stroke="none">CPU</text>
    </g>
    <g fill="rgb(153,204,255)" text-rendering="geometricPrecision" shape-rendering="geometricPrecision" transform="matrix(1,0,0,1,-59,389)" stroke="rgb(153,204,255)">
      <rect x="253.5" width="57" height="22" y="113.5" clip-path="url(#clipPath2)" stroke="none"/>
    </g>
    <g text-rendering="geometricPrecision" stroke-miterlimit="1.45" shape-rendering="geometricPrecision" transform="matrix(1,0,0,1,-59,389)" stroke-linecap="butt">
      <rect fill="none" x="253.5" width="57" height="22" y="113.5" clip-path="url(#clipPath2)"/>
      <text x="269.9549" xml:space="preserve" y="128.16" clip-path="url(#clipPath2)" font-family="'Lato Medium'" stroke="none">CPU</text>
    </g>
    <g fill="rgb(153,204,255)" text-rendering="geometricPrecision" shape-rendering="geometricPrecision" transform="matrix(1,0,0,1,-59,389)" stroke="rgb(153,204,255)">
      <rect x="559.471" width="57" height="22" y="113.5" clip-path="url(#clipPath2)" stroke="none"/>
    </g>
    <g text-rendering="geometricPrecision" stroke-miterlimit="1.45" shape-rendering="geometricPrecision" transform="matrix(1,0,0,1,-59,389)" stroke-linecap="butt">
      <rect fill="none" x="559.471" width="57" height="22" y="113.5" clip-path="url(#clipPath2)"/>
      <text x="575.9259" xml:space="preserve" y="128.16" clip-path="url(#clipPath2)" font-family="'Lato Medium'" stroke="none">CPU</text>
      <text x="185.7726" font-size="16px" y="179.6799" clip-path="url(#clipPath2)" font-family="'Lato Medium'" stroke="none" xml:space="preserve">In MPI parallelism all tasks act as a collective and communicate via MPI</text>
    </g>
    <g fill="rgb(98,180,164)" text-rendering="geometricPrecision" shape-rendering="geometricPrecision" transform="matrix(1,0,0,1,-59,389)" stroke="rgb(98,180,164)">
      <rect x="182.2997" width="252" height="78" y="-188" clip-path="url(#clipPath2)" stroke="none"/>
    </g>
    <g text-rendering="geometricPrecision" stroke-miterlimit="1.45" shape-rendering="geometricPrecision" transform="matrix(1,0,0,1,-59,389)" stroke-linecap="butt">
      <rect fill="none" x="182.2997" width="252" height="78" y="-188" clip-path="url(#clipPath2)"/>
      <text x="291.6226" xml:space="preserve" y="-145.34" clip-path="url(#clipPath2)" font-family="'Lato Medium'" stroke="none">Split 1</text>
    </g>
    <g fill="rgb(98,180,164)" text-rendering="geometricPrecision" shape-rendering="geometricPrecision" transform="matrix(1,0,0,1,-59,389)" stroke="rgb(98,180,164)">
      <rect x="434.2997" width="252" height="78" y="-188" clip-path="url(#clipPath2)" stroke="none"/>
    </g>
    <g text-rendering="geometricPrecision" stroke-miterlimit="1.45" shape-rendering="geometricPrecision" transform="matrix(1,0,0,1,-59,389)" stroke-linecap="butt">
      <rect fill="none" x="434.2997" width="252" height="78" y="-188" clip-path="url(#clipPath2)"/>
      <text x="543.6226" xml:space="preserve" y="-145.34" clip-path="url(#clipPath2)" font-family="'Lato Medium'" stroke="none">Split 3</text>
    </g>
    <g fill="rgb(98,180,164)" text-rendering="geometricPrecision" shape-rendering="geometricPrecision" transform="matrix(1,0,0,1,-59,389)" stroke="rgb(98,180,164)">
      <rect x="182.2997" width="252" height="78" y="-110" clip-path="url(#clipPath2)" stroke="none"/>
    </g>
    <g text-rendering="geometricPrecision" stroke-miterlimit="1.45" shape-rendering="geometricPrecision" transform="matrix(1,0,0,1,-59,389)" stroke-linecap="butt">
      <rect fill="none" x="182.2997" width="252" height="78" y="-110" clip-path="url(#clipPath2)"/>
      <text x="291.6226" xml:space="preserve" y="-67.34" clip-path="url(#clipPath2)" font-family="'Lato Medium'" stroke="none">Split 2</text>
    </g>
    <g fill="rgb(98,180,164)" text-rendering="geometricPrecision" shape-rendering="geometricPrecision" transform="matrix(1,0,0,1,-59,389)" stroke="rgb(98,180,164)">
      <rect x="434.2997" width="252" height="78" y="-110" clip-path="url(#clipPath2)" stroke="none"/>
    </g>
    <g text-rendering="geometricPrecision" stroke-miterlimit="1.45" shape-rendering="geometricPrecision" transform="matrix(1,0,0,1,-59,389)" stroke-linecap="butt">
      <rect fill="none" x="434.2997" width="252" height="78" y="-110" clip-path="url(#clipPath2)"/>
      <text x="543.6226" xml:space="preserve" y="-67.34" clip-path="url(#clipPath2)" font-family="'Lato Medium'" stroke="none">Split 4</text>
    </g>
    <g fill="rgb(98,180,164)" text-rendering="geometricPrecision" shape-rendering="geometricPrecision" transform="matrix(1,0,0,1,-59,389)" stroke="rgb(98,180,164)">
      <rect x="182.2997" width="504" height="156" y="-374" clip-path="url(#clipPath2)" stroke="none"/>
    </g>
    <g text-rendering="geometricPrecision" stroke-miterlimit="1.45" shape-rendering="geometricPrecision" transform="matrix(1,0,0,1,-59,389)" stroke-linecap="butt">
      <rect fill="none" x="182.2997" width="504" height="156" y="-374" clip-path="url(#clipPath2)"/>
      <text x="393.6104" xml:space="preserve" y="-292.34" clip-path="url(#clipPath2)" font-family="'Lato Medium'" stroke="none">Simulation area</text>
      <path fill="none" stroke-dasharray="12,4" d="M370 36 L499.971 36" stroke-width="2" clip-path="url(#clipPath2)"/>
      <text x="424.4211" xml:space="preserve" y="9.1294" clip-path="url(#clipPath2)" font-family="sans-serif" stroke="none">MPI</text>
      <text x="388.5851" xml:space="preserve" y="23.0981" clip-path="url(#clipPath2)" font-family="sans-serif" stroke="none">communication</text>
      <path fill="none" stroke-dasharray="12,4" d="M530.9255 47 L339.0454 84" stroke-width="2" clip-path="url(#clipPath2)"/>
      <path fill="none" stroke-dasharray="12,4" d="M332.3839 46.9797 L332.3839 83.9728" stroke-width="2" clip-path="url(#clipPath2)"/>
      <path fill="none" stroke-dasharray="12,4" d="M339.0454 47 L530.9255 84" stroke-width="2" clip-path="url(#clipPath2)"/>
      <path fill="none" stroke-dasharray="12,4" d="M537.9399 47.0138 L537.9399 84.0309" stroke-width="2" clip-path="url(#clipPath2)"/>
      <path fill="none" stroke-dasharray="12,4" d="M370 95 L499.971 95" stroke-width="2" clip-path="url(#clipPath2)"/>
      <path fill="none" d="M282 47 L282 54.5" clip-path="url(#clipPath2)"/>
      <path fill="none" d="M587.971 47 L587.971 54.5" clip-path="url(#clipPath2)"/>
      <path fill="none" d="M282 106 L282 113.5" clip-path="url(#clipPath2)"/>
      <path fill="none" d="M587.971 106 L587.971 113.5" clip-path="url(#clipPath2)"/>
      <path fill="none" d="M182.2997 -149 L126.5 -149 L126.5 36 L186 36" clip-path="url(#clipPath2)"/>
      <path d="M194 36 L182 31 L185 36 L182 41 Z" clip-path="url(#clipPath2)" stroke="none"/>
      <path fill="none" d="M686.2997 -149 L742.5 -149 L742.5 36 L683.971 36" clip-path="url(#clipPath2)"/>
      <path d="M675.971 36 L687.971 41 L684.971 36 L687.971 31 Z" clip-path="url(#clipPath2)" stroke="none"/>
      <path fill="none" d="M182.2997 -55.9102 L74.5 -43 L74.5 95 L186 95" clip-path="url(#clipPath2)"/>
      <path d="M194 95 L182 90 L185 95 L182 100 Z" clip-path="url(#clipPath2)" stroke="none"/>
      <path fill="none" d="M308.2997 -217.993 L308.2997 -196" clip-path="url(#clipPath2)"/>
      <path d="M308.2997 -188 L313.2997 -200 L308.2997 -197 L303.2997 -200 Z" clip-path="url(#clipPath2)" stroke="none"/>
      <path fill="none" d="M560.2997 -217.9669 L560.2997 -196" clip-path="url(#clipPath2)"/>
      <path d="M560.2997 -188 L565.2997 -200 L560.2997 -197 L555.2997 -200 Z" clip-path="url(#clipPath2)" stroke="none"/>
      <path fill="none" d="M182.2997 -296 L77.5 -296 L77.5 -71 L174.2997 -71" clip-path="url(#clipPath2)"/>
      <path d="M182.2997 -71 L170.2997 -76 L173.2997 -71 L170.2997 -66 Z" clip-path="url(#clipPath2)" stroke="none"/>
      <path fill="none" d="M686.2997 -296 L790.5 -296 L790.5 -71 L694.2997 -71" clip-path="url(#clipPath2)"/>
      <path d="M686.2997 -71 L698.2997 -66 L695.2997 -71 L698.2997 -76 Z" clip-path="url(#clipPath2)" stroke="none"/>
    </g>
  </g>
</svg>
