<?xml version="1.0" encoding="UTF-8"?><svg xmlns="http://www.w3.org/2000/svg" xmlns:xlink="http://www.w3.org/1999/xlink" fill-opacity="1" color-rendering="auto" color-interpolation="auto" text-rendering="auto" stroke="black" stroke-linecap="square" width="455" stroke-miterlimit="10" shape-rendering="auto" stroke-opacity="1" fill="black" stroke-dasharray="none" font-weight="normal" stroke-width="1" height="248" font-family="'Dialog'" font-style="normal" stroke-linejoin="miter" font-size="12px" stroke-dashoffset="0" image-rendering="auto">
  <!--Generated by ySVG 2.6-->
  <defs id="genericDefs"/>
  <g>
    <defs id="defs1">
      <clipPath clipPathUnits="userSpaceOnUse" id="clipPath1">
        <path d="M0 0 L455 0 L455 248 L0 248 L0 0 Z"/>
      </clipPath>
      <clipPath clipPathUnits="userSpaceOnUse" id="clipPath2">
        <path d="M168 -27 L623 -27 L623 221 L168 221 L168 -27 Z"/>
      </clipPath>
    </defs>
    <g fill="rgb(219,250,244)" text-rendering="geometricPrecision" shape-rendering="geometricPrecision" transform="matrix(1,0,0,1,-168,27)" stroke="rgb(219,250,244)">
      <rect x="472.039" y="12.5332" clip-path="url(#clipPath2)" width="135.8006" rx="4" ry="4" height="130.3136" stroke="none"/>
    </g>
    <g text-rendering="geometricPrecision" stroke-miterlimit="1.45" shape-rendering="geometricPrecision" transform="matrix(1,0,0,1,-168,27)" stroke-linecap="butt">
      <rect x="472.039" y="12.5332" clip-path="url(#clipPath2)" fill="none" width="135.8006" rx="4" ry="4" height="130.3136"/>
      <text x="515.3842" y="0.1932" clip-path="url(#clipPath2)" font-family="'Lato'" stroke="none" font-weight="bold" xml:space="preserve">Node # 2</text>
    </g>
    <g fill="rgb(219,250,244)" text-rendering="geometricPrecision" shape-rendering="geometricPrecision" transform="matrix(1,0,0,1,-168,27)" stroke="rgb(219,250,244)">
      <rect x="183.2997" y="15.0932" clip-path="url(#clipPath2)" width="268.3393" rx="4" ry="4" height="130.3136" stroke="none"/>
    </g>
    <g text-rendering="geometricPrecision" stroke-miterlimit="1.45" shape-rendering="geometricPrecision" transform="matrix(1,0,0,1,-168,27)" stroke-linecap="butt">
      <rect x="183.2997" y="15.0932" clip-path="url(#clipPath2)" fill="none" width="268.3393" rx="4" ry="4" height="130.3136"/>
      <text x="292.9142" y="2.7532" clip-path="url(#clipPath2)" font-family="'Lato'" stroke="none" font-weight="bold" xml:space="preserve">Node # 1</text>
    </g>
    <g fill="rgb(98,180,164)" text-rendering="geometricPrecision" shape-rendering="geometricPrecision" transform="matrix(1,0,0,1,-168,27)" stroke="rgb(98,180,164)">
      <rect x="194" width="116.5" height="22" y="25" clip-path="url(#clipPath2)" stroke="none"/>
    </g>
    <g text-rendering="geometricPrecision" stroke-miterlimit="1.45" shape-rendering="geometricPrecision" transform="matrix(1,0,0,1,-168,27)" stroke-linecap="butt">
      <rect fill="none" x="194" width="116.5" height="22" y="25" clip-path="url(#clipPath2)"/>
      <text x="217.9748" xml:space="preserve" y="39.66" clip-path="url(#clipPath2)" font-family="'Lato'" stroke="none">Array job # 1</text>
    </g>
    <g fill="rgb(98,180,164)" text-rendering="geometricPrecision" shape-rendering="geometricPrecision" transform="matrix(1,0,0,1,-168,27)" stroke="rgb(98,180,164)">
      <rect x="325.539" width="116.5" height="22" y="25" clip-path="url(#clipPath2)" stroke="none"/>
    </g>
    <g text-rendering="geometricPrecision" stroke-miterlimit="1.45" shape-rendering="geometricPrecision" transform="matrix(1,0,0,1,-168,27)" stroke-linecap="butt">
      <rect fill="none" x="325.539" width="116.5" height="22" y="25" clip-path="url(#clipPath2)"/>
      <text x="349.5137" xml:space="preserve" y="39.66" clip-path="url(#clipPath2)" font-family="'Lato'" stroke="none">Array job # 3</text>
    </g>
    <g fill="rgb(98,180,164)" text-rendering="geometricPrecision" shape-rendering="geometricPrecision" transform="matrix(1,0,0,1,-168,27)" stroke="rgb(98,180,164)">
      <rect x="194" width="116.5" height="22" y="84" clip-path="url(#clipPath2)" stroke="none"/>
    </g>
    <g text-rendering="geometricPrecision" stroke-miterlimit="1.45" shape-rendering="geometricPrecision" transform="matrix(1,0,0,1,-168,27)" stroke-linecap="butt">
      <rect fill="none" x="194" width="116.5" height="22" y="84" clip-path="url(#clipPath2)"/>
      <text x="217.9748" xml:space="preserve" y="98.66" clip-path="url(#clipPath2)" font-family="'Lato'" stroke="none">Array job # 2</text>
    </g>
    <g fill="rgb(98,180,164)" text-rendering="geometricPrecision" shape-rendering="geometricPrecision" transform="matrix(1,0,0,1,-168,27)" stroke="rgb(98,180,164)">
      <rect x="481.639" width="116.5" height="22" y="25" clip-path="url(#clipPath2)" stroke="none"/>
    </g>
    <g text-rendering="geometricPrecision" stroke-miterlimit="1.45" shape-rendering="geometricPrecision" transform="matrix(1,0,0,1,-168,27)" stroke-linecap="butt">
      <rect fill="none" x="481.639" width="116.5" height="22" y="25" clip-path="url(#clipPath2)"/>
      <text x="505.6137" xml:space="preserve" y="39.66" clip-path="url(#clipPath2)" font-family="'Lato'" stroke="none">Array job # 4</text>
    </g>
    <g fill="rgb(153,204,255)" text-rendering="geometricPrecision" shape-rendering="geometricPrecision" transform="matrix(1,0,0,1,-168,27)" stroke="rgb(153,204,255)">
      <rect x="223.75" width="57" height="22" y="54.5" clip-path="url(#clipPath2)" stroke="none"/>
    </g>
    <g text-rendering="geometricPrecision" stroke-miterlimit="1.45" shape-rendering="geometricPrecision" transform="matrix(1,0,0,1,-168,27)" stroke-linecap="butt">
      <rect fill="none" x="223.75" width="57" height="22" y="54.5" clip-path="url(#clipPath2)"/>
      <text x="240.2259" xml:space="preserve" y="69.16" clip-path="url(#clipPath2)" font-family="'Lato'" stroke="none">CPU</text>
    </g>
    <g fill="rgb(153,204,255)" text-rendering="geometricPrecision" shape-rendering="geometricPrecision" transform="matrix(1,0,0,1,-168,27)" stroke="rgb(153,204,255)">
      <rect x="355.289" width="57" height="22" y="54.5" clip-path="url(#clipPath2)" stroke="none"/>
    </g>
    <g text-rendering="geometricPrecision" stroke-miterlimit="1.45" shape-rendering="geometricPrecision" transform="matrix(1,0,0,1,-168,27)" stroke-linecap="butt">
      <rect fill="none" x="355.289" width="57" height="22" y="54.5" clip-path="url(#clipPath2)"/>
      <text x="371.7649" xml:space="preserve" y="69.16" clip-path="url(#clipPath2)" font-family="'Lato'" stroke="none">CPU</text>
    </g>
    <g fill="rgb(153,204,255)" text-rendering="geometricPrecision" shape-rendering="geometricPrecision" transform="matrix(1,0,0,1,-168,27)" stroke="rgb(153,204,255)">
      <rect x="223.75" width="57" height="22" y="113.5" clip-path="url(#clipPath2)" stroke="none"/>
    </g>
    <g text-rendering="geometricPrecision" stroke-miterlimit="1.45" shape-rendering="geometricPrecision" transform="matrix(1,0,0,1,-168,27)" stroke-linecap="butt">
      <rect fill="none" x="223.75" width="57" height="22" y="113.5" clip-path="url(#clipPath2)"/>
      <text x="240.2259" xml:space="preserve" y="128.16" clip-path="url(#clipPath2)" font-family="'Lato'" stroke="none">CPU</text>
    </g>
    <g fill="rgb(153,204,255)" text-rendering="geometricPrecision" shape-rendering="geometricPrecision" transform="matrix(1,0,0,1,-168,27)" stroke="rgb(153,204,255)">
      <rect x="511.4393" width="57" height="22" y="54.5" clip-path="url(#clipPath2)" stroke="none"/>
    </g>
    <g text-rendering="geometricPrecision" stroke-miterlimit="1.45" shape-rendering="geometricPrecision" transform="matrix(1,0,0,1,-168,27)" stroke-linecap="butt">
      <rect fill="none" x="511.4393" width="57" height="22" y="54.5" clip-path="url(#clipPath2)"/>
      <text x="527.9152" xml:space="preserve" y="69.16" clip-path="url(#clipPath2)" font-family="'Lato'" stroke="none">CPU</text>
      <text x="200.181" font-size="16px" y="173.1199" clip-path="url(#clipPath2)" font-family="'Lato'" stroke="none" xml:space="preserve">In array jobs all array tasks are independent of each other</text>
      <path fill="none" d="M252.25 47 L252.25 54.5" clip-path="url(#clipPath2)"/>
      <path fill="none" d="M383.789 47 L383.789 54.5" clip-path="url(#clipPath2)"/>
      <path fill="none" d="M252.25 106 L252.25 113.5" clip-path="url(#clipPath2)"/>
      <path fill="none" d="M539.9077 47 L539.9205 54.5" clip-path="url(#clipPath2)"/>
    </g>
  </g>
</svg>
