<?xml version="1.0" encoding="UTF-8"?><svg xmlns="http://www.w3.org/2000/svg" xmlns:xlink="http://www.w3.org/1999/xlink" fill-opacity="1" color-rendering="auto" color-interpolation="auto" text-rendering="auto" stroke="black" stroke-linecap="square" width="514" stroke-miterlimit="10" shape-rendering="auto" stroke-opacity="1" fill="black" stroke-dasharray="none" font-weight="normal" stroke-width="1" height="587" font-family="'Dialog'" font-style="normal" stroke-linejoin="miter" font-size="12px" stroke-dashoffset="0" image-rendering="auto">
  <!--Generated by ySVG 2.6-->
  <defs id="genericDefs"/>
  <g>
    <defs id="defs1">
      <clipPath clipPathUnits="userSpaceOnUse" id="clipPath1">
        <path d="M0 0 L514 0 L514 587 L0 587 L0 0 Z"/>
      </clipPath>
      <clipPath clipPathUnits="userSpaceOnUse" id="clipPath2">
        <path d="M47 -8 L561 -8 L561 579 L47 579 L47 -8 Z"/>
      </clipPath>
    </defs>
    <g fill="rgb(219,250,244)" text-rendering="geometricPrecision" shape-rendering="geometricPrecision" transform="matrix(1,0,0,1,-47,8)" stroke="rgb(219,250,244)">
      <rect x="62.102" y="7.7" clip-path="url(#clipPath2)" width="483.6" rx="4" ry="4" height="270" stroke="none"/>
    </g>
    <g text-rendering="geometricPrecision" stroke-miterlimit="1.45" shape-rendering="geometricPrecision" transform="matrix(1,0,0,1,-47,8)" stroke-linecap="butt">
      <rect x="62.102" y="7.7" clip-path="url(#clipPath2)" fill="none" width="483.6" rx="4" ry="4" height="270"/>
    </g>
    <g fill="rgb(219,250,244)" text-rendering="geometricPrecision" shape-rendering="geometricPrecision" transform="matrix(1,0,0,1,-47,8)" stroke="rgb(219,250,244)">
      <rect x="62.102" y="293.8" clip-path="url(#clipPath2)" width="483.6" rx="4" ry="4" height="270" stroke="none"/>
    </g>
    <g text-rendering="geometricPrecision" stroke-miterlimit="1.45" shape-rendering="geometricPrecision" transform="matrix(1,0,0,1,-47,8)" stroke-linecap="butt">
      <rect x="62.102" y="293.8" clip-path="url(#clipPath2)" fill="none" width="483.6" rx="4" ry="4" height="270"/>
    </g>
    <g fill="rgb(98,180,164)" text-rendering="geometricPrecision" shape-rendering="geometricPrecision" transform="matrix(1,0,0,1,-47,8)" stroke="rgb(98,180,164)">
      <rect x="100.102" width="292" height="22" y="20.2" clip-path="url(#clipPath2)" stroke="none"/>
    </g>
    <g text-rendering="geometricPrecision" stroke-miterlimit="1.45" shape-rendering="geometricPrecision" transform="matrix(1,0,0,1,-47,8)" stroke-linecap="butt">
      <rect fill="none" x="100.102" width="292" height="22" y="20.2" clip-path="url(#clipPath2)"/>
      <text x="214.9976" font-size="14px" y="35.47" clip-path="url(#clipPath2)" font-family="'Lato'" stroke="none" xml:space="preserve">Serial part</text>
    </g>
    <g fill="rgb(153,204,255)" text-rendering="geometricPrecision" shape-rendering="geometricPrecision" transform="matrix(1,0,0,1,-47,8)" stroke="rgb(153,204,255)">
      <rect x="392.502" width="110" height="22" y="20.2" clip-path="url(#clipPath2)" stroke="none"/>
    </g>
    <g text-rendering="geometricPrecision" stroke-miterlimit="1.45" shape-rendering="geometricPrecision" transform="matrix(1,0,0,1,-47,8)" stroke-linecap="butt">
      <rect fill="none" x="392.502" width="110" height="22" y="20.2" clip-path="url(#clipPath2)"/>
      <text x="410.8886" font-size="14px" y="35.47" clip-path="url(#clipPath2)" font-family="'Lato'" stroke="none" xml:space="preserve">Parallel part</text>
    </g>
    <g fill="rgb(153,204,255)" text-rendering="geometricPrecision" shape-rendering="geometricPrecision" transform="matrix(1,0,0,1,-47,8)" stroke="rgb(153,204,255)">
      <rect x="392.502" width="55" height="22" y="159.8" clip-path="url(#clipPath2)" stroke="none"/>
    </g>
    <g text-rendering="geometricPrecision" stroke-miterlimit="1.45" shape-rendering="geometricPrecision" transform="matrix(1,0,0,1,-47,8)" stroke-linecap="butt">
      <rect fill="none" x="392.502" width="55" height="22" y="159.8" clip-path="url(#clipPath2)"/>
      <text x="335.3828" font-size="14px" y="151.07" clip-path="url(#clipPath2)" font-family="'Lato'" stroke="none" xml:space="preserve">Parallel part with two CPUs</text>
    </g>
    <g fill="rgb(98,180,164)" text-rendering="geometricPrecision" shape-rendering="geometricPrecision" transform="matrix(1,0,0,1,-47,8)" stroke="rgb(98,180,164)">
      <rect x="100.102" width="292" height="22" y="159.8" clip-path="url(#clipPath2)" stroke="none"/>
    </g>
    <g text-rendering="geometricPrecision" stroke-miterlimit="1.45" shape-rendering="geometricPrecision" transform="matrix(1,0,0,1,-47,8)" stroke-linecap="butt">
      <rect fill="none" x="100.102" width="292" height="22" y="159.8" clip-path="url(#clipPath2)"/>
      <text x="214.9976" font-size="14px" y="175.07" clip-path="url(#clipPath2)" font-family="'Lato'" stroke="none" xml:space="preserve">Serial part</text>
    </g>
    <g fill="rgb(153,204,255)" text-rendering="geometricPrecision" shape-rendering="geometricPrecision" transform="matrix(1,0,0,1,-47,8)" stroke="rgb(153,204,255)">
      <rect x="392.502" width="55" height="22" y="181.8" clip-path="url(#clipPath2)" stroke="none"/>
    </g>
    <g text-rendering="geometricPrecision" stroke-miterlimit="1.45" shape-rendering="geometricPrecision" transform="matrix(1,0,0,1,-47,8)" stroke-linecap="butt">
      <rect fill="none" x="392.502" width="55" height="22" y="181.8" clip-path="url(#clipPath2)"/>
      <text x="205.5552" font-size="16px" y="253.6799" clip-path="url(#clipPath2)" font-family="'Lato'" stroke="none" xml:space="preserve">Job with bad parallelization</text>
    </g>
    <g fill="rgb(98,180,164)" text-rendering="geometricPrecision" shape-rendering="geometricPrecision" transform="matrix(1,0,0,1,-47,8)" stroke="rgb(98,180,164)">
      <rect x="100.102" width="110" height="22" y="311.8" clip-path="url(#clipPath2)" stroke="none"/>
    </g>
    <g text-rendering="geometricPrecision" stroke-miterlimit="1.45" shape-rendering="geometricPrecision" transform="matrix(1,0,0,1,-47,8)" stroke-linecap="butt">
      <rect fill="none" x="100.102" width="110" height="22" y="311.8" clip-path="url(#clipPath2)"/>
      <text x="123.9976" font-size="14px" y="327.07" clip-path="url(#clipPath2)" font-family="'Lato'" stroke="none" xml:space="preserve">Serial part</text>
    </g>
    <g fill="rgb(153,204,255)" text-rendering="geometricPrecision" shape-rendering="geometricPrecision" transform="matrix(1,0,0,1,-47,8)" stroke="rgb(153,204,255)">
      <rect x="210.102" width="292" height="22" y="311.8" clip-path="url(#clipPath2)" stroke="none"/>
    </g>
    <g text-rendering="geometricPrecision" stroke-miterlimit="1.45" shape-rendering="geometricPrecision" transform="matrix(1,0,0,1,-47,8)" stroke-linecap="butt">
      <rect fill="none" x="210.102" width="292" height="22" y="311.8" clip-path="url(#clipPath2)"/>
      <text x="319.4886" font-size="14px" y="327.07" clip-path="url(#clipPath2)" font-family="'Lato'" stroke="none" xml:space="preserve">Parallel part</text>
      <text x="200.7792" font-size="16px" y="545.2799" clip-path="url(#clipPath2)" font-family="'Lato'" stroke="none" xml:space="preserve">Job with good parallelization</text>
    </g>
    <g fill="rgb(98,180,164)" text-rendering="geometricPrecision" shape-rendering="geometricPrecision" transform="matrix(1,0,0,1,-47,8)" stroke="rgb(98,180,164)">
      <rect x="100.102" width="110" height="22" y="451.4" clip-path="url(#clipPath2)" stroke="none"/>
    </g>
    <g text-rendering="geometricPrecision" stroke-miterlimit="1.45" shape-rendering="geometricPrecision" transform="matrix(1,0,0,1,-47,8)" stroke-linecap="butt">
      <rect fill="none" x="100.102" width="110" height="22" y="451.4" clip-path="url(#clipPath2)"/>
      <text x="123.9976" font-size="14px" y="466.67" clip-path="url(#clipPath2)" font-family="'Lato'" stroke="none" xml:space="preserve">Serial part</text>
    </g>
    <g fill="rgb(153,204,255)" text-rendering="geometricPrecision" shape-rendering="geometricPrecision" transform="matrix(1,0,0,1,-47,8)" stroke="rgb(153,204,255)">
      <rect x="210.102" width="146" height="22" y="451.4" clip-path="url(#clipPath2)" stroke="none"/>
    </g>
    <g text-rendering="geometricPrecision" stroke-miterlimit="1.45" shape-rendering="geometricPrecision" transform="matrix(1,0,0,1,-47,8)" stroke-linecap="butt">
      <rect fill="none" x="210.102" width="146" height="22" y="451.4" clip-path="url(#clipPath2)"/>
      <text x="198.4828" font-size="14px" y="442.67" clip-path="url(#clipPath2)" font-family="'Lato'" stroke="none" xml:space="preserve">Parallel part with two CPUs</text>
    </g>
    <g fill="rgb(153,204,255)" text-rendering="geometricPrecision" shape-rendering="geometricPrecision" transform="matrix(1,0,0,1,-47,8)" stroke="rgb(153,204,255)">
      <rect x="210.102" width="146" height="22" y="473.4" clip-path="url(#clipPath2)" stroke="none"/>
    </g>
    <g text-rendering="geometricPrecision" stroke-miterlimit="1.45" shape-rendering="geometricPrecision" transform="matrix(1,0,0,1,-47,8)" stroke-linecap="butt">
      <rect fill="none" x="210.102" width="146" height="22" y="473.4" clip-path="url(#clipPath2)"/>
      <path fill="none" d="M100.102 87.2 L494.502 87.2" clip-path="url(#clipPath2)"/>
      <path d="M502.502 87.2 L490.502 82.2 L493.502 87.2 L490.502 92.2 Z" clip-path="url(#clipPath2)" stroke="none"/>
      <text x="283.9558" font-size="14px" y="122.0467" clip-path="url(#clipPath2)" font-family="sans-serif" stroke="none" xml:space="preserve">Time</text>
      <path fill="none" stroke-dasharray="6,2" d="M455.502 170.8 L505.6219 170.8" clip-path="url(#clipPath2)"/>
      <path stroke-dasharray="6,2" d="M447.502 170.8 L459.502 175.8 L456.502 170.8 L459.502 165.8 Z" clip-path="url(#clipPath2)" stroke="none"/>
      <path stroke-dasharray="6,2" d="M513.6219 170.8 L501.6219 165.8 L504.6219 170.8 L501.6219 175.8 Z" clip-path="url(#clipPath2)" stroke="none"/>
      <text x="442.0216" font-size="14px" y="234.4467" clip-path="url(#clipPath2)" font-family="sans-serif" stroke="none" xml:space="preserve">Time saved</text>
      <path fill="none" d="M100.102 378.8 L494.102 378.8" clip-path="url(#clipPath2)"/>
      <path d="M502.102 378.8 L490.102 373.8 L493.102 378.8 L490.102 383.8 Z" clip-path="url(#clipPath2)" stroke="none"/>
      <text x="283.7558" font-size="14px" y="413.6467" clip-path="url(#clipPath2)" font-family="sans-serif" stroke="none" xml:space="preserve">Time</text>
      <path fill="none" stroke-dasharray="6,2" d="M364.102 462.4 L494.102 462.4" clip-path="url(#clipPath2)"/>
      <path stroke-dasharray="6,2" d="M356.102 462.4 L368.102 467.4 L365.102 462.4 L368.102 457.4 Z" clip-path="url(#clipPath2)" stroke="none"/>
      <path stroke-dasharray="6,2" d="M502.102 462.4 L490.102 457.4 L493.102 462.4 L490.102 467.4 Z" clip-path="url(#clipPath2)" stroke="none"/>
      <text x="388.7016" font-size="14px" y="501.2467" clip-path="url(#clipPath2)" font-family="sans-serif" stroke="none" xml:space="preserve">Time saved</text>
    </g>
  </g>
</svg>
