<?xml version="1.0" encoding="UTF-8"?><svg xmlns="http://www.w3.org/2000/svg" xmlns:xlink="http://www.w3.org/1999/xlink" fill-opacity="1" color-rendering="auto" color-interpolation="auto" text-rendering="auto" stroke="black" stroke-linecap="square" width="663" stroke-miterlimit="10" shape-rendering="auto" stroke-opacity="1" fill="black" stroke-dasharray="none" font-weight="normal" stroke-width="1" height="304" font-family="'Dialog'" font-style="normal" stroke-linejoin="miter" font-size="12px" stroke-dashoffset="0" image-rendering="auto">
  <!--Generated by ySVG 2.6-->
  <defs id="genericDefs"/>
  <g>
    <defs id="defs1">
      <clipPath clipPathUnits="userSpaceOnUse" id="clipPath1">
        <path d="M0 0 L663 0 L663 304 L0 304 L0 0 Z"/>
      </clipPath>
      <clipPath clipPathUnits="userSpaceOnUse" id="clipPath2">
        <path d="M102 -96 L765 -96 L765 208 L102 208 L102 -96 Z"/>
      </clipPath>
    </defs>
    <g fill="rgb(219,250,244)" text-rendering="geometricPrecision" shape-rendering="geometricPrecision" transform="matrix(1,0,0,1,-102,96)" stroke="rgb(219,250,244)">
      <rect x="117.56" y="-56.04" clip-path="url(#clipPath2)" width="632.36" rx="4" ry="4" height="205.96" stroke="none"/>
    </g>
    <g text-rendering="geometricPrecision" stroke-miterlimit="1.45" shape-rendering="geometricPrecision" transform="matrix(1,0,0,1,-102,96)" stroke-linecap="butt">
      <rect x="117.56" y="-56.04" clip-path="url(#clipPath2)" fill="none" width="632.36" rx="4" ry="4" height="205.96"/>
      <text x="419.0609" y="-68.38" clip-path="url(#clipPath2)" font-family="'Lato'" stroke="none" font-weight="bold" xml:space="preserve">Node</text>
    </g>
    <g fill="rgb(153,204,255)" text-rendering="geometricPrecision" shape-rendering="geometricPrecision" transform="matrix(1,0,0,1,-102,96)" stroke="rgb(153,204,255)">
      <rect x="192.42" width="57" height="22" y="68.4" clip-path="url(#clipPath2)" stroke="none"/>
    </g>
    <g text-rendering="geometricPrecision" stroke-miterlimit="1.45" shape-rendering="geometricPrecision" transform="matrix(1,0,0,1,-102,96)" stroke-linecap="butt">
      <rect fill="none" x="192.42" width="57" height="22" y="68.4" clip-path="url(#clipPath2)"/>
      <text x="208.8959" xml:space="preserve" y="83.06" clip-path="url(#clipPath2)" font-family="'Lato'" stroke="none">CPU</text>
      <text x="175.9392" font-size="16px" y="183.7799" clip-path="url(#clipPath2)" font-family="'Lato'" stroke="none" xml:space="preserve">In GPU programming specialized programs are run in parallel on a GPU</text>
    </g>
    <g fill="rgb(98,180,164)" text-rendering="geometricPrecision" shape-rendering="geometricPrecision" transform="matrix(1,0,0,1,-102,96)" stroke="rgb(98,180,164)">
      <rect x="553.84" width="178.8" height="22" y="8.7" clip-path="url(#clipPath2)" stroke="none"/>
    </g>
    <g text-rendering="geometricPrecision" stroke-miterlimit="1.45" shape-rendering="geometricPrecision" transform="matrix(1,0,0,1,-102,96)" stroke-linecap="butt">
      <rect fill="none" x="553.84" width="178.8" height="22" y="8.7" clip-path="url(#clipPath2)"/>
      <text x="577.6746" xml:space="preserve" y="23.36" clip-path="url(#clipPath2)" font-family="'Lato'" stroke="none">GPU part of the program</text>
    </g>
    <g fill="rgb(153,204,255)" text-rendering="geometricPrecision" shape-rendering="geometricPrecision" transform="matrix(1,0,0,1,-102,96)" stroke="rgb(153,204,255)">
      <rect x="447.08" width="83.24" height="80.24" y="39.28" clip-path="url(#clipPath2)" stroke="none"/>
    </g>
    <g text-rendering="geometricPrecision" stroke-miterlimit="1.45" shape-rendering="geometricPrecision" transform="matrix(1,0,0,1,-102,96)" stroke-linecap="butt">
      <rect fill="none" x="447.08" width="83.24" height="80.24" y="39.28" clip-path="url(#clipPath2)"/>
      <text x="458.2768" xml:space="preserve" y="83.06" clip-path="url(#clipPath2)" font-family="'Lato'" stroke="none">GPU vRAM</text>
    </g>
    <g fill="rgb(38,199,101)" text-rendering="geometricPrecision" shape-rendering="geometricPrecision" transform="matrix(1,0,0,1,-102,96)" stroke="rgb(38,199,101)">
      <rect x="553.84" width="10" height="10" y="55.7" clip-path="url(#clipPath2)" stroke="none"/>
    </g>
    <g text-rendering="geometricPrecision" stroke-miterlimit="1.45" shape-rendering="geometricPrecision" transform="matrix(1,0,0,1,-102,96)" stroke-linecap="butt">
      <rect fill="none" x="553.84" width="10" height="10" y="55.7" clip-path="url(#clipPath2)"/>
    </g>
    <g fill="rgb(38,199,101)" text-rendering="geometricPrecision" shape-rendering="geometricPrecision" transform="matrix(1,0,0,1,-102,96)" stroke="rgb(38,199,101)">
      <rect x="570.72" width="10" height="10" y="55.7" clip-path="url(#clipPath2)" stroke="none"/>
    </g>
    <g text-rendering="geometricPrecision" stroke-miterlimit="1.45" shape-rendering="geometricPrecision" transform="matrix(1,0,0,1,-102,96)" stroke-linecap="butt">
      <rect fill="none" x="570.72" width="10" height="10" y="55.7" clip-path="url(#clipPath2)"/>
    </g>
    <g fill="rgb(38,199,101)" text-rendering="geometricPrecision" shape-rendering="geometricPrecision" transform="matrix(1,0,0,1,-102,96)" stroke="rgb(38,199,101)">
      <rect x="587.6" width="10" height="10" y="55.7" clip-path="url(#clipPath2)" stroke="none"/>
    </g>
    <g text-rendering="geometricPrecision" stroke-miterlimit="1.45" shape-rendering="geometricPrecision" transform="matrix(1,0,0,1,-102,96)" stroke-linecap="butt">
      <rect fill="none" x="587.6" width="10" height="10" y="55.7" clip-path="url(#clipPath2)"/>
    </g>
    <g fill="rgb(38,199,101)" text-rendering="geometricPrecision" shape-rendering="geometricPrecision" transform="matrix(1,0,0,1,-102,96)" stroke="rgb(38,199,101)">
      <rect x="604.48" width="10" height="10" y="55.7" clip-path="url(#clipPath2)" stroke="none"/>
    </g>
    <g text-rendering="geometricPrecision" stroke-miterlimit="1.45" shape-rendering="geometricPrecision" transform="matrix(1,0,0,1,-102,96)" stroke-linecap="butt">
      <rect fill="none" x="604.48" width="10" height="10" y="55.7" clip-path="url(#clipPath2)"/>
    </g>
    <g fill="rgb(38,199,101)" text-rendering="geometricPrecision" shape-rendering="geometricPrecision" transform="matrix(1,0,0,1,-102,96)" stroke="rgb(38,199,101)">
      <rect x="621.36" width="10" height="10" y="55.7" clip-path="url(#clipPath2)" stroke="none"/>
    </g>
    <g text-rendering="geometricPrecision" stroke-miterlimit="1.45" shape-rendering="geometricPrecision" transform="matrix(1,0,0,1,-102,96)" stroke-linecap="butt">
      <rect fill="none" x="621.36" width="10" height="10" y="55.7" clip-path="url(#clipPath2)"/>
    </g>
    <g fill="rgb(38,199,101)" text-rendering="geometricPrecision" shape-rendering="geometricPrecision" transform="matrix(1,0,0,1,-102,96)" stroke="rgb(38,199,101)">
      <rect x="638.24" width="10" height="10" y="55.7" clip-path="url(#clipPath2)" stroke="none"/>
    </g>
    <g text-rendering="geometricPrecision" stroke-miterlimit="1.45" shape-rendering="geometricPrecision" transform="matrix(1,0,0,1,-102,96)" stroke-linecap="butt">
      <rect fill="none" x="638.24" width="10" height="10" y="55.7" clip-path="url(#clipPath2)"/>
    </g>
    <g fill="rgb(38,199,101)" text-rendering="geometricPrecision" shape-rendering="geometricPrecision" transform="matrix(1,0,0,1,-102,96)" stroke="rgb(38,199,101)">
      <rect x="655.12" width="10" height="10" y="55.7" clip-path="url(#clipPath2)" stroke="none"/>
    </g>
    <g text-rendering="geometricPrecision" stroke-miterlimit="1.45" shape-rendering="geometricPrecision" transform="matrix(1,0,0,1,-102,96)" stroke-linecap="butt">
      <rect fill="none" x="655.12" width="10" height="10" y="55.7" clip-path="url(#clipPath2)"/>
    </g>
    <g fill="rgb(38,199,101)" text-rendering="geometricPrecision" shape-rendering="geometricPrecision" transform="matrix(1,0,0,1,-102,96)" stroke="rgb(38,199,101)">
      <rect x="672" width="10" height="10" y="55.7" clip-path="url(#clipPath2)" stroke="none"/>
    </g>
    <g text-rendering="geometricPrecision" stroke-miterlimit="1.45" shape-rendering="geometricPrecision" transform="matrix(1,0,0,1,-102,96)" stroke-linecap="butt">
      <rect fill="none" x="672" width="10" height="10" y="55.7" clip-path="url(#clipPath2)"/>
    </g>
    <g fill="rgb(38,199,101)" text-rendering="geometricPrecision" shape-rendering="geometricPrecision" transform="matrix(1,0,0,1,-102,96)" stroke="rgb(38,199,101)">
      <rect x="688.88" width="10" height="10" y="55.7" clip-path="url(#clipPath2)" stroke="none"/>
    </g>
    <g text-rendering="geometricPrecision" stroke-miterlimit="1.45" shape-rendering="geometricPrecision" transform="matrix(1,0,0,1,-102,96)" stroke-linecap="butt">
      <rect fill="none" x="688.88" width="10" height="10" y="55.7" clip-path="url(#clipPath2)"/>
    </g>
    <g fill="rgb(38,199,101)" text-rendering="geometricPrecision" shape-rendering="geometricPrecision" transform="matrix(1,0,0,1,-102,96)" stroke="rgb(38,199,101)">
      <rect x="705.76" width="10" height="10" y="55.7" clip-path="url(#clipPath2)" stroke="none"/>
    </g>
    <g text-rendering="geometricPrecision" stroke-miterlimit="1.45" shape-rendering="geometricPrecision" transform="matrix(1,0,0,1,-102,96)" stroke-linecap="butt">
      <rect fill="none" x="705.76" width="10" height="10" y="55.7" clip-path="url(#clipPath2)"/>
    </g>
    <g fill="rgb(38,199,101)" text-rendering="geometricPrecision" shape-rendering="geometricPrecision" transform="matrix(1,0,0,1,-102,96)" stroke="rgb(38,199,101)">
      <rect x="553.84" width="10" height="10" y="74.4" clip-path="url(#clipPath2)" stroke="none"/>
    </g>
    <g text-rendering="geometricPrecision" stroke-miterlimit="1.45" shape-rendering="geometricPrecision" transform="matrix(1,0,0,1,-102,96)" stroke-linecap="butt">
      <rect fill="none" x="553.84" width="10" height="10" y="74.4" clip-path="url(#clipPath2)"/>
    </g>
    <g fill="rgb(38,199,101)" text-rendering="geometricPrecision" shape-rendering="geometricPrecision" transform="matrix(1,0,0,1,-102,96)" stroke="rgb(38,199,101)">
      <rect x="570.72" width="10" height="10" y="74.4" clip-path="url(#clipPath2)" stroke="none"/>
    </g>
    <g text-rendering="geometricPrecision" stroke-miterlimit="1.45" shape-rendering="geometricPrecision" transform="matrix(1,0,0,1,-102,96)" stroke-linecap="butt">
      <rect fill="none" x="570.72" width="10" height="10" y="74.4" clip-path="url(#clipPath2)"/>
    </g>
    <g fill="rgb(38,199,101)" text-rendering="geometricPrecision" shape-rendering="geometricPrecision" transform="matrix(1,0,0,1,-102,96)" stroke="rgb(38,199,101)">
      <rect x="587.6" width="10" height="10" y="74.4" clip-path="url(#clipPath2)" stroke="none"/>
    </g>
    <g text-rendering="geometricPrecision" stroke-miterlimit="1.45" shape-rendering="geometricPrecision" transform="matrix(1,0,0,1,-102,96)" stroke-linecap="butt">
      <rect fill="none" x="587.6" width="10" height="10" y="74.4" clip-path="url(#clipPath2)"/>
    </g>
    <g fill="rgb(38,199,101)" text-rendering="geometricPrecision" shape-rendering="geometricPrecision" transform="matrix(1,0,0,1,-102,96)" stroke="rgb(38,199,101)">
      <rect x="604.48" width="10" height="10" y="74.4" clip-path="url(#clipPath2)" stroke="none"/>
    </g>
    <g text-rendering="geometricPrecision" stroke-miterlimit="1.45" shape-rendering="geometricPrecision" transform="matrix(1,0,0,1,-102,96)" stroke-linecap="butt">
      <rect fill="none" x="604.48" width="10" height="10" y="74.4" clip-path="url(#clipPath2)"/>
    </g>
    <g fill="rgb(38,199,101)" text-rendering="geometricPrecision" shape-rendering="geometricPrecision" transform="matrix(1,0,0,1,-102,96)" stroke="rgb(38,199,101)">
      <rect x="621.36" width="10" height="10" y="74.4" clip-path="url(#clipPath2)" stroke="none"/>
    </g>
    <g text-rendering="geometricPrecision" stroke-miterlimit="1.45" shape-rendering="geometricPrecision" transform="matrix(1,0,0,1,-102,96)" stroke-linecap="butt">
      <rect fill="none" x="621.36" width="10" height="10" y="74.4" clip-path="url(#clipPath2)"/>
    </g>
    <g fill="rgb(38,199,101)" text-rendering="geometricPrecision" shape-rendering="geometricPrecision" transform="matrix(1,0,0,1,-102,96)" stroke="rgb(38,199,101)">
      <rect x="638.24" width="10" height="10" y="74.4" clip-path="url(#clipPath2)" stroke="none"/>
    </g>
    <g text-rendering="geometricPrecision" stroke-miterlimit="1.45" shape-rendering="geometricPrecision" transform="matrix(1,0,0,1,-102,96)" stroke-linecap="butt">
      <rect fill="none" x="638.24" width="10" height="10" y="74.4" clip-path="url(#clipPath2)"/>
    </g>
    <g fill="rgb(38,199,101)" text-rendering="geometricPrecision" shape-rendering="geometricPrecision" transform="matrix(1,0,0,1,-102,96)" stroke="rgb(38,199,101)">
      <rect x="655.12" width="10" height="10" y="74.4" clip-path="url(#clipPath2)" stroke="none"/>
    </g>
    <g text-rendering="geometricPrecision" stroke-miterlimit="1.45" shape-rendering="geometricPrecision" transform="matrix(1,0,0,1,-102,96)" stroke-linecap="butt">
      <rect fill="none" x="655.12" width="10" height="10" y="74.4" clip-path="url(#clipPath2)"/>
    </g>
    <g fill="rgb(38,199,101)" text-rendering="geometricPrecision" shape-rendering="geometricPrecision" transform="matrix(1,0,0,1,-102,96)" stroke="rgb(38,199,101)">
      <rect x="722.64" width="10" height="10" y="55.7" clip-path="url(#clipPath2)" stroke="none"/>
    </g>
    <g text-rendering="geometricPrecision" stroke-miterlimit="1.45" shape-rendering="geometricPrecision" transform="matrix(1,0,0,1,-102,96)" stroke-linecap="butt">
      <rect fill="none" x="722.64" width="10" height="10" y="55.7" clip-path="url(#clipPath2)"/>
    </g>
    <g fill="rgb(38,199,101)" text-rendering="geometricPrecision" shape-rendering="geometricPrecision" transform="matrix(1,0,0,1,-102,96)" stroke="rgb(38,199,101)">
      <rect x="672" width="10" height="10" y="74.4" clip-path="url(#clipPath2)" stroke="none"/>
    </g>
    <g text-rendering="geometricPrecision" stroke-miterlimit="1.45" shape-rendering="geometricPrecision" transform="matrix(1,0,0,1,-102,96)" stroke-linecap="butt">
      <rect fill="none" x="672" width="10" height="10" y="74.4" clip-path="url(#clipPath2)"/>
    </g>
    <g fill="rgb(38,199,101)" text-rendering="geometricPrecision" shape-rendering="geometricPrecision" transform="matrix(1,0,0,1,-102,96)" stroke="rgb(38,199,101)">
      <rect x="688.88" width="10" height="10" y="74.4" clip-path="url(#clipPath2)" stroke="none"/>
    </g>
    <g text-rendering="geometricPrecision" stroke-miterlimit="1.45" shape-rendering="geometricPrecision" transform="matrix(1,0,0,1,-102,96)" stroke-linecap="butt">
      <rect fill="none" x="688.88" width="10" height="10" y="74.4" clip-path="url(#clipPath2)"/>
    </g>
    <g fill="rgb(38,199,101)" text-rendering="geometricPrecision" shape-rendering="geometricPrecision" transform="matrix(1,0,0,1,-102,96)" stroke="rgb(38,199,101)">
      <rect x="705.76" width="10" height="10" y="74.4" clip-path="url(#clipPath2)" stroke="none"/>
    </g>
    <g text-rendering="geometricPrecision" stroke-miterlimit="1.45" shape-rendering="geometricPrecision" transform="matrix(1,0,0,1,-102,96)" stroke-linecap="butt">
      <rect fill="none" x="705.76" width="10" height="10" y="74.4" clip-path="url(#clipPath2)"/>
    </g>
    <g fill="rgb(38,199,101)" text-rendering="geometricPrecision" shape-rendering="geometricPrecision" transform="matrix(1,0,0,1,-102,96)" stroke="rgb(38,199,101)">
      <rect x="722.64" width="10" height="10" y="74.4" clip-path="url(#clipPath2)" stroke="none"/>
    </g>
    <g text-rendering="geometricPrecision" stroke-miterlimit="1.45" shape-rendering="geometricPrecision" transform="matrix(1,0,0,1,-102,96)" stroke-linecap="butt">
      <rect fill="none" x="722.64" width="10" height="10" y="74.4" clip-path="url(#clipPath2)"/>
    </g>
    <g fill="rgb(98,180,164)" text-rendering="geometricPrecision" shape-rendering="geometricPrecision" transform="matrix(1,0,0,1,-102,96)" stroke="rgb(98,180,164)">
      <rect x="131.52" width="178.8" height="22" y="8.7" clip-path="url(#clipPath2)" stroke="none"/>
    </g>
    <g text-rendering="geometricPrecision" stroke-miterlimit="1.45" shape-rendering="geometricPrecision" transform="matrix(1,0,0,1,-102,96)" stroke-linecap="butt">
      <rect fill="none" x="131.52" width="178.8" height="22" y="8.7" clip-path="url(#clipPath2)"/>
      <text x="155.7296" xml:space="preserve" y="23.36" clip-path="url(#clipPath2)" font-family="'Lato'" stroke="none">CPU part of the program</text>
    </g>
    <g fill="rgb(38,199,101)" text-rendering="geometricPrecision" shape-rendering="geometricPrecision" transform="matrix(1,0,0,1,-102,96)" stroke="rgb(38,199,101)">
      <rect x="553.84" width="10" height="10" y="93.1" clip-path="url(#clipPath2)" stroke="none"/>
    </g>
    <g text-rendering="geometricPrecision" stroke-miterlimit="1.45" shape-rendering="geometricPrecision" transform="matrix(1,0,0,1,-102,96)" stroke-linecap="butt">
      <rect fill="none" x="553.84" width="10" height="10" y="93.1" clip-path="url(#clipPath2)"/>
    </g>
    <g fill="rgb(38,199,101)" text-rendering="geometricPrecision" shape-rendering="geometricPrecision" transform="matrix(1,0,0,1,-102,96)" stroke="rgb(38,199,101)">
      <rect x="570.72" width="10" height="10" y="93.1" clip-path="url(#clipPath2)" stroke="none"/>
    </g>
    <g text-rendering="geometricPrecision" stroke-miterlimit="1.45" shape-rendering="geometricPrecision" transform="matrix(1,0,0,1,-102,96)" stroke-linecap="butt">
      <rect fill="none" x="570.72" width="10" height="10" y="93.1" clip-path="url(#clipPath2)"/>
    </g>
    <g fill="rgb(38,199,101)" text-rendering="geometricPrecision" shape-rendering="geometricPrecision" transform="matrix(1,0,0,1,-102,96)" stroke="rgb(38,199,101)">
      <rect x="587.6" width="10" height="10" y="93.1" clip-path="url(#clipPath2)" stroke="none"/>
    </g>
    <g text-rendering="geometricPrecision" stroke-miterlimit="1.45" shape-rendering="geometricPrecision" transform="matrix(1,0,0,1,-102,96)" stroke-linecap="butt">
      <rect fill="none" x="587.6" width="10" height="10" y="93.1" clip-path="url(#clipPath2)"/>
    </g>
    <g fill="rgb(38,199,101)" text-rendering="geometricPrecision" shape-rendering="geometricPrecision" transform="matrix(1,0,0,1,-102,96)" stroke="rgb(38,199,101)">
      <rect x="604.48" width="10" height="10" y="93.1" clip-path="url(#clipPath2)" stroke="none"/>
    </g>
    <g text-rendering="geometricPrecision" stroke-miterlimit="1.45" shape-rendering="geometricPrecision" transform="matrix(1,0,0,1,-102,96)" stroke-linecap="butt">
      <rect fill="none" x="604.48" width="10" height="10" y="93.1" clip-path="url(#clipPath2)"/>
    </g>
    <g fill="rgb(38,199,101)" text-rendering="geometricPrecision" shape-rendering="geometricPrecision" transform="matrix(1,0,0,1,-102,96)" stroke="rgb(38,199,101)">
      <rect x="621.36" width="10" height="10" y="93.1" clip-path="url(#clipPath2)" stroke="none"/>
    </g>
    <g text-rendering="geometricPrecision" stroke-miterlimit="1.45" shape-rendering="geometricPrecision" transform="matrix(1,0,0,1,-102,96)" stroke-linecap="butt">
      <rect fill="none" x="621.36" width="10" height="10" y="93.1" clip-path="url(#clipPath2)"/>
    </g>
    <g fill="rgb(38,199,101)" text-rendering="geometricPrecision" shape-rendering="geometricPrecision" transform="matrix(1,0,0,1,-102,96)" stroke="rgb(38,199,101)">
      <rect x="638.24" width="10" height="10" y="93.1" clip-path="url(#clipPath2)" stroke="none"/>
    </g>
    <g text-rendering="geometricPrecision" stroke-miterlimit="1.45" shape-rendering="geometricPrecision" transform="matrix(1,0,0,1,-102,96)" stroke-linecap="butt">
      <rect fill="none" x="638.24" width="10" height="10" y="93.1" clip-path="url(#clipPath2)"/>
    </g>
    <g fill="rgb(38,199,101)" text-rendering="geometricPrecision" shape-rendering="geometricPrecision" transform="matrix(1,0,0,1,-102,96)" stroke="rgb(38,199,101)">
      <rect x="655.12" width="10" height="10" y="93.1" clip-path="url(#clipPath2)" stroke="none"/>
    </g>
    <g text-rendering="geometricPrecision" stroke-miterlimit="1.45" shape-rendering="geometricPrecision" transform="matrix(1,0,0,1,-102,96)" stroke-linecap="butt">
      <rect fill="none" x="655.12" width="10" height="10" y="93.1" clip-path="url(#clipPath2)"/>
    </g>
    <g fill="rgb(38,199,101)" text-rendering="geometricPrecision" shape-rendering="geometricPrecision" transform="matrix(1,0,0,1,-102,96)" stroke="rgb(38,199,101)">
      <rect x="672" width="10" height="10" y="93.1" clip-path="url(#clipPath2)" stroke="none"/>
    </g>
    <g text-rendering="geometricPrecision" stroke-miterlimit="1.45" shape-rendering="geometricPrecision" transform="matrix(1,0,0,1,-102,96)" stroke-linecap="butt">
      <rect fill="none" x="672" width="10" height="10" y="93.1" clip-path="url(#clipPath2)"/>
    </g>
    <g fill="rgb(38,199,101)" text-rendering="geometricPrecision" shape-rendering="geometricPrecision" transform="matrix(1,0,0,1,-102,96)" stroke="rgb(38,199,101)">
      <rect x="688.88" width="10" height="10" y="93.1" clip-path="url(#clipPath2)" stroke="none"/>
    </g>
    <g text-rendering="geometricPrecision" stroke-miterlimit="1.45" shape-rendering="geometricPrecision" transform="matrix(1,0,0,1,-102,96)" stroke-linecap="butt">
      <rect fill="none" x="688.88" width="10" height="10" y="93.1" clip-path="url(#clipPath2)"/>
    </g>
    <g fill="rgb(38,199,101)" text-rendering="geometricPrecision" shape-rendering="geometricPrecision" transform="matrix(1,0,0,1,-102,96)" stroke="rgb(38,199,101)">
      <rect x="705.76" width="10" height="10" y="93.1" clip-path="url(#clipPath2)" stroke="none"/>
    </g>
    <g text-rendering="geometricPrecision" stroke-miterlimit="1.45" shape-rendering="geometricPrecision" transform="matrix(1,0,0,1,-102,96)" stroke-linecap="butt">
      <rect fill="none" x="705.76" width="10" height="10" y="93.1" clip-path="url(#clipPath2)"/>
    </g>
    <g fill="rgb(38,199,101)" text-rendering="geometricPrecision" shape-rendering="geometricPrecision" transform="matrix(1,0,0,1,-102,96)" stroke="rgb(38,199,101)">
      <rect x="722.64" width="10" height="10" y="93.1" clip-path="url(#clipPath2)" stroke="none"/>
    </g>
    <g text-rendering="geometricPrecision" stroke-miterlimit="1.45" shape-rendering="geometricPrecision" transform="matrix(1,0,0,1,-102,96)" stroke-linecap="butt">
      <rect fill="none" x="722.64" width="10" height="10" y="93.1" clip-path="url(#clipPath2)"/>
    </g>
    <g fill="rgb(153,204,255)" text-rendering="geometricPrecision" shape-rendering="geometricPrecision" transform="matrix(1,0,0,1,-102,96)" stroke="rgb(153,204,255)">
      <rect x="340.32" width="83.24" height="80.24" y="39.28" clip-path="url(#clipPath2)" stroke="none"/>
    </g>
    <g text-rendering="geometricPrecision" stroke-miterlimit="1.45" shape-rendering="geometricPrecision" transform="matrix(1,0,0,1,-102,96)" stroke-linecap="butt">
      <rect fill="none" x="340.32" width="83.24" height="80.24" y="39.28" clip-path="url(#clipPath2)"/>
      <text x="368.5479" xml:space="preserve" y="83.06" clip-path="url(#clipPath2)" font-family="'Lato'" stroke="none">RAM</text>
      <text x="615.0878" xml:space="preserve" y="131.46" clip-path="url(#clipPath2)" font-family="'Lato'" stroke="none">GPU cores</text>
    </g>
    <g fill="rgb(18,130,108)" text-rendering="geometricPrecision" shape-rendering="geometricPrecision" transform="matrix(1,0,0,1,-102,96)" stroke="rgb(18,130,108)">
      <rect x="131.52" width="601.12" height="22" y="-36.64" clip-path="url(#clipPath2)" stroke="none"/>
    </g>
    <g text-rendering="geometricPrecision" stroke-miterlimit="1.45" shape-rendering="geometricPrecision" transform="matrix(1,0,0,1,-102,96)" stroke-linecap="butt">
      <rect fill="none" x="131.52" width="601.12" height="22" y="-36.64" clip-path="url(#clipPath2)"/>
      <text x="409.6698" y="-21.98" clip-path="url(#clipPath2)" fill="white" font-family="'Lato'" stroke="none" xml:space="preserve">Program</text>
      <path fill="none" stroke-dasharray="12,4" d="M643.24 30.7 L643.24 55.7" stroke-width="2" clip-path="url(#clipPath2)"/>
      <path fill="none" stroke-dasharray="12,4" d="M530.32 79.4 L553.84 79.4" stroke-width="2" clip-path="url(#clipPath2)"/>
      <path fill="none" stroke-dasharray="12,4" d="M220.92 30.7 L220.92 68.4" stroke-width="2" clip-path="url(#clipPath2)"/>
      <path fill="none" stroke-dasharray="12,4" d="M249.42 79.4 L340.32 79.4" stroke-width="2" clip-path="url(#clipPath2)"/>
      <path fill="none" stroke-dasharray="12,4" d="M423.56 79.4 L447.08 79.4" stroke-width="2" clip-path="url(#clipPath2)"/>
      <path fill="none" d="M220.92 -14.6482 L220.92 8.7" clip-path="url(#clipPath2)"/>
      <path fill="none" d="M643.24 -14.661 L643.24 8.7" clip-path="url(#clipPath2)"/>
    </g>
  </g>
</svg>
