<?xml version="1.0" encoding="UTF-8"?><svg xmlns="http://www.w3.org/2000/svg" xmlns:xlink="http://www.w3.org/1999/xlink" fill-opacity="1" color-rendering="auto" color-interpolation="auto" text-rendering="auto" stroke="black" stroke-linecap="square" width="563" stroke-miterlimit="10" shape-rendering="auto" stroke-opacity="1" fill="black" stroke-dasharray="none" font-weight="normal" stroke-width="1" height="277" font-family="'Dialog'" font-style="normal" stroke-linejoin="miter" font-size="12px" stroke-dashoffset="0" image-rendering="auto">
  <!--Generated by ySVG 2.6-->
  <defs id="genericDefs"/>
  <g>
    <defs id="defs1">
      <clipPath clipPathUnits="userSpaceOnUse" id="clipPath1">
        <path d="M0 0 L563 0 L563 277 L0 277 L0 0 Z"/>
      </clipPath>
      <clipPath clipPathUnits="userSpaceOnUse" id="clipPath2">
        <path d="M142 -69 L705 -69 L705 208 L142 208 L142 -69 Z"/>
      </clipPath>
    </defs>
    <g fill="rgb(219,250,244)" text-rendering="geometricPrecision" shape-rendering="geometricPrecision" transform="matrix(1,0,0,1,-142,69)" stroke="rgb(219,250,244)">
      <rect x="183.84" y="-29.6403" clip-path="url(#clipPath2)" width="478.12" rx="4" ry="4" height="179.72" stroke="none"/>
    </g>
    <g text-rendering="geometricPrecision" stroke-miterlimit="1.45" shape-rendering="geometricPrecision" transform="matrix(1,0,0,1,-142,69)" stroke-linecap="butt">
      <rect x="183.84" y="-29.6403" clip-path="url(#clipPath2)" fill="none" width="478.12" rx="4" ry="4" height="179.72"/>
      <text x="408.2209" y="-41.9803" clip-path="url(#clipPath2)" font-family="'Lato'" stroke="none" font-weight="bold" xml:space="preserve">Node</text>
    </g>
    <g fill="rgb(18,130,108)" text-rendering="geometricPrecision" shape-rendering="geometricPrecision" transform="matrix(1,0,0,1,-142,69)" stroke="rgb(18,130,108)">
      <rect x="266" width="315" height="22" y="-16" clip-path="url(#clipPath2)" stroke="none"/>
    </g>
    <g text-rendering="geometricPrecision" stroke-miterlimit="1.45" shape-rendering="geometricPrecision" transform="matrix(1,0,0,1,-142,69)" stroke-linecap="butt">
      <rect fill="none" x="266" width="315" height="22" y="-16" clip-path="url(#clipPath2)"/>
    </g>
    <g stroke-linecap="butt" font-size="14px" transform="matrix(1,0,0,1,-142,69)" fill="white" text-rendering="geometricPrecision" font-family="'Lato'" shape-rendering="geometricPrecision" stroke="white" stroke-miterlimit="1.45">
      <text x="380.2787" xml:space="preserve" y="-0.73" clip-path="url(#clipPath2)" stroke="none">Main program</text>
    </g>
    <g fill="rgb(98,180,164)" text-rendering="geometricPrecision" shape-rendering="geometricPrecision" transform="matrix(1,0,0,1,-142,69)" stroke="rgb(98,180,164)">
      <rect x="194" width="176" height="22" y="25" clip-path="url(#clipPath2)" stroke="none"/>
    </g>
    <g text-rendering="geometricPrecision" stroke-miterlimit="1.45" shape-rendering="geometricPrecision" transform="matrix(1,0,0,1,-142,69)" stroke-linecap="butt">
      <rect fill="none" x="194" width="176" height="22" y="25" clip-path="url(#clipPath2)"/>
      <text x="251.5498" xml:space="preserve" y="39.66" clip-path="url(#clipPath2)" font-family="'Lato'" stroke="none">Process # 1</text>
    </g>
    <g fill="rgb(98,180,164)" text-rendering="geometricPrecision" shape-rendering="geometricPrecision" transform="matrix(1,0,0,1,-142,69)" stroke="rgb(98,180,164)">
      <rect x="477" width="176" height="22" y="25" clip-path="url(#clipPath2)" stroke="none"/>
    </g>
    <g text-rendering="geometricPrecision" stroke-miterlimit="1.45" shape-rendering="geometricPrecision" transform="matrix(1,0,0,1,-142,69)" stroke-linecap="butt">
      <rect fill="none" x="477" width="176" height="22" y="25" clip-path="url(#clipPath2)"/>
      <text x="534.5498" xml:space="preserve" y="39.66" clip-path="url(#clipPath2)" font-family="'Lato'" stroke="none">Process # 3</text>
    </g>
    <g fill="rgb(98,180,164)" text-rendering="geometricPrecision" shape-rendering="geometricPrecision" transform="matrix(1,0,0,1,-142,69)" stroke="rgb(98,180,164)">
      <rect x="194" width="176" height="22" y="84" clip-path="url(#clipPath2)" stroke="none"/>
    </g>
    <g text-rendering="geometricPrecision" stroke-miterlimit="1.45" shape-rendering="geometricPrecision" transform="matrix(1,0,0,1,-142,69)" stroke-linecap="butt">
      <rect fill="none" x="194" width="176" height="22" y="84" clip-path="url(#clipPath2)"/>
      <text x="251.5498" xml:space="preserve" y="98.66" clip-path="url(#clipPath2)" font-family="'Lato'" stroke="none">Process # 2</text>
    </g>
    <g fill="rgb(98,180,164)" text-rendering="geometricPrecision" shape-rendering="geometricPrecision" transform="matrix(1,0,0,1,-142,69)" stroke="rgb(98,180,164)">
      <rect x="477" width="176" height="22" y="84" clip-path="url(#clipPath2)" stroke="none"/>
    </g>
    <g text-rendering="geometricPrecision" stroke-miterlimit="1.45" shape-rendering="geometricPrecision" transform="matrix(1,0,0,1,-142,69)" stroke-linecap="butt">
      <rect fill="none" x="477" width="176" height="22" y="84" clip-path="url(#clipPath2)"/>
      <text x="534.5498" xml:space="preserve" y="98.66" clip-path="url(#clipPath2)" font-family="'Lato'" stroke="none">Process # 4</text>
    </g>
    <g fill="rgb(153,204,255)" text-rendering="geometricPrecision" shape-rendering="geometricPrecision" transform="matrix(1,0,0,1,-142,69)" stroke="rgb(153,204,255)">
      <rect x="253.5" width="57" height="22" y="54.5" clip-path="url(#clipPath2)" stroke="none"/>
    </g>
    <g text-rendering="geometricPrecision" stroke-miterlimit="1.45" shape-rendering="geometricPrecision" transform="matrix(1,0,0,1,-142,69)" stroke-linecap="butt">
      <rect fill="none" x="253.5" width="57" height="22" y="54.5" clip-path="url(#clipPath2)"/>
      <text x="269.9759" xml:space="preserve" y="69.16" clip-path="url(#clipPath2)" font-family="'Lato'" stroke="none">CPU</text>
    </g>
    <g fill="rgb(153,204,255)" text-rendering="geometricPrecision" shape-rendering="geometricPrecision" transform="matrix(1,0,0,1,-142,69)" stroke="rgb(153,204,255)">
      <rect x="536.5" width="57" height="22" y="54.5" clip-path="url(#clipPath2)" stroke="none"/>
    </g>
    <g text-rendering="geometricPrecision" stroke-miterlimit="1.45" shape-rendering="geometricPrecision" transform="matrix(1,0,0,1,-142,69)" stroke-linecap="butt">
      <rect fill="none" x="536.5" width="57" height="22" y="54.5" clip-path="url(#clipPath2)"/>
      <text x="552.9759" xml:space="preserve" y="69.16" clip-path="url(#clipPath2)" font-family="'Lato'" stroke="none">CPU</text>
    </g>
    <g fill="rgb(153,204,255)" text-rendering="geometricPrecision" shape-rendering="geometricPrecision" transform="matrix(1,0,0,1,-142,69)" stroke="rgb(153,204,255)">
      <rect x="253.5" width="57" height="22" y="113.5" clip-path="url(#clipPath2)" stroke="none"/>
    </g>
    <g text-rendering="geometricPrecision" stroke-miterlimit="1.45" shape-rendering="geometricPrecision" transform="matrix(1,0,0,1,-142,69)" stroke-linecap="butt">
      <rect fill="none" x="253.5" width="57" height="22" y="113.5" clip-path="url(#clipPath2)"/>
      <text x="269.9759" xml:space="preserve" y="128.16" clip-path="url(#clipPath2)" font-family="'Lato'" stroke="none">CPU</text>
    </g>
    <g fill="rgb(153,204,255)" text-rendering="geometricPrecision" shape-rendering="geometricPrecision" transform="matrix(1,0,0,1,-142,69)" stroke="rgb(153,204,255)">
      <rect x="536.5" width="57" height="22" y="113.5" clip-path="url(#clipPath2)" stroke="none"/>
    </g>
    <g text-rendering="geometricPrecision" stroke-miterlimit="1.45" shape-rendering="geometricPrecision" transform="matrix(1,0,0,1,-142,69)" stroke-linecap="butt">
      <rect fill="none" x="536.5" width="57" height="22" y="113.5" clip-path="url(#clipPath2)"/>
      <text x="552.9759" xml:space="preserve" y="128.16" clip-path="url(#clipPath2)" font-family="'Lato'" stroke="none">CPU</text>
      <text x="159.6593" font-size="16px" y="183.7799" clip-path="url(#clipPath2)" font-family="'Lato'" stroke="none" xml:space="preserve">In shared memory parallelism processes communicate through shared RAM</text>
    </g>
    <g fill="rgb(153,204,255)" text-rendering="geometricPrecision" shape-rendering="geometricPrecision" transform="matrix(1,0,0,1,-142,69)" stroke="rgb(153,204,255)">
      <rect x="395" width="57" height="81" y="25" clip-path="url(#clipPath2)" stroke="none"/>
    </g>
    <g text-rendering="geometricPrecision" stroke-miterlimit="1.45" shape-rendering="geometricPrecision" transform="matrix(1,0,0,1,-142,69)" stroke-linecap="butt">
      <rect fill="none" x="395" width="57" height="81" y="25" clip-path="url(#clipPath2)"/>
      <text x="410.1079" xml:space="preserve" y="69.16" clip-path="url(#clipPath2)" font-family="'Lato'" stroke="none">RAM</text>
      <path fill="none" d="M282 47 L282 54.5" clip-path="url(#clipPath2)"/>
      <path fill="none" d="M565 47 L565 54.5" clip-path="url(#clipPath2)"/>
      <path fill="none" d="M282 106 L282 113.5" clip-path="url(#clipPath2)"/>
      <path fill="none" d="M565 106 L565 113.5" clip-path="url(#clipPath2)"/>
      <path fill="none" stroke-dasharray="12,4" d="M370 36 L394.9806 36" stroke-width="2" clip-path="url(#clipPath2)"/>
      <path fill="none" stroke-dasharray="12,4" d="M370 95 L394.9905 95" stroke-width="2" clip-path="url(#clipPath2)"/>
      <path fill="none" stroke-dasharray="12,4" d="M423.5 6 L423.5 25" stroke-width="2" clip-path="url(#clipPath2)"/>
      <path fill="none" stroke-dasharray="12,4" d="M477 95 L451.9512 95" stroke-width="2" clip-path="url(#clipPath2)"/>
      <path fill="none" stroke-dasharray="12,4" d="M451.9878 36 L477 36" stroke-width="2" clip-path="url(#clipPath2)"/>
    </g>
  </g>
</svg>
