<?xml version="1.0" encoding="UTF-8"?><svg xmlns="http://www.w3.org/2000/svg" xmlns:xlink="http://www.w3.org/1999/xlink" fill-opacity="1" color-rendering="auto" color-interpolation="auto" text-rendering="auto" stroke="black" stroke-linecap="square" width="465" stroke-miterlimit="10" shape-rendering="auto" stroke-opacity="1" fill="black" stroke-dasharray="none" font-weight="normal" stroke-width="1" height="507" font-family="'Dialog'" font-style="normal" stroke-linejoin="miter" font-size="12px" stroke-dashoffset="0" image-rendering="auto">
  <!--Generated by ySVG 2.6-->
  <defs id="genericDefs"/>
  <g>
    <defs id="defs1">
      <clipPath clipPathUnits="userSpaceOnUse" id="clipPath1">
        <path d="M0 0 L465 0 L465 507 L0 507 L0 0 Z"/>
      </clipPath>
      <clipPath clipPathUnits="userSpaceOnUse" id="clipPath2">
        <path d="M142 -125 L607 -125 L607 382 L142 382 L142 -125 Z"/>
      </clipPath>
    </defs>
    <g font-size="20px" stroke-linecap="butt" transform="matrix(1,0,0,1,-142,125)" text-rendering="geometricPrecision" font-family="'Lato Medium'" shape-rendering="geometricPrecision" stroke-miterlimit="1.45">
      <text x="200.2305" xml:space="preserve" y="322.1305" clip-path="url(#clipPath2)" stroke="none">The number of permutations scales as n!</text>
    </g>
    <g fill="rgb(153,204,255)" text-rendering="geometricPrecision" shape-rendering="geometricPrecision" transform="matrix(1,0,0,1,-142,125)" stroke="rgb(153,204,255)">
      <circle r="15" clip-path="url(#clipPath2)" cx="245.0858" cy="41.0044" stroke="none"/>
    </g>
    <g text-rendering="geometricPrecision" stroke-miterlimit="1.45" shape-rendering="geometricPrecision" transform="matrix(1,0,0,1,-142,125)" stroke-linecap="butt">
      <circle fill="none" r="15" clip-path="url(#clipPath2)" cx="245.0858" cy="41.0044"/>
      <text x="241.2684" xml:space="preserve" y="45.1586" clip-path="url(#clipPath2)" font-family="sans-serif" stroke="none">1</text>
    </g>
    <g fill="rgb(153,204,255)" text-rendering="geometricPrecision" shape-rendering="geometricPrecision" transform="matrix(1,0,0,1,-142,125)" stroke="rgb(153,204,255)">
      <circle r="15" clip-path="url(#clipPath2)" cx="284.1716" cy="41.0044" stroke="none"/>
    </g>
    <g text-rendering="geometricPrecision" stroke-miterlimit="1.45" shape-rendering="geometricPrecision" transform="matrix(1,0,0,1,-142,125)" stroke-linecap="butt">
      <circle fill="none" r="15" clip-path="url(#clipPath2)" cx="284.1716" cy="41.0044"/>
      <text x="280.3542" xml:space="preserve" y="45.1586" clip-path="url(#clipPath2)" font-family="sans-serif" stroke="none">2</text>
    </g>
    <g fill="rgb(153,204,255)" text-rendering="geometricPrecision" shape-rendering="geometricPrecision" transform="matrix(1,0,0,1,-142,125)" stroke="rgb(153,204,255)">
      <circle r="15" clip-path="url(#clipPath2)" cx="245.0858" cy="81.0087" stroke="none"/>
    </g>
    <g text-rendering="geometricPrecision" stroke-miterlimit="1.45" shape-rendering="geometricPrecision" transform="matrix(1,0,0,1,-142,125)" stroke-linecap="butt">
      <circle fill="none" r="15" clip-path="url(#clipPath2)" cx="245.0858" cy="81.0087"/>
      <text x="241.2684" xml:space="preserve" y="85.163" clip-path="url(#clipPath2)" font-family="sans-serif" stroke="none">2</text>
    </g>
    <g fill="rgb(153,204,255)" text-rendering="geometricPrecision" shape-rendering="geometricPrecision" transform="matrix(1,0,0,1,-142,125)" stroke="rgb(153,204,255)">
      <circle r="15" clip-path="url(#clipPath2)" cx="284.1716" cy="81.0087" stroke="none"/>
    </g>
    <g text-rendering="geometricPrecision" stroke-miterlimit="1.45" shape-rendering="geometricPrecision" transform="matrix(1,0,0,1,-142,125)" stroke-linecap="butt">
      <circle fill="none" r="15" clip-path="url(#clipPath2)" cx="284.1716" cy="81.0087"/>
      <text x="280.3542" xml:space="preserve" y="85.163" clip-path="url(#clipPath2)" font-family="sans-serif" stroke="none">1</text>
    </g>
    <g fill="rgb(153,204,255)" text-rendering="geometricPrecision" shape-rendering="geometricPrecision" transform="matrix(1,0,0,1,-142,125)" stroke="rgb(153,204,255)">
      <circle r="15" clip-path="url(#clipPath2)" cx="445.7145" cy="41.0044" stroke="none"/>
    </g>
    <g text-rendering="geometricPrecision" stroke-miterlimit="1.45" shape-rendering="geometricPrecision" transform="matrix(1,0,0,1,-142,125)" stroke-linecap="butt">
      <circle fill="none" r="15" clip-path="url(#clipPath2)" cx="445.7145" cy="41.0044"/>
      <text x="441.8971" xml:space="preserve" y="45.1586" clip-path="url(#clipPath2)" font-family="sans-serif" stroke="none">1</text>
    </g>
    <g fill="rgb(153,204,255)" text-rendering="geometricPrecision" shape-rendering="geometricPrecision" transform="matrix(1,0,0,1,-142,125)" stroke="rgb(153,204,255)">
      <circle r="15" clip-path="url(#clipPath2)" cx="484.8003" cy="41.0044" stroke="none"/>
    </g>
    <g text-rendering="geometricPrecision" stroke-miterlimit="1.45" shape-rendering="geometricPrecision" transform="matrix(1,0,0,1,-142,125)" stroke-linecap="butt">
      <circle fill="none" r="15" clip-path="url(#clipPath2)" cx="484.8003" cy="41.0044"/>
      <text x="480.9829" xml:space="preserve" y="45.1586" clip-path="url(#clipPath2)" font-family="sans-serif" stroke="none">2</text>
    </g>
    <g fill="rgb(153,204,255)" text-rendering="geometricPrecision" shape-rendering="geometricPrecision" transform="matrix(1,0,0,1,-142,125)" stroke="rgb(153,204,255)">
      <circle r="15" clip-path="url(#clipPath2)" cx="523.8861" cy="41.0044" stroke="none"/>
    </g>
    <g text-rendering="geometricPrecision" stroke-miterlimit="1.45" shape-rendering="geometricPrecision" transform="matrix(1,0,0,1,-142,125)" stroke-linecap="butt">
      <circle fill="none" r="15" clip-path="url(#clipPath2)" cx="523.8861" cy="41.0044"/>
      <text x="520.0687" xml:space="preserve" y="45.1586" clip-path="url(#clipPath2)" font-family="sans-serif" stroke="none">3</text>
    </g>
    <g fill="rgb(153,204,255)" text-rendering="geometricPrecision" shape-rendering="geometricPrecision" transform="matrix(1,0,0,1,-142,125)" stroke="rgb(153,204,255)">
      <circle r="15" clip-path="url(#clipPath2)" cx="445.7145" cy="81.0087" stroke="none"/>
    </g>
    <g text-rendering="geometricPrecision" stroke-miterlimit="1.45" shape-rendering="geometricPrecision" transform="matrix(1,0,0,1,-142,125)" stroke-linecap="butt">
      <circle fill="none" r="15" clip-path="url(#clipPath2)" cx="445.7145" cy="81.0087"/>
      <text x="441.8971" xml:space="preserve" y="85.163" clip-path="url(#clipPath2)" font-family="sans-serif" stroke="none">1</text>
    </g>
    <g fill="rgb(153,204,255)" text-rendering="geometricPrecision" shape-rendering="geometricPrecision" transform="matrix(1,0,0,1,-142,125)" stroke="rgb(153,204,255)">
      <circle r="15" clip-path="url(#clipPath2)" cx="484.8003" cy="81.0087" stroke="none"/>
    </g>
    <g text-rendering="geometricPrecision" stroke-miterlimit="1.45" shape-rendering="geometricPrecision" transform="matrix(1,0,0,1,-142,125)" stroke-linecap="butt">
      <circle fill="none" r="15" clip-path="url(#clipPath2)" cx="484.8003" cy="81.0087"/>
      <text x="480.9829" xml:space="preserve" y="85.163" clip-path="url(#clipPath2)" font-family="sans-serif" stroke="none">3</text>
    </g>
    <g fill="rgb(153,204,255)" text-rendering="geometricPrecision" shape-rendering="geometricPrecision" transform="matrix(1,0,0,1,-142,125)" stroke="rgb(153,204,255)">
      <circle r="15" clip-path="url(#clipPath2)" cx="523.8861" cy="81.0087" stroke="none"/>
    </g>
    <g text-rendering="geometricPrecision" stroke-miterlimit="1.45" shape-rendering="geometricPrecision" transform="matrix(1,0,0,1,-142,125)" stroke-linecap="butt">
      <circle fill="none" r="15" clip-path="url(#clipPath2)" cx="523.8861" cy="81.0087"/>
      <text x="520.0687" xml:space="preserve" y="85.163" clip-path="url(#clipPath2)" font-family="sans-serif" stroke="none">2</text>
    </g>
    <g fill="rgb(153,204,255)" text-rendering="geometricPrecision" shape-rendering="geometricPrecision" transform="matrix(1,0,0,1,-142,125)" stroke="rgb(153,204,255)">
      <circle r="15" clip-path="url(#clipPath2)" cx="445.7145" cy="121.0131" stroke="none"/>
    </g>
    <g text-rendering="geometricPrecision" stroke-miterlimit="1.45" shape-rendering="geometricPrecision" transform="matrix(1,0,0,1,-142,125)" stroke-linecap="butt">
      <circle fill="none" r="15" clip-path="url(#clipPath2)" cx="445.7145" cy="121.0131"/>
      <text x="441.8971" xml:space="preserve" y="125.1674" clip-path="url(#clipPath2)" font-family="sans-serif" stroke="none">2</text>
    </g>
    <g fill="rgb(153,204,255)" text-rendering="geometricPrecision" shape-rendering="geometricPrecision" transform="matrix(1,0,0,1,-142,125)" stroke="rgb(153,204,255)">
      <circle r="15" clip-path="url(#clipPath2)" cx="484.8003" cy="121.0131" stroke="none"/>
    </g>
    <g text-rendering="geometricPrecision" stroke-miterlimit="1.45" shape-rendering="geometricPrecision" transform="matrix(1,0,0,1,-142,125)" stroke-linecap="butt">
      <circle fill="none" r="15" clip-path="url(#clipPath2)" cx="484.8003" cy="121.0131"/>
      <text x="480.9829" xml:space="preserve" y="125.1674" clip-path="url(#clipPath2)" font-family="sans-serif" stroke="none">1</text>
    </g>
    <g fill="rgb(153,204,255)" text-rendering="geometricPrecision" shape-rendering="geometricPrecision" transform="matrix(1,0,0,1,-142,125)" stroke="rgb(153,204,255)">
      <circle r="15" clip-path="url(#clipPath2)" cx="523.8861" cy="121.0131" stroke="none"/>
    </g>
    <g text-rendering="geometricPrecision" stroke-miterlimit="1.45" shape-rendering="geometricPrecision" transform="matrix(1,0,0,1,-142,125)" stroke-linecap="butt">
      <circle fill="none" r="15" clip-path="url(#clipPath2)" cx="523.8861" cy="121.0131"/>
      <text x="520.0687" xml:space="preserve" y="125.1674" clip-path="url(#clipPath2)" font-family="sans-serif" stroke="none">3</text>
    </g>
    <g fill="rgb(153,204,255)" text-rendering="geometricPrecision" shape-rendering="geometricPrecision" transform="matrix(1,0,0,1,-142,125)" stroke="rgb(153,204,255)">
      <circle r="15" clip-path="url(#clipPath2)" cx="445.7145" cy="161.0174" stroke="none"/>
    </g>
    <g text-rendering="geometricPrecision" stroke-miterlimit="1.45" shape-rendering="geometricPrecision" transform="matrix(1,0,0,1,-142,125)" stroke-linecap="butt">
      <circle fill="none" r="15" clip-path="url(#clipPath2)" cx="445.7145" cy="161.0174"/>
      <text x="441.8971" xml:space="preserve" y="165.1717" clip-path="url(#clipPath2)" font-family="sans-serif" stroke="none">2</text>
    </g>
    <g fill="rgb(153,204,255)" text-rendering="geometricPrecision" shape-rendering="geometricPrecision" transform="matrix(1,0,0,1,-142,125)" stroke="rgb(153,204,255)">
      <circle r="15" clip-path="url(#clipPath2)" cx="484.8003" cy="161.0174" stroke="none"/>
    </g>
    <g text-rendering="geometricPrecision" stroke-miterlimit="1.45" shape-rendering="geometricPrecision" transform="matrix(1,0,0,1,-142,125)" stroke-linecap="butt">
      <circle fill="none" r="15" clip-path="url(#clipPath2)" cx="484.8003" cy="161.0174"/>
      <text x="480.9829" xml:space="preserve" y="165.1717" clip-path="url(#clipPath2)" font-family="sans-serif" stroke="none">3</text>
    </g>
    <g fill="rgb(153,204,255)" text-rendering="geometricPrecision" shape-rendering="geometricPrecision" transform="matrix(1,0,0,1,-142,125)" stroke="rgb(153,204,255)">
      <circle r="15" clip-path="url(#clipPath2)" cx="523.8861" cy="161.0174" stroke="none"/>
    </g>
    <g text-rendering="geometricPrecision" stroke-miterlimit="1.45" shape-rendering="geometricPrecision" transform="matrix(1,0,0,1,-142,125)" stroke-linecap="butt">
      <circle fill="none" r="15" clip-path="url(#clipPath2)" cx="523.8861" cy="161.0174"/>
      <text x="520.0687" xml:space="preserve" y="165.1717" clip-path="url(#clipPath2)" font-family="sans-serif" stroke="none">1</text>
    </g>
    <g fill="rgb(153,204,255)" text-rendering="geometricPrecision" shape-rendering="geometricPrecision" transform="matrix(1,0,0,1,-142,125)" stroke="rgb(153,204,255)">
      <circle r="15" clip-path="url(#clipPath2)" cx="445.7145" cy="201.0218" stroke="none"/>
    </g>
    <g text-rendering="geometricPrecision" stroke-miterlimit="1.45" shape-rendering="geometricPrecision" transform="matrix(1,0,0,1,-142,125)" stroke-linecap="butt">
      <circle fill="none" r="15" clip-path="url(#clipPath2)" cx="445.7145" cy="201.0218"/>
      <text x="441.8971" xml:space="preserve" y="205.1761" clip-path="url(#clipPath2)" font-family="sans-serif" stroke="none">3</text>
    </g>
    <g fill="rgb(153,204,255)" text-rendering="geometricPrecision" shape-rendering="geometricPrecision" transform="matrix(1,0,0,1,-142,125)" stroke="rgb(153,204,255)">
      <circle r="15" clip-path="url(#clipPath2)" cx="484.8003" cy="201.0218" stroke="none"/>
    </g>
    <g text-rendering="geometricPrecision" stroke-miterlimit="1.45" shape-rendering="geometricPrecision" transform="matrix(1,0,0,1,-142,125)" stroke-linecap="butt">
      <circle fill="none" r="15" clip-path="url(#clipPath2)" cx="484.8003" cy="201.0218"/>
      <text x="480.9829" xml:space="preserve" y="205.1761" clip-path="url(#clipPath2)" font-family="sans-serif" stroke="none">1</text>
    </g>
    <g fill="rgb(153,204,255)" text-rendering="geometricPrecision" shape-rendering="geometricPrecision" transform="matrix(1,0,0,1,-142,125)" stroke="rgb(153,204,255)">
      <circle r="15" clip-path="url(#clipPath2)" cx="523.8861" cy="201.0218" stroke="none"/>
    </g>
    <g text-rendering="geometricPrecision" stroke-miterlimit="1.45" shape-rendering="geometricPrecision" transform="matrix(1,0,0,1,-142,125)" stroke-linecap="butt">
      <circle fill="none" r="15" clip-path="url(#clipPath2)" cx="523.8861" cy="201.0218"/>
      <text x="520.0687" xml:space="preserve" y="205.1761" clip-path="url(#clipPath2)" font-family="sans-serif" stroke="none">2</text>
    </g>
    <g fill="rgb(153,204,255)" text-rendering="geometricPrecision" shape-rendering="geometricPrecision" transform="matrix(1,0,0,1,-142,125)" stroke="rgb(153,204,255)">
      <circle r="15" clip-path="url(#clipPath2)" cx="445.7145" cy="241.0261" stroke="none"/>
    </g>
    <g text-rendering="geometricPrecision" stroke-miterlimit="1.45" shape-rendering="geometricPrecision" transform="matrix(1,0,0,1,-142,125)" stroke-linecap="butt">
      <circle fill="none" r="15" clip-path="url(#clipPath2)" cx="445.7145" cy="241.0261"/>
      <text x="441.8971" xml:space="preserve" y="245.1804" clip-path="url(#clipPath2)" font-family="sans-serif" stroke="none">3</text>
    </g>
    <g fill="rgb(153,204,255)" text-rendering="geometricPrecision" shape-rendering="geometricPrecision" transform="matrix(1,0,0,1,-142,125)" stroke="rgb(153,204,255)">
      <circle r="15" clip-path="url(#clipPath2)" cx="484.8003" cy="241.0261" stroke="none"/>
    </g>
    <g text-rendering="geometricPrecision" stroke-miterlimit="1.45" shape-rendering="geometricPrecision" transform="matrix(1,0,0,1,-142,125)" stroke-linecap="butt">
      <circle fill="none" r="15" clip-path="url(#clipPath2)" cx="484.8003" cy="241.0261"/>
      <text x="480.9829" xml:space="preserve" y="245.1804" clip-path="url(#clipPath2)" font-family="sans-serif" stroke="none">2</text>
    </g>
    <g fill="rgb(153,204,255)" text-rendering="geometricPrecision" shape-rendering="geometricPrecision" transform="matrix(1,0,0,1,-142,125)" stroke="rgb(153,204,255)">
      <circle r="15" clip-path="url(#clipPath2)" cx="523.8861" cy="241.0261" stroke="none"/>
    </g>
    <g text-rendering="geometricPrecision" stroke-miterlimit="1.45" shape-rendering="geometricPrecision" transform="matrix(1,0,0,1,-142,125)" stroke-linecap="butt">
      <circle fill="none" r="15" clip-path="url(#clipPath2)" cx="523.8861" cy="241.0261"/>
      <text x="520.0687" xml:space="preserve" y="245.1804" clip-path="url(#clipPath2)" font-family="sans-serif" stroke="none">1</text>
      <text x="247.4387" font-size="20px" y="-53.8957" clip-path="url(#clipPath2)" font-family="'Lato Medium'" stroke="none" xml:space="preserve">n=2</text>
      <text x="467.6103" font-size="20px" y="-53.8957" clip-path="url(#clipPath2)" font-family="'Lato Medium'" stroke="none" xml:space="preserve">n=3</text>
    </g>
  </g>
</svg>
