<?xml version="1.0" encoding="UTF-8"?><svg xmlns="http://www.w3.org/2000/svg" xmlns:xlink="http://www.w3.org/1999/xlink" fill-opacity="1" color-rendering="auto" color-interpolation="auto" text-rendering="auto" stroke="black" stroke-linecap="square" width="706" stroke-miterlimit="10" shape-rendering="auto" stroke-opacity="1" fill="black" stroke-dasharray="none" font-weight="normal" stroke-width="1" height="436" font-family="'Dialog'" font-style="normal" stroke-linejoin="miter" font-size="12px" stroke-dashoffset="0" image-rendering="auto">
  <!--Generated by ySVG 2.6-->
  <defs id="genericDefs"/>
  <g>
    <g font-size="16px" stroke-linecap="butt" transform="matrix(1,0,0,1,-34,-141)" text-rendering="geometricPrecision" font-family="'Lato'" shape-rendering="geometricPrecision" stroke-miterlimit="1.45">
      <text x="63.0066" xml:space="preserve" y="448.8799" clip-path="url(#clipPath2)" stroke="none">Program that uses 1 CPU and 10GB of RAM needs 3 slots</text>
    </g>
    <g text-rendering="geometricPrecision" shape-rendering="geometricPrecision" transform="matrix(0.3979,0,0,0.3904,485.5068,11.5958)">
      <g clip-path="url(#clipPath3)">
        <svg xmlns:svg="http://www.w3.org/2000/svg" xmlns:sodipodi="http://sodipodi.sourceforge.net/DTD/sodipodi-0.dtd" xmlns:inkscape="http://www.inkscape.org/namespaces/inkscape" xmlns:dc="http://purl.org/dc/elements/1.1/" xmlns:cc="http://creativecommons.org/ns#" xmlns:rdf="http://www.w3.org/1999/02/22-rdf-syntax-ns#" opacity="1" writing-mode="lr-tb" stop-color="rgb(0, 0, 0)" shape-rendering="auto" glyph-orientation-horizontal="0deg" color-profile="auto" lighting-color="rgb(255, 255, 255)" color="rgb(0, 0, 0)" font-weight="400" alignment-baseline="auto" font-style="normal" version="1.1" color-interpolation-filters="linearrgb" text-anchor="start" stroke-linecap="butt" color-interpolation="srgb" font-variant="normal" word-spacing="normal" fill-opacity="1" text-rendering="auto" clip-path="none" text-decoration="none" letter-spacing="normal" viewBox="0 0 138.29439 86.615186" glyph-orientation-vertical="auto" display="inline" font-size-adjust="none" overflow="hidden" fill="rgb(0, 0, 0)" font-stretch="normal" stroke-dasharray="none" inkscape:version="0.92.3 (2405546, 2018-03-11)" id="svg1.svg832" stroke-miterlimit="4" stop-opacity="1" color-rendering="auto" font-size="12" pointer-events="visiblepainted" mask="none" direction="ltr" baseline-shift="baseline" sodipodi:docname="server_icon_cc0.svg" enable-background="accumulate" fill-rule="nonzero" image-rendering="auto" stroke-dashoffset="0" marker-end="none" width="522.6875" clip="auto" cursor="auto" stroke="none" filter="none" visibility="visible" kerning="auto" stroke-width="1" font-family="&quot;Arial&quot;,&quot;Helvetica&quot;,sans-serif" flood-opacity="1" clip-rule="nonzero" src="none" height="327.36447" unicode-bidi="normal" stroke-linejoin="miter" stroke-opacity="1" flood-color="rgb(0, 0, 0)" dominant-baseline="auto" marker-start="none" marker-mid="none">
            
          <title id="svg1.title1518">Server Icon black-transparent</title>
            
          <defs id="svg1.defs826">
            <clipPath clipPathUnits="userSpaceOnUse" id="clipPath1">
              <path d="M0 0 L706 0 L706 436 L0 436 L0 0 Z"/>
            </clipPath>
            <clipPath clipPathUnits="userSpaceOnUse" id="clipPath2">
              <path d="M34 141 L740 141 L740 577 L34 577 L34 141 Z"/>
            </clipPath>
            <clipPath clipPathUnits="userSpaceOnUse" id="clipPath3">
              <path d="M-1220.2909 -29.7013 L554.1959 -29.7013 L554.1959 1087.0564 L-1220.2909 1087.0564 L-1220.2909 -29.7013 Z"/>
            </clipPath>
          </defs>
            
  
          <metadata id="svg1.metadata829">
    
  </metadata>
            
          <g inkscape:groupmode="layer" id="svg1.layer1" transform="translate(-39.56907,-22.790545)" inkscape:label="Layer 1">
                
            <g id="svg1.g1417"/>
                
            <g id="svg1.g1497" transform="matrix(1.2390228,0,0,1.0779381,-15.388775,-29.063863)">
                    
              <path d="M 46.491217,50.559713 V 73.237915 H 153.83608 V 50.559713 Z m 5.17333,4.724259 h 4.7718 v 13.229167 h -4.7718 z m 9.524999,0 h 4.7718 v 13.229167 h -4.7718 z m 9.525,0 h 4.7718 v 13.229167 h -4.7718 z" id="svg1.rect1377" inkscape:connector-curvature="0" style="opacity:1;vector-effect:none;fill:#000000;fill-opacity:1;fill-rule:evenodd;stroke:none;stroke-width:0.26458332px;stroke-linecap:butt;stroke-linejoin:miter;stroke-miterlimit:4;stroke-dasharray:none;stroke-dashoffset:0;stroke-opacity:1"/>
                    
              <path d="M 46.491217,76.942403 V 99.620607 H 153.83608 V 76.942403 Z m 5.17333,4.724259 h 4.7718 V 94.89583 h -4.7718 z m 9.524999,0 h 4.7718 V 94.89583 h -4.7718 z m 9.525,0 h 4.7718 V 94.89583 h -4.7718 z" id="svg1.rect1377-9" inkscape:connector-curvature="0" style="opacity:1;vector-effect:none;fill:#000000;fill-opacity:1;fill-rule:evenodd;stroke:none;stroke-width:0.26458332px;stroke-linecap:butt;stroke-linejoin:miter;stroke-miterlimit:4;stroke-dasharray:none;stroke-dashoffset:0;stroke-opacity:1"/>
                    
              <path d="m 46.491217,103.3251 v 22.6782 H 153.83608 v -22.6782 z m 5.17333,4.72426 h 4.7718 v 13.22917 h -4.7718 z m 9.524999,0 h 4.7718 v 13.22917 h -4.7718 z m 9.525,0 h 4.7718 v 13.22917 h -4.7718 z" id="svg1.rect1377-0" inkscape:connector-curvature="0" style="opacity:1;vector-effect:none;fill:#000000;fill-opacity:1;fill-rule:evenodd;stroke:none;stroke-width:0.26458332px;stroke-linecap:butt;stroke-linejoin:miter;stroke-miterlimit:4;stroke-dasharray:none;stroke-dashoffset:0;stroke-opacity:1"/>
                    
              <g id="svg1.g1487">
                        
                <rect x="51.668839" width="4.7624998" id="svg1.rect1423" height="6.803833" y="72.2173" style="opacity:1;vector-effect:none;fill:#000000;fill-opacity:1;fill-rule:evenodd;stroke:none;stroke-width:4.54863453;stroke-linecap:butt;stroke-linejoin:miter;stroke-miterlimit:4;stroke-dasharray:none;stroke-dashoffset:0;stroke-opacity:1"/>
                        
                <rect x="51.668839" width="4.7624998" id="svg1.rect1423-5" height="6.803833" y="98.373383" style="opacity:1;vector-effect:none;fill:#000000;fill-opacity:1;fill-rule:evenodd;stroke:none;stroke-width:4.54863453;stroke-linecap:butt;stroke-linejoin:miter;stroke-miterlimit:4;stroke-dasharray:none;stroke-dashoffset:0;stroke-opacity:1"/>
                        
                <rect x="143.63097" width="4.7624998" id="svg1.rect1423-6" height="6.803833" y="72.255165" style="opacity:1;vector-effect:none;fill:#000000;fill-opacity:1;fill-rule:evenodd;stroke:none;stroke-width:4.54863453;stroke-linecap:butt;stroke-linejoin:miter;stroke-miterlimit:4;stroke-dasharray:none;stroke-dashoffset:0;stroke-opacity:1"/>
                        
                <rect x="143.63097" width="4.7624998" id="svg1.rect1423-5-7" height="6.803833" y="98.411247" style="opacity:1;vector-effect:none;fill:#000000;fill-opacity:1;fill-rule:evenodd;stroke:none;stroke-width:4.54863453;stroke-linecap:butt;stroke-linejoin:miter;stroke-miterlimit:4;stroke-dasharray:none;stroke-dashoffset:0;stroke-opacity:1"/>
                      
              </g>
                  
            </g>
              
          </g>
          
        </svg>
      </g>
    </g>
    <g font-size="16px" stroke-linecap="butt" transform="matrix(1,0,0,1,-34,-141)" text-rendering="geometricPrecision" font-family="'Lato'" shape-rendering="geometricPrecision" stroke-miterlimit="1.45">
      <text x="532.9545" xml:space="preserve" y="541.3799" clip-path="url(#clipPath2)" stroke="none">Compute node = 32 slots</text>
    </g>
    <g fill="rgb(98,180,164)" text-rendering="geometricPrecision" shape-rendering="geometricPrecision" transform="matrix(1,0,0,1,-34,-141)" stroke="rgb(98,180,164)">
      <rect x="525" width="50" height="25" y="481.5" clip-path="url(#clipPath2)" stroke="none"/>
    </g>
    <g text-rendering="geometricPrecision" stroke-miterlimit="1.45" shape-rendering="geometricPrecision" transform="matrix(1,0,0,1,-34,-141)" stroke-linecap="butt">
      <rect fill="none" x="525" width="50" height="25" y="481.5" clip-path="url(#clipPath2)"/>
    </g>
    <g fill="rgb(98,180,164)" text-rendering="geometricPrecision" shape-rendering="geometricPrecision" transform="matrix(1,0,0,1,-34,-141)" stroke="rgb(98,180,164)">
      <rect x="575" width="50" height="25" y="481.5" clip-path="url(#clipPath2)" stroke="none"/>
    </g>
    <g text-rendering="geometricPrecision" stroke-miterlimit="1.45" shape-rendering="geometricPrecision" transform="matrix(1,0,0,1,-34,-141)" stroke-linecap="butt">
      <rect fill="none" x="575" width="50" height="25" y="481.5" clip-path="url(#clipPath2)"/>
    </g>
    <g fill="rgb(153,204,255)" text-rendering="geometricPrecision" shape-rendering="geometricPrecision" transform="matrix(1,0,0,1,-34,-141)" stroke="rgb(153,204,255)">
      <rect x="525" width="50" height="25" y="456.5" clip-path="url(#clipPath2)" stroke="none"/>
    </g>
    <g text-rendering="geometricPrecision" stroke-miterlimit="1.45" shape-rendering="geometricPrecision" transform="matrix(1,0,0,1,-34,-141)" stroke-linecap="butt">
      <rect fill="none" x="525" width="50" height="25" y="456.5" clip-path="url(#clipPath2)"/>
    </g>
    <g fill="rgb(153,204,255)" text-rendering="geometricPrecision" shape-rendering="geometricPrecision" transform="matrix(1,0,0,1,-34,-141)" stroke="rgb(153,204,255)">
      <rect x="575" width="50" height="25" y="456.5" clip-path="url(#clipPath2)" stroke="none"/>
    </g>
    <g text-rendering="geometricPrecision" stroke-miterlimit="1.45" shape-rendering="geometricPrecision" transform="matrix(1,0,0,1,-34,-141)" stroke-linecap="butt">
      <rect fill="none" x="575" width="50" height="25" y="456.5" clip-path="url(#clipPath2)"/>
    </g>
    <g fill="rgb(153,204,255)" text-rendering="geometricPrecision" shape-rendering="geometricPrecision" transform="matrix(1,0,0,1,-34,-141)" stroke="rgb(153,204,255)">
      <rect x="525" width="50" height="25" y="431.5" clip-path="url(#clipPath2)" stroke="none"/>
    </g>
    <g text-rendering="geometricPrecision" stroke-miterlimit="1.45" shape-rendering="geometricPrecision" transform="matrix(1,0,0,1,-34,-141)" stroke-linecap="butt">
      <rect fill="none" x="525" width="50" height="25" y="431.5" clip-path="url(#clipPath2)"/>
    </g>
    <g fill="rgb(153,204,255)" text-rendering="geometricPrecision" shape-rendering="geometricPrecision" transform="matrix(1,0,0,1,-34,-141)" stroke="rgb(153,204,255)">
      <rect x="575" width="50" height="25" y="431.5" clip-path="url(#clipPath2)" stroke="none"/>
    </g>
    <g text-rendering="geometricPrecision" stroke-miterlimit="1.45" shape-rendering="geometricPrecision" transform="matrix(1,0,0,1,-34,-141)" stroke-linecap="butt">
      <rect fill="none" x="575" width="50" height="25" y="431.5" clip-path="url(#clipPath2)"/>
    </g>
    <g fill="rgb(153,204,255)" text-rendering="geometricPrecision" shape-rendering="geometricPrecision" transform="matrix(1,0,0,1,-34,-141)" stroke="rgb(153,204,255)">
      <rect x="525" width="50" height="25" y="406.5" clip-path="url(#clipPath2)" stroke="none"/>
    </g>
    <g text-rendering="geometricPrecision" stroke-miterlimit="1.45" shape-rendering="geometricPrecision" transform="matrix(1,0,0,1,-34,-141)" stroke-linecap="butt">
      <rect fill="none" x="525" width="50" height="25" y="406.5" clip-path="url(#clipPath2)"/>
    </g>
    <g fill="rgb(153,204,255)" text-rendering="geometricPrecision" shape-rendering="geometricPrecision" transform="matrix(1,0,0,1,-34,-141)" stroke="rgb(153,204,255)">
      <rect x="575" width="50" height="25" y="406.5" clip-path="url(#clipPath2)" stroke="none"/>
    </g>
    <g text-rendering="geometricPrecision" stroke-miterlimit="1.45" shape-rendering="geometricPrecision" transform="matrix(1,0,0,1,-34,-141)" stroke-linecap="butt">
      <rect fill="none" x="575" width="50" height="25" y="406.5" clip-path="url(#clipPath2)"/>
    </g>
    <g fill="rgb(98,180,164)" text-rendering="geometricPrecision" shape-rendering="geometricPrecision" transform="matrix(1,0,0,1,-34,-141)" stroke="rgb(98,180,164)">
      <rect x="525" width="50" height="25" y="381.5" clip-path="url(#clipPath2)" stroke="none"/>
    </g>
    <g text-rendering="geometricPrecision" stroke-miterlimit="1.45" shape-rendering="geometricPrecision" transform="matrix(1,0,0,1,-34,-141)" stroke-linecap="butt">
      <rect fill="none" x="525" width="50" height="25" y="381.5" clip-path="url(#clipPath2)"/>
    </g>
    <g fill="rgb(153,204,255)" text-rendering="geometricPrecision" shape-rendering="geometricPrecision" transform="matrix(1,0,0,1,-34,-141)" stroke="rgb(153,204,255)">
      <rect x="575" width="50" height="25" y="381.5" clip-path="url(#clipPath2)" stroke="none"/>
    </g>
    <g text-rendering="geometricPrecision" stroke-miterlimit="1.45" shape-rendering="geometricPrecision" transform="matrix(1,0,0,1,-34,-141)" stroke-linecap="butt">
      <rect fill="none" x="575" width="50" height="25" y="381.5" clip-path="url(#clipPath2)"/>
    </g>
    <g fill="rgb(98,180,164)" text-rendering="geometricPrecision" shape-rendering="geometricPrecision" transform="matrix(1,0,0,1,-34,-141)" stroke="rgb(98,180,164)">
      <rect x="525" width="50" height="25" y="356.5" clip-path="url(#clipPath2)" stroke="none"/>
    </g>
    <g text-rendering="geometricPrecision" stroke-miterlimit="1.45" shape-rendering="geometricPrecision" transform="matrix(1,0,0,1,-34,-141)" stroke-linecap="butt">
      <rect fill="none" x="525" width="50" height="25" y="356.5" clip-path="url(#clipPath2)"/>
    </g>
    <g fill="rgb(153,204,255)" text-rendering="geometricPrecision" shape-rendering="geometricPrecision" transform="matrix(1,0,0,1,-34,-141)" stroke="rgb(153,204,255)">
      <rect x="575" width="50" height="25" y="356.5" clip-path="url(#clipPath2)" stroke="none"/>
    </g>
    <g text-rendering="geometricPrecision" stroke-miterlimit="1.45" shape-rendering="geometricPrecision" transform="matrix(1,0,0,1,-34,-141)" stroke-linecap="butt">
      <rect fill="none" x="575" width="50" height="25" y="356.5" clip-path="url(#clipPath2)"/>
    </g>
    <g fill="rgb(98,180,164)" text-rendering="geometricPrecision" shape-rendering="geometricPrecision" transform="matrix(1,0,0,1,-34,-141)" stroke="rgb(98,180,164)">
      <rect x="525" width="50" height="25" y="331.5" clip-path="url(#clipPath2)" stroke="none"/>
    </g>
    <g text-rendering="geometricPrecision" stroke-miterlimit="1.45" shape-rendering="geometricPrecision" transform="matrix(1,0,0,1,-34,-141)" stroke-linecap="butt">
      <rect fill="none" x="525" width="50" height="25" y="331.5" clip-path="url(#clipPath2)"/>
    </g>
    <g fill="rgb(153,204,255)" text-rendering="geometricPrecision" shape-rendering="geometricPrecision" transform="matrix(1,0,0,1,-34,-141)" stroke="rgb(153,204,255)">
      <rect x="575" width="50" height="25" y="331.5" clip-path="url(#clipPath2)" stroke="none"/>
    </g>
    <g text-rendering="geometricPrecision" stroke-miterlimit="1.45" shape-rendering="geometricPrecision" transform="matrix(1,0,0,1,-34,-141)" stroke-linecap="butt">
      <rect fill="none" x="575" width="50" height="25" y="331.5" clip-path="url(#clipPath2)"/>
    </g>
    <g fill="rgb(98,180,164)" text-rendering="geometricPrecision" shape-rendering="geometricPrecision" transform="matrix(1,0,0,1,-34,-141)" stroke="rgb(98,180,164)">
      <rect x="525" width="50" height="25" y="306.5" clip-path="url(#clipPath2)" stroke="none"/>
    </g>
    <g text-rendering="geometricPrecision" stroke-miterlimit="1.45" shape-rendering="geometricPrecision" transform="matrix(1,0,0,1,-34,-141)" stroke-linecap="butt">
      <rect fill="none" x="525" width="50" height="25" y="306.5" clip-path="url(#clipPath2)"/>
    </g>
    <g fill="rgb(153,204,255)" text-rendering="geometricPrecision" shape-rendering="geometricPrecision" transform="matrix(1,0,0,1,-34,-141)" stroke="rgb(153,204,255)">
      <rect x="575" width="50" height="25" y="306.5" clip-path="url(#clipPath2)" stroke="none"/>
    </g>
    <g text-rendering="geometricPrecision" stroke-miterlimit="1.45" shape-rendering="geometricPrecision" transform="matrix(1,0,0,1,-34,-141)" stroke-linecap="butt">
      <rect fill="none" x="575" width="50" height="25" y="306.5" clip-path="url(#clipPath2)"/>
    </g>
    <g fill="rgb(98,180,164)" text-rendering="geometricPrecision" shape-rendering="geometricPrecision" transform="matrix(1,0,0,1,-34,-141)" stroke="rgb(98,180,164)">
      <rect x="625" width="50" height="25" y="481.5" clip-path="url(#clipPath2)" stroke="none"/>
    </g>
    <g text-rendering="geometricPrecision" stroke-miterlimit="1.45" shape-rendering="geometricPrecision" transform="matrix(1,0,0,1,-34,-141)" stroke-linecap="butt">
      <rect fill="none" x="625" width="50" height="25" y="481.5" clip-path="url(#clipPath2)"/>
    </g>
    <g fill="rgb(153,204,255)" text-rendering="geometricPrecision" shape-rendering="geometricPrecision" transform="matrix(1,0,0,1,-34,-141)" stroke="rgb(153,204,255)">
      <rect x="675" width="50" height="25" y="481.5" clip-path="url(#clipPath2)" stroke="none"/>
    </g>
    <g text-rendering="geometricPrecision" stroke-miterlimit="1.45" shape-rendering="geometricPrecision" transform="matrix(1,0,0,1,-34,-141)" stroke-linecap="butt">
      <rect fill="none" x="675" width="50" height="25" y="481.5" clip-path="url(#clipPath2)"/>
    </g>
    <g fill="rgb(153,204,255)" text-rendering="geometricPrecision" shape-rendering="geometricPrecision" transform="matrix(1,0,0,1,-34,-141)" stroke="rgb(153,204,255)">
      <rect x="625" width="50" height="25" y="456.5" clip-path="url(#clipPath2)" stroke="none"/>
    </g>
    <g text-rendering="geometricPrecision" stroke-miterlimit="1.45" shape-rendering="geometricPrecision" transform="matrix(1,0,0,1,-34,-141)" stroke-linecap="butt">
      <rect fill="none" x="625" width="50" height="25" y="456.5" clip-path="url(#clipPath2)"/>
    </g>
    <g fill="rgb(153,204,255)" text-rendering="geometricPrecision" shape-rendering="geometricPrecision" transform="matrix(1,0,0,1,-34,-141)" stroke="rgb(153,204,255)">
      <rect x="675" width="50" height="25" y="456.5" clip-path="url(#clipPath2)" stroke="none"/>
    </g>
    <g text-rendering="geometricPrecision" stroke-miterlimit="1.45" shape-rendering="geometricPrecision" transform="matrix(1,0,0,1,-34,-141)" stroke-linecap="butt">
      <rect fill="none" x="675" width="50" height="25" y="456.5" clip-path="url(#clipPath2)"/>
    </g>
    <g fill="rgb(153,204,255)" text-rendering="geometricPrecision" shape-rendering="geometricPrecision" transform="matrix(1,0,0,1,-34,-141)" stroke="rgb(153,204,255)">
      <rect x="625" width="50" height="25" y="431.5" clip-path="url(#clipPath2)" stroke="none"/>
    </g>
    <g text-rendering="geometricPrecision" stroke-miterlimit="1.45" shape-rendering="geometricPrecision" transform="matrix(1,0,0,1,-34,-141)" stroke-linecap="butt">
      <rect fill="none" x="625" width="50" height="25" y="431.5" clip-path="url(#clipPath2)"/>
    </g>
    <g fill="rgb(153,204,255)" text-rendering="geometricPrecision" shape-rendering="geometricPrecision" transform="matrix(1,0,0,1,-34,-141)" stroke="rgb(153,204,255)">
      <rect x="675" width="50" height="25" y="431.5" clip-path="url(#clipPath2)" stroke="none"/>
    </g>
    <g text-rendering="geometricPrecision" stroke-miterlimit="1.45" shape-rendering="geometricPrecision" transform="matrix(1,0,0,1,-34,-141)" stroke-linecap="butt">
      <rect fill="none" x="675" width="50" height="25" y="431.5" clip-path="url(#clipPath2)"/>
    </g>
    <g fill="rgb(153,204,255)" text-rendering="geometricPrecision" shape-rendering="geometricPrecision" transform="matrix(1,0,0,1,-34,-141)" stroke="rgb(153,204,255)">
      <rect x="625" width="50" height="25" y="406.5" clip-path="url(#clipPath2)" stroke="none"/>
    </g>
    <g text-rendering="geometricPrecision" stroke-miterlimit="1.45" shape-rendering="geometricPrecision" transform="matrix(1,0,0,1,-34,-141)" stroke-linecap="butt">
      <rect fill="none" x="625" width="50" height="25" y="406.5" clip-path="url(#clipPath2)"/>
    </g>
    <g fill="rgb(153,204,255)" text-rendering="geometricPrecision" shape-rendering="geometricPrecision" transform="matrix(1,0,0,1,-34,-141)" stroke="rgb(153,204,255)">
      <rect x="675" width="50" height="25" y="406.5" clip-path="url(#clipPath2)" stroke="none"/>
    </g>
    <g text-rendering="geometricPrecision" stroke-miterlimit="1.45" shape-rendering="geometricPrecision" transform="matrix(1,0,0,1,-34,-141)" stroke-linecap="butt">
      <rect fill="none" x="675" width="50" height="25" y="406.5" clip-path="url(#clipPath2)"/>
    </g>
    <g fill="rgb(153,204,255)" text-rendering="geometricPrecision" shape-rendering="geometricPrecision" transform="matrix(1,0,0,1,-34,-141)" stroke="rgb(153,204,255)">
      <rect x="625" width="50" height="25" y="381.5" clip-path="url(#clipPath2)" stroke="none"/>
    </g>
    <g text-rendering="geometricPrecision" stroke-miterlimit="1.45" shape-rendering="geometricPrecision" transform="matrix(1,0,0,1,-34,-141)" stroke-linecap="butt">
      <rect fill="none" x="625" width="50" height="25" y="381.5" clip-path="url(#clipPath2)"/>
    </g>
    <g fill="rgb(153,204,255)" text-rendering="geometricPrecision" shape-rendering="geometricPrecision" transform="matrix(1,0,0,1,-34,-141)" stroke="rgb(153,204,255)">
      <rect x="675" width="50" height="25" y="381.5" clip-path="url(#clipPath2)" stroke="none"/>
    </g>
    <g text-rendering="geometricPrecision" stroke-miterlimit="1.45" shape-rendering="geometricPrecision" transform="matrix(1,0,0,1,-34,-141)" stroke-linecap="butt">
      <rect fill="none" x="675" width="50" height="25" y="381.5" clip-path="url(#clipPath2)"/>
    </g>
    <g fill="rgb(153,204,255)" text-rendering="geometricPrecision" shape-rendering="geometricPrecision" transform="matrix(1,0,0,1,-34,-141)" stroke="rgb(153,204,255)">
      <rect x="625" width="50" height="25" y="356.5" clip-path="url(#clipPath2)" stroke="none"/>
    </g>
    <g text-rendering="geometricPrecision" stroke-miterlimit="1.45" shape-rendering="geometricPrecision" transform="matrix(1,0,0,1,-34,-141)" stroke-linecap="butt">
      <rect fill="none" x="625" width="50" height="25" y="356.5" clip-path="url(#clipPath2)"/>
    </g>
    <g fill="rgb(153,204,255)" text-rendering="geometricPrecision" shape-rendering="geometricPrecision" transform="matrix(1,0,0,1,-34,-141)" stroke="rgb(153,204,255)">
      <rect x="675" width="50" height="25" y="356.5" clip-path="url(#clipPath2)" stroke="none"/>
    </g>
    <g text-rendering="geometricPrecision" stroke-miterlimit="1.45" shape-rendering="geometricPrecision" transform="matrix(1,0,0,1,-34,-141)" stroke-linecap="butt">
      <rect fill="none" x="675" width="50" height="25" y="356.5" clip-path="url(#clipPath2)"/>
    </g>
    <g fill="rgb(153,204,255)" text-rendering="geometricPrecision" shape-rendering="geometricPrecision" transform="matrix(1,0,0,1,-34,-141)" stroke="rgb(153,204,255)">
      <rect x="625" width="50" height="25" y="331.5" clip-path="url(#clipPath2)" stroke="none"/>
    </g>
    <g text-rendering="geometricPrecision" stroke-miterlimit="1.45" shape-rendering="geometricPrecision" transform="matrix(1,0,0,1,-34,-141)" stroke-linecap="butt">
      <rect fill="none" x="625" width="50" height="25" y="331.5" clip-path="url(#clipPath2)"/>
    </g>
    <g fill="rgb(153,204,255)" text-rendering="geometricPrecision" shape-rendering="geometricPrecision" transform="matrix(1,0,0,1,-34,-141)" stroke="rgb(153,204,255)">
      <rect x="675" width="50" height="25" y="331.5" clip-path="url(#clipPath2)" stroke="none"/>
    </g>
    <g text-rendering="geometricPrecision" stroke-miterlimit="1.45" shape-rendering="geometricPrecision" transform="matrix(1,0,0,1,-34,-141)" stroke-linecap="butt">
      <rect fill="none" x="675" width="50" height="25" y="331.5" clip-path="url(#clipPath2)"/>
    </g>
    <g fill="rgb(153,204,255)" text-rendering="geometricPrecision" shape-rendering="geometricPrecision" transform="matrix(1,0,0,1,-34,-141)" stroke="rgb(153,204,255)">
      <rect x="625" width="50" height="25" y="306.5" clip-path="url(#clipPath2)" stroke="none"/>
    </g>
    <g text-rendering="geometricPrecision" stroke-miterlimit="1.45" shape-rendering="geometricPrecision" transform="matrix(1,0,0,1,-34,-141)" stroke-linecap="butt">
      <rect fill="none" x="625" width="50" height="25" y="306.5" clip-path="url(#clipPath2)"/>
    </g>
    <g fill="rgb(153,204,255)" text-rendering="geometricPrecision" shape-rendering="geometricPrecision" transform="matrix(1,0,0,1,-34,-141)" stroke="rgb(153,204,255)">
      <rect x="675" width="50" height="25" y="306.5" clip-path="url(#clipPath2)" stroke="none"/>
    </g>
    <g text-rendering="geometricPrecision" stroke-miterlimit="1.45" shape-rendering="geometricPrecision" transform="matrix(1,0,0,1,-34,-141)" stroke-linecap="butt">
      <rect fill="none" x="675" width="50" height="25" y="306.5" clip-path="url(#clipPath2)"/>
      <text x="51.0347" font-size="16px" y="276.3799" clip-path="url(#clipPath2)" font-family="'Lato'" stroke="none" xml:space="preserve">Program that uses 4 CPUs and 1 GB of memory needs 4 slots</text>
    </g>
    <g fill="rgb(98,180,164)" text-rendering="geometricPrecision" shape-rendering="geometricPrecision" transform="matrix(1,0,0,1,-34,-141)" stroke="rgb(98,180,164)">
      <rect x="191" width="50" height="25" y="481.5" clip-path="url(#clipPath2)" stroke="none"/>
    </g>
    <g text-rendering="geometricPrecision" stroke-miterlimit="1.45" shape-rendering="geometricPrecision" transform="matrix(1,0,0,1,-34,-141)" stroke-linecap="butt">
      <rect fill="none" x="191" width="50" height="25" y="481.5" clip-path="url(#clipPath2)"/>
    </g>
    <g fill="rgb(98,180,164)" text-rendering="geometricPrecision" shape-rendering="geometricPrecision" transform="matrix(1,0,0,1,-34,-141)" stroke="rgb(98,180,164)">
      <rect x="241" width="50" height="25" y="481.5" clip-path="url(#clipPath2)" stroke="none"/>
    </g>
    <g text-rendering="geometricPrecision" stroke-miterlimit="1.45" shape-rendering="geometricPrecision" transform="matrix(1,0,0,1,-34,-141)" stroke-linecap="butt">
      <rect fill="none" x="241" width="50" height="25" y="481.5" clip-path="url(#clipPath2)"/>
    </g>
    <g fill="rgb(98,180,164)" text-rendering="geometricPrecision" shape-rendering="geometricPrecision" transform="matrix(1,0,0,1,-34,-141)" stroke="rgb(98,180,164)">
      <rect x="291" width="50" height="25" y="481.5" clip-path="url(#clipPath2)" stroke="none"/>
    </g>
    <g text-rendering="geometricPrecision" stroke-miterlimit="1.45" shape-rendering="geometricPrecision" transform="matrix(1,0,0,1,-34,-141)" stroke-linecap="butt">
      <rect fill="none" x="291" width="50" height="25" y="481.5" clip-path="url(#clipPath2)"/>
    </g>
    <g fill="rgb(98,180,164)" text-rendering="geometricPrecision" shape-rendering="geometricPrecision" transform="matrix(1,0,0,1,-34,-141)" stroke="rgb(98,180,164)">
      <rect x="241" width="50" height="25" y="356.5" clip-path="url(#clipPath2)" stroke="none"/>
    </g>
    <g text-rendering="geometricPrecision" stroke-miterlimit="1.45" shape-rendering="geometricPrecision" transform="matrix(1,0,0,1,-34,-141)" stroke-linecap="butt">
      <rect fill="none" x="241" width="50" height="25" y="356.5" clip-path="url(#clipPath2)"/>
    </g>
    <g fill="rgb(98,180,164)" text-rendering="geometricPrecision" shape-rendering="geometricPrecision" transform="matrix(1,0,0,1,-34,-141)" stroke="rgb(98,180,164)">
      <rect x="241" width="50" height="25" y="381.5" clip-path="url(#clipPath2)" stroke="none"/>
    </g>
    <g text-rendering="geometricPrecision" stroke-miterlimit="1.45" shape-rendering="geometricPrecision" transform="matrix(1,0,0,1,-34,-141)" stroke-linecap="butt">
      <rect fill="none" x="241" width="50" height="25" y="381.5" clip-path="url(#clipPath2)"/>
    </g>
    <g fill="rgb(98,180,164)" text-rendering="geometricPrecision" shape-rendering="geometricPrecision" transform="matrix(1,0,0,1,-34,-141)" stroke="rgb(98,180,164)">
      <rect x="241" width="50" height="25" y="331.5" clip-path="url(#clipPath2)" stroke="none"/>
    </g>
    <g text-rendering="geometricPrecision" stroke-miterlimit="1.45" shape-rendering="geometricPrecision" transform="matrix(1,0,0,1,-34,-141)" stroke-linecap="butt">
      <rect fill="none" x="241" width="50" height="25" y="331.5" clip-path="url(#clipPath2)"/>
    </g>
    <g fill="rgb(98,180,164)" text-rendering="geometricPrecision" shape-rendering="geometricPrecision" transform="matrix(1,0,0,1,-34,-141)" stroke="rgb(98,180,164)">
      <rect x="241" width="50" height="25" y="306.5" clip-path="url(#clipPath2)" stroke="none"/>
    </g>
    <g text-rendering="geometricPrecision" stroke-miterlimit="1.45" shape-rendering="geometricPrecision" transform="matrix(1,0,0,1,-34,-141)" stroke-linecap="butt">
      <rect fill="none" x="241" width="50" height="25" y="306.5" clip-path="url(#clipPath2)"/>
      <path fill="none" d="M341 494 L517 494" clip-path="url(#clipPath2)"/>
      <path d="M525 494 L513 489 L516 494 L513 499 Z" clip-path="url(#clipPath2)" stroke="none"/>
      <path fill="none" d="M291.0057 358.2685 L517.0024 355.156" clip-path="url(#clipPath2)"/>
      <path d="M525.0017 355.0459 L512.934 350.2116 L516.0026 355.1698 L513.0717 360.2106 Z" clip-path="url(#clipPath2)" stroke="none"/>
    </g>
  </g>
</svg>
